STARTFONT 2.1
COMMENT
COMMENT Converted from OpenType font "Q:\font stuff\winfont\TeutonWeiss.otf" by "otf2bdf 3.0".
COMMENT
FONT -FreeType-Teuton Weiss-Medium-R-Normal--84-840-72-72-P-271-ISO10646-1
SIZE 84 72 72
FONTBOUNDINGBOX 71 89 -4 -18
STARTPROPERTIES 19
FOUNDRY "FreeType"
FAMILY_NAME "Teuton Weiss"
WEIGHT_NAME "Medium"
SLANT "R"
SETWIDTH_NAME "Normal"
ADD_STYLE_NAME ""
PIXEL_SIZE 84
POINT_SIZE 840
RESOLUTION_X 72
RESOLUTION_Y 72
SPACING "P"
AVERAGE_WIDTH 271
CHARSET_REGISTRY "ISO10646"
CHARSET_ENCODING "1"
FONT_ASCENT 70
FONT_DESCENT 16
COPYRIGHT "Copyright Copr. 2001, Frantisek Storm, www.stormtype.com. All rights reserved."
_OTF_FONTFILE "Q:\font stuff\winfont\TeutonWeiss.otf"
_OTF_PSNAME "TeutonWeiss"
ENDPROPERTIES
CHARS 356
STARTCHAR 0020
ENCODING 32
SWIDTH 261 0
DWIDTH 22 0
BBX 0 0 0 0
BITMAP
ENDCHAR
STARTCHAR 0021
ENCODING 33
SWIDTH 178 0
DWIDTH 15 0
BBX 2 59 7 0
BITMAP
C0
C0
C0
C0
C0
C0
C0
C0
C0
C0
C0
C0
C0
C0
C0
C0
C0
C0
C0
C0
C0
C0
C0
C0
C0
C0
C0
C0
C0
C0
C0
C0
C0
C0
C0
C0
C0
C0
C0
C0
C0
C0
C0
C0
C0
C0
C0
C0
00
00
00
00
00
00
00
00
C0
C0
C0
ENDCHAR
STARTCHAR 0022
ENCODING 34
SWIDTH 261 0
DWIDTH 22 0
BBX 9 13 7 46
BITMAP
C180
C180
C180
C180
C180
C180
C180
C180
C180
C180
C180
C180
C180
ENDCHAR
STARTCHAR 0023
ENCODING 35
SWIDTH 440 0
DWIDTH 37 0
BBX 34 59 2 0
BITMAP
0006000600
0006000600
0006000600
0006000E00
0006000C00
000C000C00
000C000C00
000C000C00
000C000C00
000C001800
000C001800
0018001800
0018001800
0018001800
0018001800
0018003000
0038003000
0FFFFFFFC0
0FFFFFFFC0
0030003000
0030003000
0030006000
0070006000
0060006000
0060006000
0060006000
0060006000
006000C000
00C000C000
00C000C000
00C000C000
00C000C000
00C000C000
00C0018000
0180018000
0180018000
0180018000
0180018000
0180030000
FFFFFFFC00
FFFFFFFC00
0300030000
0300030000
0300030000
0300060000
0700060000
0600060000
0600060000
0600060000
0600060000
06000C0000
0E000C0000
0C000C0000
0C000C0000
0C000C0000
0C000C0000
0C00180000
1C00180000
1800180000
ENDCHAR
STARTCHAR 0024
ENCODING 36
SWIDTH 404 0
DWIDTH 34 0
BBX 23 59 5 1
BITMAP
001800
001800
001800
001800
001800
001800
001800
001800
0FFFFE
3FFFFE
700000
600000
C00000
C00000
C00000
C00000
C00000
C00000
600000
600000
300000
1C0000
0E0000
070000
01C000
00E000
007000
003C00
000E00
000700
000380
0000E0
000070
000038
00001C
00000E
000006
000006
000006
000006
000006
000006
000006
000006
000006
000006
000006
000006
00000C
FFFFF8
FFFFE0
001800
001800
001800
001800
001800
001800
001800
001800
ENDCHAR
STARTCHAR 0025
ENCODING 37
SWIDTH 523 0
DWIDTH 44 0
BBX 34 59 5 0
BITMAP
0FF8000180
3FFE000180
7007000300
6003000300
C001800600
C001800600
C001800C00
C001800C00
C001801800
C001801800
C001803000
C001803000
C001806000
C001806000
C00180C000
C001818000
C001818000
C001830000
C001830000
C001860000
C001860000
C0018C0000
C0018C0000
E003180000
6003180000
780E300000
3FFC300000
07F0600000
0000E00000
0000C00000
0001800000
000183FC00
00030FFF00
00031C0380
0006180180
00063000C0
000C3000C0
000C3000C0
00183000C0
00183000C0
00303000C0
00303000C0
00603000C0
00C03000C0
00C03000C0
01803000C0
01803000C0
03003000C0
03003000C0
06003000C0
06003000C0
0C003000C0
0C003000C0
18003000C0
18003000C0
3000180180
30001C0380
60000FFF00
C00003FC00
ENDCHAR
STARTCHAR 0026
ENCODING 38
SWIDTH 583 0
DWIDTH 49 0
BBX 38 59 7 0
BITMAP
0FFFFFFC00
3FFFFFFC00
7000000000
6000000000
4000000000
C000000000
C000000000
C000000000
C000000000
C000000000
C000000000
C000000000
C000000000
C000000000
C000000000
C000000000
C000000000
C000000000
C000000000
C000000000
6000000000
7000000000
3FFFFFFFFC
1FFFFFFFFC
7000000C00
6000000C00
E000000C00
C000000C00
C000000C00
C000000C00
C000000C00
C000000C00
C000000C00
C000000C00
C000000C00
C000000C00
C000000C00
C000000C00
C000000C00
C000000C00
C000000C00
C000000C00
C000000C00
C000000C00
C000000C00
C000000C00
C000000C00
C000000C00
C000000C00
C000000C00
C000000C00
C000000C00
C000000C00
C000000C00
E000000C00
6000000C00
7000000600
3FFFFC07FC
0FFFFC01FC
ENDCHAR
STARTCHAR 0027
ENCODING 39
SWIDTH 202 0
DWIDTH 17 0
BBX 2 13 7 46
BITMAP
C0
C0
C0
C0
C0
C0
C0
C0
C0
C0
C0
C0
C0
ENDCHAR
STARTCHAR 0028
ENCODING 40
SWIDTH 333 0
DWIDTH 28 0
BBX 16 76 7 -17
BITMAP
003F
03FF
0F80
1C00
3800
3000
6000
6000
6000
4000
C000
C000
C000
C000
C000
C000
C000
C000
C000
C000
C000
C000
C000
C000
C000
C000
C000
C000
C000
C000
C000
C000
C000
C000
C000
C000
C000
C000
C000
C000
C000
C000
C000
C000
C000
C000
C000
C000
C000
C000
C000
C000
C000
C000
C000
C000
C000
C000
C000
C000
C000
C000
C000
C000
C000
C000
C000
6000
6000
6000
3000
3800
1C00
0F80
03FF
007F
ENDCHAR
STARTCHAR 0029
ENCODING 41
SWIDTH 333 0
DWIDTH 28 0
BBX 16 76 5 -17
BITMAP
FE00
FFC0
01F0
0038
001C
000C
0006
0006
0006
0003
0003
0003
0003
0003
0003
0003
0003
0003
0003
0003
0003
0003
0003
0003
0003
0003
0003
0003
0003
0003
0003
0003
0003
0003
0003
0003
0003
0003
0003
0003
0003
0003
0003
0003
0003
0003
0003
0003
0003
0003
0003
0003
0003
0003
0003
0003
0003
0003
0003
0003
0003
0003
0003
0003
0003
0003
0003
0006
0006
0006
000C
001C
0038
01F0
FFC0
FC00
ENDCHAR
STARTCHAR 002A
ENCODING 42
SWIDTH 404 0
DWIDTH 34 0
BBX 26 25 4 34
BITMAP
000C0000
000C0000
000C0000
000C0000
000C0000
000C0000
000C0000
000C0000
400C0080
F00C07C0
FE0C1FC0
0FC8FC00
00FBC000
000C0000
000E0000
00120000
00330000
00618000
00C0C000
01C0E000
01807000
03807000
07003800
0E001C00
02001000
ENDCHAR
STARTCHAR 002B
ENCODING 43
SWIDTH 452 0
DWIDTH 38 0
BBX 30 30 4 10
BITMAP
00030000
00030000
00030000
00030000
00030000
00030000
00030000
00030000
00030000
00030000
00030000
00030000
00030000
00030000
FFFFFFFC
FFFFFFFC
00030000
00030000
00030000
00030000
00030000
00030000
00030000
00030000
00030000
00030000
00030000
00030000
00030000
00030000
ENDCHAR
STARTCHAR 002C
ENCODING 44
SWIDTH 178 0
DWIDTH 15 0
BBX 6 15 3 -11
BITMAP
0C
0C
0C
0C
0C
0C
1C
18
18
30
30
70
60
60
C0
ENDCHAR
STARTCHAR 002D
ENCODING 45
SWIDTH 297 0
DWIDTH 25 0
BBX 16 2 4 23
BITMAP
FFFF
FFFF
ENDCHAR
STARTCHAR 002E
ENCODING 46
SWIDTH 166 0
DWIDTH 14 0
BBX 3 3 6 1
BITMAP
E0
E0
E0
ENDCHAR
STARTCHAR 002F
ENCODING 47
SWIDTH 392 0
DWIDTH 33 0
BBX 33 76 0 -17
BITMAP
0000000180
0000000180
0000000380
0000000300
0000000700
0000000600
0000000600
0000000E00
0000000C00
0000001C00
0000001800
0000003800
0000003800
0000003000
0000007000
0000006000
000000E000
000000C000
000000C000
000001C000
0000018000
0000038000
0000030000
0000030000
0000070000
0000060000
00000E0000
00000C0000
00001C0000
00001C0000
0000180000
0000380000
0000300000
0000700000
0000600000
0000600000
0000E00000
0000C00000
0001C00000
0001800000
0001800000
0003800000
0003000000
0007000000
0006000000
000E000000
000E000000
000C000000
001C000000
0018000000
0038000000
0038000000
0030000000
0070000000
0060000000
00E0000000
00C0000000
00C0000000
01C0000000
0180000000
0380000000
0300000000
0700000000
0700000000
0600000000
0E00000000
0C00000000
1C00000000
1C00000000
1800000000
3800000000
3000000000
7000000000
6000000000
6000000000
E000000000
ENDCHAR
STARTCHAR 0030
ENCODING 48
SWIDTH 511 0
DWIDTH 43 0
BBX 28 59 7 0
BITMAP
0FFFFF00
3FFFFFC0
300000E0
60000060
60000030
C0000030
C0000030
C0000030
C0000030
C0000030
C0000030
C0000030
C0000030
C0000030
C0000030
C0000030
C0000030
C0000030
C0000030
C0000030
C0000030
C0000030
C0000030
C0000030
C0000030
C0000030
C0000030
C0000030
C0000030
C0000030
C0000030
C0000030
C0000030
C0000030
C0000030
C0000030
C0000030
C0000030
C0000030
C0000030
C0000030
C0000030
C0000030
C0000030
C0000030
C0000030
C0000030
C0000030
C0000030
C0000030
C0000030
C0000030
C0000030
C0000030
E0000030
60000060
700000E0
3FFFFFC0
0FFFFF00
ENDCHAR
STARTCHAR 0031
ENCODING 49
SWIDTH 511 0
DWIDTH 43 0
BBX 27 60 9 0
BITMAP
00020000
00060000
001E0000
003E0000
00760000
01C60000
03860000
0F060000
1C060000
78060000
E0060000
C0060000
80060000
00060000
00060000
00060000
00060000
00060000
00060000
00060000
00060000
00060000
00060000
00060000
00060000
00060000
00060000
00060000
00060000
00060000
00060000
00060000
00060000
00060000
00060000
00060000
00060000
00060000
00060000
00060000
00060000
00060000
00060000
00060000
00060000
00060000
00060000
00060000
00060000
00060000
00060000
00060000
00060000
00060000
00060000
00060000
00060000
00060000
7FFFFFE0
7FFFFFE0
ENDCHAR
STARTCHAR 0032
ENCODING 50
SWIDTH 511 0
DWIDTH 43 0
BBX 28 59 8 0
BITMAP
FFFFFF00
FFFFFFC0
000000E0
00000060
00000070
00000030
00000030
00000030
00000030
00000030
00000030
00000030
00000030
00000030
00000030
00000060
00000060
000000C0
00000180
00000300
00000600
00000C00
00003800
00007000
0000E000
0001C000
00030000
00060000
000C0000
00180000
00300000
00E00000
01C00000
03800000
06000000
0C000000
18000000
30000000
60000000
60000000
C0000000
C0000000
C0000000
C0000000
C0000000
C0000000
C0000000
C0000000
C0000000
C0000000
C0000000
C0000000
C0000000
C0000000
C0000000
C0000000
C0000000
FFFFFFF0
FFFFFFF0
ENDCHAR
STARTCHAR 0033
ENCODING 51
SWIDTH 511 0
DWIDTH 43 0
BBX 28 59 7 0
BITMAP
FFFFFF00
FFFFFFC0
000000E0
00000060
00000030
00000030
00000030
00000030
00000030
00000030
00000030
00000030
00000030
00000030
00000030
00000030
00000030
00000030
00000030
00000030
00000030
00000030
00000030
00000030
00000070
00000060
000001E0
0FFFFF80
0FFFFFC0
000001E0
00000060
00000070
00000030
00000030
00000030
00000030
00000030
00000030
00000030
00000030
00000030
00000030
00000030
00000030
00000030
00000030
00000030
00000030
00000030
00000030
00000030
00000030
00000030
00000030
00000030
00000060
000000E0
FFFFFFC0
FFFFFF00
ENDCHAR
STARTCHAR 0034
ENCODING 52
SWIDTH 511 0
DWIDTH 43 0
BBX 36 59 4 1
BITMAP
000001C000
000001C000
000003C000
000003C000
000006C000
00000CC000
00000CC000
000018C000
000018C000
000030C000
000060C000
000060C000
0000C0C000
0000C0C000
000180C000
000100C000
000300C000
000600C000
000600C000
000C00C000
000800C000
001800C000
003000C000
003000C000
006000C000
006000C000
00C000C000
018000C000
018000C000
030000C000
030000C000
060000C000
0C0000C000
0C0000C000
180000C000
180000C000
300000C000
600000C000
600000C000
FFFFFFFFF0
FFFFFFFFF0
000000C000
000000C000
000000C000
000000C000
000000C000
000000C000
000000C000
000000C000
000000C000
000000C000
000000C000
000000C000
000000C000
000000C000
000000C000
000000C000
000000C000
000000C000
ENDCHAR
STARTCHAR 0035
ENCODING 53
SWIDTH 511 0
DWIDTH 43 0
BBX 28 59 7 0
BITMAP
FFFFFFF0
FFFFFFF0
C0000000
C0000000
C0000000
C0000000
C0000000
C0000000
C0000000
C0000000
C0000000
C0000000
C0000000
C0000000
C0000000
C0000000
C0000000
C0000000
C0000000
C0000000
C0000000
C0000000
C0000000
C0000000
C0000000
C0000000
C0000000
FFFFFF00
FFFFFFC0
000000E0
00000060
00000030
00000030
00000030
00000030
00000030
00000030
00000030
00000030
00000030
00000030
00000030
00000030
00000030
00000030
00000030
00000030
00000030
00000030
00000030
00000030
00000030
00000030
00000030
00000030
00000060
000000E0
FFFFFFC0
FFFFFF00
ENDCHAR
STARTCHAR 0036
ENCODING 54
SWIDTH 511 0
DWIDTH 43 0
BBX 28 59 7 0
BITMAP
0FFFFFF0
1FFFFFF0
30000000
60000000
60000000
C0000000
C0000000
C0000000
C0000000
C0000000
C0000000
C0000000
C0000000
C0000000
C0000000
C0000000
C0000000
C0000000
C0000000
C0000000
C0000000
C0000000
C0000000
C0000000
C0000000
C0000000
C0000000
FFFFFF00
FFFFFFC0
C00000E0
C0000060
C0000030
C0000030
C0000030
C0000030
C0000030
C0000030
C0000030
C0000030
C0000030
C0000030
C0000030
C0000030
C0000030
C0000030
C0000030
C0000030
C0000030
C0000030
C0000030
C0000030
C0000030
C0000030
C0000030
E0000030
60000060
700000E0
3FFFFFC0
0FFFFF00
ENDCHAR
STARTCHAR 0037
ENCODING 55
SWIDTH 511 0
DWIDTH 43 0
BBX 30 59 6 0
BITMAP
FFFFFFFC
FFFFFFFC
0000000C
00000008
00000018
00000018
00000010
00000030
00000030
00000020
00000060
00000060
000000C0
000000C0
000000C0
00000180
00000180
00000180
00000300
00000300
00000200
00000600
00000600
00000400
00000C00
00000C00
00000800
00001800
00001800
00003000
00003000
00003000
00006000
00006000
00006000
0000C000
0000C000
0000C000
00018000
00018000
00018000
00030000
00030000
00020000
00060000
00060000
000C0000
000C0000
000C0000
00180000
00180000
00180000
00300000
00300000
00300000
00600000
00600000
00600000
00C00000
ENDCHAR
STARTCHAR 0038
ENCODING 56
SWIDTH 511 0
DWIDTH 43 0
BBX 28 59 7 0
BITMAP
0FFFFF00
1FFFFFC0
300000E0
60000060
60000030
C0000030
C0000030
C0000030
C0000030
C0000030
C0000030
C0000030
C0000030
C0000030
C0000030
C0000030
C0000030
C0000030
C0000030
C0000030
C0000030
C0000030
C0000030
C0000030
60000070
70000060
780001E0
3FFFFF80
1FFFFFC0
780001E0
60000060
60000070
C0000030
C0000030
C0000030
C0000030
C0000030
C0000030
C0000030
C0000030
C0000030
C0000030
C0000030
C0000030
C0000030
C0000030
C0000030
C0000030
C0000030
C0000030
C0000030
C0000030
C0000030
C0000030
60000030
60000060
300000E0
3FFFFFC0
0FFFFF00
ENDCHAR
STARTCHAR 0039
ENCODING 57
SWIDTH 511 0
DWIDTH 43 0
BBX 28 59 7 0
BITMAP
0FFFFF00
1FFFFFC0
300000E0
60000060
40000030
C0000030
C0000030
C0000030
C0000030
C0000030
C0000030
C0000030
C0000030
C0000030
C0000030
C0000030
C0000030
C0000030
C0000030
C0000030
C0000030
C0000030
C0000030
C0000030
60000030
60000030
38000030
1FFFFFF0
07FFFFF0
00000030
00000030
00000030
00000030
00000030
00000030
00000030
00000030
00000030
00000030
00000030
00000030
00000030
00000030
00000030
00000030
00000030
00000030
00000030
00000030
00000030
00000030
00000030
00000030
00000030
00000030
00000060
000000E0
FFFFFFC0
FFFFFF00
ENDCHAR
STARTCHAR 003A
ENCODING 58
SWIDTH 178 0
DWIDTH 15 0
BBX 3 42 6 0
BITMAP
E0
E0
E0
00
00
00
00
00
00
00
00
00
00
00
00
00
00
00
00
00
00
00
00
00
00
00
00
00
00
00
00
00
00
00
00
00
00
00
00
E0
E0
E0
ENDCHAR
STARTCHAR 003B
ENCODING 59
SWIDTH 178 0
DWIDTH 15 0
BBX 6 54 3 -12
BITMAP
1C
1C
1C
00
00
00
00
00
00
00
00
00
00
00
00
00
00
00
00
00
00
00
00
00
00
00
00
00
00
00
00
00
00
00
00
00
00
00
00
1C
1C
1C
1C
1C
1C
1C
38
38
30
70
60
E0
C0
C0
ENDCHAR
STARTCHAR 003C
ENCODING 60
SWIDTH 452 0
DWIDTH 38 0
BBX 29 35 4 10
BITMAP
00000008
00000038
000000E0
00000180
00000700
00001C00
00007000
0000E000
00038000
000E0000
003C0000
00700000
01C00000
07800000
0E000000
38000000
F0000000
E0000000
F0000000
3C000000
0F000000
03800000
01E00000
00780000
001C0000
00070000
0003C000
0000E000
00003800
00000E00
00000700
000001C0
00000070
00000018
00000008
ENDCHAR
STARTCHAR 003D
ENCODING 61
SWIDTH 452 0
DWIDTH 38 0
BBX 29 19 4 16
BITMAP
FFFFFFF8
FFFFFFF8
00000000
00000000
00000000
00000000
00000000
00000000
00000000
00000000
00000000
00000000
00000000
00000000
00000000
00000000
00000000
FFFFFFF8
FFFFFFF8
ENDCHAR
STARTCHAR 003E
ENCODING 62
SWIDTH 452 0
DWIDTH 38 0
BBX 29 35 4 10
BITMAP
80000000
E0000000
38000000
1C000000
07000000
01C00000
00F00000
00380000
000E0000
00078000
0001E000
00007000
00003C00
00000F00
00000380
000001E0
00000078
00000038
00000078
000001E0
00000780
00000E00
00003C00
0000F000
0001C000
00070000
001E0000
00380000
00E00000
03800000
07000000
1C000000
70000000
C0000000
80000000
ENDCHAR
STARTCHAR 003F
ENCODING 63
SWIDTH 392 0
DWIDTH 33 0
BBX 27 59 4 0
BITMAP
FFFFFE00
FFFFFF80
000001C0
000000C0
00000060
00000060
00000060
00000060
00000060
00000060
00000060
00000060
00000040
000000C0
00000180
00000380
00000600
00000C00
00001800
00003000
00006000
0000C000
00038000
00070000
000E0000
000C0000
00180000
00100000
00300000
00300000
00300000
00300000
00300000
00300000
00300000
00300000
00300000
00300000
00300000
00300000
00300000
00300000
00300000
00300000
00300000
00300000
00300000
00300000
00000000
00000000
00000000
00000000
00000000
00000000
00000000
00000000
00300000
00300000
00300000
ENDCHAR
STARTCHAR 0040
ENCODING 64
SWIDTH 678 0
DWIDTH 57 0
BBX 45 59 7 -9
BITMAP
0FFFFFF00000
3FFFFFFC0000
3000000E0000
600000060000
600000030000
C00000030000
C00000030000
C00000030000
C00000030000
C00000030000
C00000030000
C00000030000
C00000030000
C00000030000
C00000030000
C0003FFF0018
C000FFFF0018
C001C0030018
C00180030018
C00300030018
C00300030018
C00300030018
C00300030018
C00300030018
C00300030018
C00300030018
C00300030018
C00300030018
C00300030018
C00300030018
C00300030018
C00300030018
C00300030018
C00300030018
C00300030018
C00300030018
C00300030018
C00300030018
C00300030018
C00180030018
C001C0030018
C000FFFF0018
C0003FFF0018
C00000000018
C00000000018
C00000000018
C00000000018
C00000000018
C00000000018
C00000000018
C00000000018
C00000000018
C00000000018
C00000000018
600000000018
600000000030
380000000070
1FFFFFFFFFE0
07FFFFFFFF00
ENDCHAR
STARTCHAR 0041
ENCODING 65
SWIDTH 500 0
DWIDTH 42 0
BBX 39 59 2 1
BITMAP
0000380000
00003C0000
00006C0000
00006C0000
00006E0000
0000C60000
0000C60000
0000C70000
0000830000
0001830000
0001830000
0001818000
0003018000
0003018000
000301C000
000600C000
000600C000
000600E000
000C006000
000C006000
000C006000
000C003000
0018003000
0018003000
0018003800
0030001800
0030001800
0030001C00
0060000C00
0060000C00
0060000C00
00C0000600
00C0000600
00C0000600
00C0000700
0180000300
0180000300
0180000380
0300000180
03FFFFFF80
03FFFFFF80
06000000C0
06000000C0
06000000C0
0E000000E0
0C00000060
0C00000060
0C00000070
1800000030
1800000030
1800000030
3000000038
3000000018
3000000018
700000001C
600000000C
600000000C
E00000000E
C000000006
ENDCHAR
STARTCHAR 0042
ENCODING 66
SWIDTH 559 0
DWIDTH 47 0
BBX 31 59 7 0
BITMAP
FFFFFFE0
FFFFFFF8
C000001C
C000000C
C0000006
C0000006
C0000006
C0000006
C0000006
C0000006
C0000006
C0000006
C0000006
C0000006
C0000006
C0000006
C0000006
C0000006
C0000006
C0000006
C0000006
C0000006
C0000006
C0000006
C000000C
C000000C
C0000038
FFFFFFF0
C0000038
C000000C
C000000C
C0000006
C0000006
C0000006
C0000006
C0000006
C0000006
C0000006
C0000006
C0000006
C0000006
C0000006
C0000006
C0000006
C0000006
C0000006
C0000006
C0000006
C0000006
C0000006
C0000006
C0000006
C0000006
C0000006
C0000006
C000000C
C000001C
FFFFFFF8
FFFFFFE0
ENDCHAR
STARTCHAR 0043
ENCODING 67
SWIDTH 488 0
DWIDTH 41 0
BBX 30 59 7 0
BITMAP
0FFFFFFC
3FFFFFFC
30000000
60000000
60000000
C0000000
C0000000
C0000000
C0000000
C0000000
C0000000
C0000000
C0000000
C0000000
C0000000
C0000000
C0000000
C0000000
C0000000
C0000000
C0000000
C0000000
C0000000
C0000000
C0000000
C0000000
C0000000
C0000000
C0000000
C0000000
C0000000
C0000000
C0000000
C0000000
C0000000
C0000000
C0000000
C0000000
C0000000
C0000000
C0000000
C0000000
C0000000
C0000000
C0000000
C0000000
C0000000
C0000000
C0000000
C0000000
C0000000
C0000000
C0000000
C0000000
E0000000
60000000
70000000
3FFFFFFC
0FFFFFFC
ENDCHAR
STARTCHAR 0044
ENCODING 68
SWIDTH 547 0
DWIDTH 46 0
BBX 32 59 7 0
BITMAP
FFFFFFF0
FFFFFFFC
C000000E
C0000006
C0000007
C0000003
C0000003
C0000003
C0000003
C0000003
C0000003
C0000003
C0000003
C0000003
C0000003
C0000003
C0000003
C0000003
C0000003
C0000003
C0000003
C0000003
C0000003
C0000003
C0000003
C0000003
C0000003
C0000003
C0000003
C0000003
C0000003
C0000003
C0000003
C0000003
C0000003
C0000003
C0000003
C0000003
C0000003
C0000003
C0000003
C0000003
C0000003
C0000003
C0000003
C0000003
C0000003
C0000003
C0000003
C0000003
C0000003
C0000003
C0000003
C0000003
C0000003
C0000006
C000000E
FFFFFFFC
FFFFFFF0
ENDCHAR
STARTCHAR 0045
ENCODING 69
SWIDTH 476 0
DWIDTH 40 0
BBX 30 59 7 0
BITMAP
FFFFFFF0
FFFFFFF0
C0000000
C0000000
C0000000
C0000000
C0000000
C0000000
C0000000
C0000000
C0000000
C0000000
C0000000
C0000000
C0000000
C0000000
C0000000
C0000000
C0000000
C0000000
C0000000
C0000000
C0000000
C0000000
C0000000
C0000000
C0000000
FFFFFF00
FFFFFF00
C0000000
C0000000
C0000000
C0000000
C0000000
C0000000
C0000000
C0000000
C0000000
C0000000
C0000000
C0000000
C0000000
C0000000
C0000000
C0000000
C0000000
C0000000
C0000000
C0000000
C0000000
C0000000
C0000000
C0000000
C0000000
C0000000
C0000000
C0000000
FFFFFFFC
FFFFFFFC
ENDCHAR
STARTCHAR 0046
ENCODING 70
SWIDTH 440 0
DWIDTH 37 0
BBX 28 59 7 0
BITMAP
FFFFFFF0
FFFFFFF0
C0000000
C0000000
C0000000
C0000000
C0000000
C0000000
C0000000
C0000000
C0000000
C0000000
C0000000
C0000000
C0000000
C0000000
C0000000
C0000000
C0000000
C0000000
C0000000
C0000000
C0000000
C0000000
C0000000
C0000000
C0000000
FFFFFF00
FFFFFF00
C0000000
C0000000
C0000000
C0000000
C0000000
C0000000
C0000000
C0000000
C0000000
C0000000
C0000000
C0000000
C0000000
C0000000
C0000000
C0000000
C0000000
C0000000
C0000000
C0000000
C0000000
C0000000
C0000000
C0000000
C0000000
C0000000
C0000000
C0000000
C0000000
C0000000
ENDCHAR
STARTCHAR 0047
ENCODING 71
SWIDTH 547 0
DWIDTH 46 0
BBX 32 59 7 0
BITMAP
0FFFFFFF
1FFFFFFF
30000000
60000000
60000000
C0000000
C0000000
C0000000
C0000000
C0000000
C0000000
C0000000
C0000000
C0000000
C0000000
C0000000
C0000000
C0000000
C0000000
C0000000
C0000000
C0000000
C0000000
C0000000
C0000000
C0000000
C0000000
C001FFFF
C001FFFF
C0000003
C0000003
C0000003
C0000003
C0000003
C0000003
C0000003
C0000003
C0000003
C0000003
C0000003
C0000003
C0000003
C0000003
C0000003
C0000003
C0000003
C0000003
C0000003
C0000003
C0000003
C0000003
C0000003
C0000003
C0000003
E0000003
60000006
7000000E
3FFFFFFC
0FFFFFF0
ENDCHAR
STARTCHAR 0048
ENCODING 72
SWIDTH 547 0
DWIDTH 46 0
BBX 32 59 7 0
BITMAP
C0000003
C0000003
C0000003
C0000003
C0000003
C0000003
C0000003
C0000003
C0000003
C0000003
C0000003
C0000003
C0000003
C0000003
C0000003
C0000003
C0000003
C0000003
C0000003
C0000003
C0000003
C0000003
C0000003
C0000003
C0000003
C0000003
C0000003
FFFFFFFF
FFFFFFFF
C0000003
C0000003
C0000003
C0000003
C0000003
C0000003
C0000003
C0000003
C0000003
C0000003
C0000003
C0000003
C0000003
C0000003
C0000003
C0000003
C0000003
C0000003
C0000003
C0000003
C0000003
C0000003
C0000003
C0000003
C0000003
C0000003
C0000003
C0000003
C0000003
C0000003
ENDCHAR
STARTCHAR 0049
ENCODING 73
SWIDTH 202 0
DWIDTH 17 0
BBX 2 59 7 0
BITMAP
C0
C0
C0
C0
C0
C0
C0
C0
C0
C0
C0
C0
C0
C0
C0
C0
C0
C0
C0
C0
C0
C0
C0
C0
C0
C0
C0
C0
C0
C0
C0
C0
C0
C0
C0
C0
C0
C0
C0
C0
C0
C0
C0
C0
C0
C0
C0
C0
C0
C0
C0
C0
C0
C0
C0
C0
C0
C0
C0
ENDCHAR
STARTCHAR 004A
ENCODING 74
SWIDTH 321 0
DWIDTH 27 0
BBX 18 59 2 0
BITMAP
0000C0
0000C0
0000C0
0000C0
0000C0
0000C0
0000C0
0000C0
0000C0
0000C0
0000C0
0000C0
0000C0
0000C0
0000C0
0000C0
0000C0
0000C0
0000C0
0000C0
0000C0
0000C0
0000C0
0000C0
0000C0
0000C0
0000C0
0000C0
0000C0
0000C0
0000C0
0000C0
0000C0
0000C0
0000C0
0000C0
0000C0
0000C0
0000C0
0000C0
0000C0
0000C0
0000C0
0000C0
0000C0
0000C0
0000C0
0000C0
0000C0
0000C0
0000C0
0000C0
0000C0
0000C0
0000C0
000180
000380
FFFF00
FFFC00
ENDCHAR
STARTCHAR 004B
ENCODING 75
SWIDTH 511 0
DWIDTH 43 0
BBX 31 59 7 0
BITMAP
C000000C
C000001C
C0000018
C0000030
C0000030
C0000060
C0000060
C00000C0
C00000C0
C0000180
C0000180
C0000300
C0000300
C0000600
C0000600
C0000C00
C0000C00
C0001800
C0001800
C0003000
C0003000
C0006000
C0006000
C000C000
C001C000
C0018000
C0070000
FFFE0000
FFFE0000
C0038000
C0018000
C000C000
C000E000
C0006000
C0007000
C0003000
C0003800
C0001800
C0001C00
C0000C00
C0000E00
C0000600
C0000600
C0000300
C0000300
C0000180
C0000180
C00000C0
C00000C0
C00000E0
C0000060
C0000070
C0000030
C0000038
C0000018
C000001C
C000000C
C000000E
C0000006
ENDCHAR
STARTCHAR 004C
ENCODING 76
SWIDTH 464 0
DWIDTH 39 0
BBX 30 59 7 0
BITMAP
C0000000
C0000000
C0000000
C0000000
C0000000
C0000000
C0000000
C0000000
C0000000
C0000000
C0000000
C0000000
C0000000
C0000000
C0000000
C0000000
C0000000
C0000000
C0000000
C0000000
C0000000
C0000000
C0000000
C0000000
C0000000
C0000000
C0000000
C0000000
C0000000
C0000000
C0000000
C0000000
C0000000
C0000000
C0000000
C0000000
C0000000
C0000000
C0000000
C0000000
C0000000
C0000000
C0000000
C0000000
C0000000
C0000000
C0000000
C0000000
C0000000
C0000000
C0000000
C0000000
C0000000
C0000000
C0000000
C0000000
C0000000
FFFFFFFC
FFFFFFFC
ENDCHAR
STARTCHAR 004D
ENCODING 77
SWIDTH 619 0
DWIDTH 52 0
BBX 38 59 7 0
BITMAP
E00000001C
F00000001C
F00000003C
F00000003C
D80000006C
D80000006C
CC000000CC
CC000000CC
CE000000CC
C60000018C
C60000018C
C30000030C
C30000030C
C38000030C
C18000060C
C18000060C
C0C0000C0C
C0C0000C0C
C0E000080C
C06000180C
C06000180C
C03000300C
C03000300C
C03800600C
C01800600C
C01800600C
C00C00C00C
C00C00C00C
C00E01800C
C00601800C
C00601000C
C00303000C
C00303000C
C00386000C
C00186000C
C00184000C
C000CC000C
C000CC000C
C000F8000C
C00078000C
C00070000C
C00030000C
C00000000C
C00000000C
C00000000C
C00000000C
C00000000C
C00000000C
C00000000C
C00000000C
C00000000C
C00000000C
C00000000C
C00000000C
C00000000C
C00000000C
C00000000C
C00000000C
C00000000C
ENDCHAR
STARTCHAR 004E
ENCODING 78
SWIDTH 559 0
DWIDTH 47 0
BBX 32 58 8 1
BITMAP
F0000003
F0000003
F0000003
D8000003
D8000003
CC000003
CC000003
C6000003
C6000003
C3000003
C3000003
C1800003
C1800003
C1C00003
C0C00003
C0E00003
C0600003
C0700003
C0300003
C0380003
C0180003
C01C0003
C00C0003
C00C0003
C0060003
C0060003
C0030003
C0030003
C0018003
C0018003
C000C003
C000C003
C0006003
C0006003
C0003003
C0003003
C0003803
C0001803
C0001C03
C0000C03
C0000E03
C0000603
C0000603
C0000303
C0000303
C0000183
C0000183
C00000C3
C00000C3
C0000063
C0000063
C0000033
C0000033
C000001B
C000001B
C000000F
C000000F
C0000007
ENDCHAR
STARTCHAR 004F
ENCODING 79
SWIDTH 547 0
DWIDTH 46 0
BBX 32 59 7 0
BITMAP
0FFFFFF0
1FFFFFFC
3000000E
60000006
60000007
C0000003
C0000003
C0000003
C0000003
C0000003
C0000003
C0000003
C0000003
C0000003
C0000003
C0000003
C0000003
C0000003
C0000003
C0000003
C0000003
C0000003
C0000003
C0000003
C0000003
C0000003
C0000003
C0000003
C0000003
C0000003
C0000003
C0000003
C0000003
C0000003
C0000003
C0000003
C0000003
C0000003
C0000003
C0000003
C0000003
C0000003
C0000003
C0000003
C0000003
C0000003
C0000003
C0000003
C0000003
C0000003
C0000003
C0000003
C0000003
C0000003
E0000003
60000006
7000000E
3FFFFFFC
0FFFFFF0
ENDCHAR
STARTCHAR 0050
ENCODING 80
SWIDTH 523 0
DWIDTH 44 0
BBX 32 59 7 0
BITMAP
FFFFFFF0
FFFFFFFC
C000000E
C0000006
C0000007
C0000003
C0000003
C0000003
C0000003
C0000003
C0000003
C0000003
C0000003
C0000003
C0000003
C0000003
C0000003
C0000003
C0000003
C0000003
C0000003
C0000003
C0000003
C0000003
C0000006
C0000006
C000001C
FFFFFFF8
FFFFFFE0
C0000000
C0000000
C0000000
C0000000
C0000000
C0000000
C0000000
C0000000
C0000000
C0000000
C0000000
C0000000
C0000000
C0000000
C0000000
C0000000
C0000000
C0000000
C0000000
C0000000
C0000000
C0000000
C0000000
C0000000
C0000000
C0000000
C0000000
C0000000
C0000000
C0000000
ENDCHAR
STARTCHAR 0051
ENCODING 81
SWIDTH 547 0
DWIDTH 46 0
BBX 32 76 7 -17
BITMAP
0FFFFFF0
1FFFFFFC
3000000E
60000006
60000007
C0000003
C0000003
C0000003
C0000003
C0000003
C0000003
C0000003
C0000003
C0000003
C0000003
C0000003
C0000003
C0000003
C0000003
C0000003
C0000003
C0000003
C0000003
C0000003
C0000003
C0000003
C0000003
C0000003
C0000003
C0000003
C0000003
C0000003
C0000003
C0000003
C0000003
C0000003
C0000003
C0000003
C0000003
C0000003
C0000003
C0000003
C0000003
C0000003
C0000003
C0000003
C0038003
C0018003
C0018003
C001C003
C000C003
C000C003
C0006003
C0006003
E0007003
60003006
7000300E
3FFFFFFC
0FFFFFF0
00001800
00000C00
00000C00
00000E00
00000600
00000600
00000700
00000300
00000300
00000180
00000180
000001C0
000000C0
000000C0
000000E0
00000060
00000060
ENDCHAR
STARTCHAR 0052
ENCODING 82
SWIDTH 571 0
DWIDTH 48 0
BBX 35 59 7 0
BITMAP
FFFFFFF000
FFFFFFFC00
C000000E00
C000000600
C000000700
C000000300
C000000300
C000000300
C000000300
C000000300
C000000300
C000000300
C000000300
C000000300
C000000300
C000000300
C000000300
C000000300
C000000300
C000000300
C000000300
C000000300
C000000300
C000000300
C000000600
C000000600
C000001C00
FFFFFFF800
FFFFFFE000
C000030000
C000038000
C000018000
C000018000
C00000C000
C00000C000
C00000C000
C000006000
C000006000
C000006000
C000003000
C000003000
C000003800
C000001800
C000001800
C000000C00
C000000C00
C000000C00
C000000600
C000000600
C000000600
C000000300
C000000300
C000000380
C000000180
C000000180
C0000001C0
C0000000C0
C0000000C0
C000000060
ENDCHAR
STARTCHAR 0053
ENCODING 83
SWIDTH 511 0
DWIDTH 43 0
BBX 30 59 6 0
BITMAP
0FFFFFFC
1FFFFFFC
30000000
60000000
60000000
C0000000
C0000000
C0000000
C0000000
C0000000
C0000000
C0000000
C0000000
C0000000
C0000000
C0000000
60000000
60000000
30000000
1C000000
0E000000
07000000
03800000
00E00000
00700000
00380000
001C0000
00060000
00038000
0001C000
0000E000
00007000
00001C00
00000E00
00000700
00000380
000000C0
00000070
00000030
00000018
00000018
0000000C
0000000C
0000000C
0000000C
0000000C
0000000C
0000000C
0000000C
0000000C
0000000C
0000000C
0000000C
0000000C
0000000C
00000018
00000038
FFFFFFF0
FFFFFFC0
ENDCHAR
STARTCHAR 0054
ENCODING 84
SWIDTH 464 0
DWIDTH 39 0
BBX 34 59 2 0
BITMAP
FFFFFFFFC0
FFFFFFFFC0
0000C00000
0000C00000
0000C00000
0000C00000
0000C00000
0000C00000
0000C00000
0000C00000
0000C00000
0000C00000
0000C00000
0000C00000
0000C00000
0000C00000
0000C00000
0000C00000
0000C00000
0000C00000
0000C00000
0000C00000
0000C00000
0000C00000
0000C00000
0000C00000
0000C00000
0000C00000
0000C00000
0000C00000
0000C00000
0000C00000
0000C00000
0000C00000
0000C00000
0000C00000
0000C00000
0000C00000
0000C00000
0000C00000
0000C00000
0000C00000
0000C00000
0000C00000
0000C00000
0000C00000
0000C00000
0000C00000
0000C00000
0000C00000
0000C00000
0000C00000
0000C00000
0000C00000
0000C00000
0000C00000
0000C00000
0000C00000
0000C00000
ENDCHAR
STARTCHAR 0055
ENCODING 85
SWIDTH 547 0
DWIDTH 46 0
BBX 32 59 7 0
BITMAP
C0000003
C0000003
C0000003
C0000003
C0000003
C0000003
C0000003
C0000003
C0000003
C0000003
C0000003
C0000003
C0000003
C0000003
C0000003
C0000003
C0000003
C0000003
C0000003
C0000003
C0000003
C0000003
C0000003
C0000003
C0000003
C0000003
C0000003
C0000003
C0000003
C0000003
C0000003
C0000003
C0000003
C0000003
C0000003
C0000003
C0000003
C0000003
C0000003
C0000003
C0000003
C0000003
C0000003
C0000003
C0000003
C0000003
C0000003
C0000003
C0000003
C0000003
C0000003
C0000003
C0000003
C0000003
E0000003
60000006
7000000E
3FFFFFFC
0FFFFFF0
ENDCHAR
STARTCHAR 0056
ENCODING 86
SWIDTH 500 0
DWIDTH 42 0
BBX 39 59 2 0
BITMAP
C000000006
E00000000E
600000000C
600000000C
700000001C
3000000018
3000000018
3000000018
3800000030
1800000030
1800000030
1C00000070
0C00000060
0C00000060
0E000000E0
06000000C0
06000000C0
06000001C0
0300000180
0300000180
0300000180
0380000300
0180000300
0180000300
01C0000600
00C0000600
00C0000600
00C0000E00
0060000C00
0060000C00
0060000C00
0070001800
0030001800
0030001800
0038003000
0018003000
0018003000
0018006000
000C006000
000C006000
000C006000
000E00C000
000600C000
000600C000
0007018000
0003018000
0003018000
0003030000
0001830000
0001830000
0001820000
0001C60000
0000C60000
0000C60000
0000EC0000
00006C0000
00006C0000
0000780000
0000380000
ENDCHAR
STARTCHAR 0057
ENCODING 87
SWIDTH 773 0
DWIDTH 65 0
BBX 59 59 3 1
BITMAP
C000000600000060
C000000E00000060
6000000E00000040
6000000A000000C0
6000000B000000C0
6000001B000000C0
3000001B00000080
3000001B00000180
3000001100000180
3000001180000180
1800003180000100
1800003180000300
1800002180000300
1800002080000300
0C000060C0000600
0C000060C0000600
0C000060C0000600
0C00004040000600
0600004060000C00
060000C060000C00
060000C060000C00
060000C060000C00
0300008020001800
0300008030001800
0300018030001800
0300018030001000
0180010030003000
0180010010003000
0180030018003000
0180030018002000
00C0030018006000
00C0020018006000
00C002000C006000
00C006000C004000
006006000C00C000
006004000C00C000
006004000400C000
00600C0006008000
00300C0006018000
00300C0006018000
0030080006018000
0030080002010000
0010180003030000
0018180003030000
0018180003030000
0018100003020000
0008300001060000
000C300001860000
000C300001860000
000C200001840000
00042000018C0000
0006600000CC0000
0006600000CC0000
0006600000C80000
0002400000D80000
0003400000580000
0003C00000780000
0003C00000700000
0001800000700000
ENDCHAR
STARTCHAR 0058
ENCODING 88
SWIDTH 547 0
DWIDTH 46 0
BBX 43 59 2 0
BITMAP
0C0000000600
0E0000000C00
070000001C00
030000001800
038000003000
018000007000
00C000006000
00E00000E000
00600000C000
007000018000
003800038000
001800030000
001C00060000
000C00060000
0006000C0000
0007001C0000
000300180000
000380300000
000180300000
0000C0600000
0000E0C00000
000060C00000
000031800000
000033800000
00001B000000
00001E000000
00000E000000
00000E000000
00001B000000
00003B800000
000031800000
000060C00000
000060C00000
0000C0600000
0001C0700000
000180300000
000300180000
0007001C0000
0006000C0000
000E000E0000
000C00060000
001800030000
003800038000
003000018000
00600000C000
00E00000E000
00C000006000
01C000007000
018000003000
030000001800
070000001C00
060000000C00
0C0000000E00
1C0000000700
180000000300
380000000380
300000000180
6000000000C0
E000000000E0
ENDCHAR
STARTCHAR 0059
ENCODING 89
SWIDTH 523 0
DWIDTH 44 0
BBX 42 59 1 0
BITMAP
C000000000C0
600000000180
700000000380
300000000300
380000000700
1C0000000600
0C0000000C00
0E0000001C00
060000001800
030000003000
038000003000
018000006000
01C00000E000
00C00000C000
006000018000
007000018000
003000030000
001800070000
001800060000
000C000C0000
000E001C0000
000600180000
000300300000
000380300000
000180600000
0001C0E00000
0000C0C00000
000061800000
000071800000
000033000000
00001F000000
00001E000000
00000C000000
00000C000000
00000C000000
00000C000000
00000C000000
00000C000000
00000C000000
00000C000000
00000C000000
00000C000000
00000C000000
00000C000000
00000C000000
00000C000000
00000C000000
00000C000000
00000C000000
00000C000000
00000C000000
00000C000000
00000C000000
00000C000000
00000C000000
00000C000000
00000C000000
00000C000000
00000C000000
ENDCHAR
STARTCHAR 005A
ENCODING 90
SWIDTH 511 0
DWIDTH 43 0
BBX 34 59 4 0
BITMAP
FFFFFFFFC0
FFFFFFFFC0
00000000C0
0000000180
0000000100
0000000300
0000000200
0000000600
0000000400
0000000C00
0000001800
0000001000
0000003000
0000002000
0000006000
000000C000
000000C000
0000018000
0000010000
0000030000
0000060000
0000060000
00000C0000
00000C0000
0000180000
0000100000
0000300000
0000600000
0000600000
0000C00000
0000C00000
0001800000
0003000000
0003000000
0006000000
0006000000
000C000000
0008000000
0018000000
0030000000
0030000000
0060000000
0060000000
00C0000000
0180000000
0180000000
0300000000
0300000000
0600000000
0600000000
0C00000000
1800000000
1800000000
3000000000
3000000000
6000000000
E000000000
FFFFFFFFC0
FFFFFFFFC0
ENDCHAR
STARTCHAR 005B
ENCODING 91
SWIDTH 333 0
DWIDTH 28 0
BBX 16 76 7 -17
BITMAP
FFFF
FFFF
C000
C000
C000
C000
C000
C000
C000
C000
C000
C000
C000
C000
C000
C000
C000
C000
C000
C000
C000
C000
C000
C000
C000
C000
C000
C000
C000
C000
C000
C000
C000
C000
C000
C000
C000
C000
C000
C000
C000
C000
C000
C000
C000
C000
C000
C000
C000
C000
C000
C000
C000
C000
C000
C000
C000
C000
C000
C000
C000
C000
C000
C000
C000
C000
C000
C000
C000
C000
C000
C000
C000
C000
FFFF
FFFF
ENDCHAR
STARTCHAR 005C
ENCODING 92
SWIDTH 404 0
DWIDTH 34 0
BBX 33 59 0 0
BITMAP
E000000000
6000000000
7000000000
3000000000
3800000000
1800000000
1C00000000
0C00000000
0E00000000
0600000000
0700000000
0380000000
0380000000
01C0000000
00C0000000
00E0000000
0060000000
0070000000
0030000000
0038000000
0018000000
001C000000
000C000000
000E000000
0006000000
0007000000
0003000000
0003800000
0001800000
0001C00000
0000E00000
0000600000
0000700000
0000300000
0000380000
0000180000
00001C0000
00000C0000
00000E0000
0000060000
0000070000
0000030000
0000038000
0000018000
000001C000
000000C000
000000E000
0000007000
0000003000
0000003800
0000001800
0000001C00
0000000C00
0000000E00
0000000600
0000000700
0000000300
0000000380
0000000180
ENDCHAR
STARTCHAR 005D
ENCODING 93
SWIDTH 285 0
DWIDTH 24 0
BBX 16 76 4 -17
BITMAP
FFFF
FFFF
0003
0003
0003
0003
0003
0003
0003
0003
0003
0003
0003
0003
0003
0003
0003
0003
0003
0003
0003
0003
0003
0003
0003
0003
0003
0003
0003
0003
0003
0003
0003
0003
0003
0003
0003
0003
0003
0003
0003
0003
0003
0003
0003
0003
0003
0003
0003
0003
0003
0003
0003
0003
0003
0003
0003
0003
0003
0003
0003
0003
0003
0003
0003
0003
0003
0003
0003
0003
0003
0003
0003
0003
FFFF
FFFF
ENDCHAR
STARTCHAR 005E
ENCODING 94
SWIDTH 333 0
DWIDTH 28 0
BBX 27 22 1 37
BITMAP
00040000
000E0000
001E0000
001B0000
00318000
00318000
0060C000
00C0E000
00C06000
01803000
01803000
03001800
06000C00
06000C00
0C000600
0C000600
18000300
30000180
30000180
600000C0
40000040
C0000060
ENDCHAR
STARTCHAR 005F
ENCODING 95
SWIDTH 714 0
DWIDTH 60 0
BBX 52 2 4 -10
BITMAP
FFFFFFFFFFFFF0
FFFFFFFFFFFFF0
ENDCHAR
STARTCHAR 0060
ENCODING 96
SWIDTH 285 0
DWIDTH 24 0
BBX 10 11 7 48
BITMAP
E000
7000
3000
1800
0C00
0E00
0600
0300
0180
00C0
0040
ENDCHAR
STARTCHAR 0061
ENCODING 97
SWIDTH 464 0
DWIDTH 39 0
BBX 26 42 6 0
BITMAP
FFFFFC00
FFFFFF00
00000380
00000180
000000C0
000000C0
000000C0
000000C0
000000C0
000000C0
000000C0
000000C0
000000C0
000000C0
000000C0
000000C0
0FFFFFC0
3FFFFFC0
300000C0
600000C0
600000C0
C00000C0
C00000C0
C00000C0
C00000C0
C00000C0
C00000C0
C00000C0
C00000C0
C00000C0
C00000C0
C00000C0
C00000C0
C00000C0
C00000C0
C00000C0
C00000C0
C00000C0
600000C0
700000C0
3FFFFFC0
0FFFFFC0
ENDCHAR
STARTCHAR 0062
ENCODING 98
SWIDTH 476 0
DWIDTH 40 0
BBX 26 59 7 0
BITMAP
C0000000
C0000000
C0000000
C0000000
C0000000
C0000000
C0000000
C0000000
C0000000
C0000000
C0000000
C0000000
C0000000
C0000000
C0000000
C0000000
C0000000
FFFFFC00
FFFFFF00
C0000380
C0000180
C00000C0
C00000C0
C00000C0
C00000C0
C00000C0
C00000C0
C00000C0
C00000C0
C00000C0
C00000C0
C00000C0
C00000C0
C00000C0
C00000C0
C00000C0
C00000C0
C00000C0
C00000C0
C00000C0
C00000C0
C00000C0
C00000C0
C00000C0
C00000C0
C00000C0
C00000C0
C00000C0
C00000C0
C00000C0
C00000C0
C00000C0
C00000C0
C00000C0
C00000C0
C0000180
C0000380
FFFFFF00
FFFFFC00
ENDCHAR
STARTCHAR 0063
ENCODING 99
SWIDTH 404 0
DWIDTH 34 0
BBX 23 42 7 0
BITMAP
0FFFFE
3FFFFE
700000
600000
C00000
C00000
C00000
C00000
C00000
C00000
C00000
C00000
C00000
C00000
C00000
C00000
C00000
C00000
C00000
C00000
C00000
C00000
C00000
C00000
C00000
C00000
C00000
C00000
C00000
C00000
C00000
C00000
C00000
C00000
C00000
C00000
C00000
C00000
600000
700000
3FFFFE
0FFFFE
ENDCHAR
STARTCHAR 0064
ENCODING 100
SWIDTH 476 0
DWIDTH 40 0
BBX 26 59 7 0
BITMAP
000000C0
000000C0
000000C0
000000C0
000000C0
000000C0
000000C0
000000C0
000000C0
000000C0
000000C0
000000C0
000000C0
000000C0
000000C0
000000C0
000000C0
0FFFFFC0
3FFFFFC0
700000C0
600000C0
C00000C0
C00000C0
C00000C0
C00000C0
C00000C0
C00000C0
C00000C0
C00000C0
C00000C0
C00000C0
C00000C0
C00000C0
C00000C0
C00000C0
C00000C0
C00000C0
C00000C0
C00000C0
C00000C0
C00000C0
C00000C0
C00000C0
C00000C0
C00000C0
C00000C0
C00000C0
C00000C0
C00000C0
C00000C0
C00000C0
C00000C0
C00000C0
C00000C0
C00000C0
600000C0
700000C0
3FFFFFC0
0FFFFFC0
ENDCHAR
STARTCHAR 0065
ENCODING 101
SWIDTH 452 0
DWIDTH 38 0
BBX 25 42 7 0
BITMAP
0FFFF800
3FFFFE00
70000700
60000300
C0000180
C0000180
C0000180
C0000180
C0000180
C0000180
C0000180
C0000180
C0000180
C0000180
C0000180
C0000180
FFFFFF80
FFFFFF80
C0000000
C0000000
C0000000
C0000000
C0000000
C0000000
C0000000
C0000000
C0000000
C0000000
C0000000
C0000000
C0000000
C0000000
C0000000
C0000000
C0000000
C0000000
C0000000
C0000000
60000000
70000000
3FFFFF80
0FFFFF80
ENDCHAR
STARTCHAR 0066
ENCODING 102
SWIDTH 250 0
DWIDTH 21 0
BBX 14 59 7 0
BITMAP
0FFC
3FFC
7000
6000
C000
C000
C000
C000
C000
C000
C000
C000
C000
C000
C000
C000
C000
FFFC
FFFC
C000
C000
C000
C000
C000
C000
C000
C000
C000
C000
C000
C000
C000
C000
C000
C000
C000
C000
C000
C000
C000
C000
C000
C000
C000
C000
C000
C000
C000
C000
C000
C000
C000
C000
C000
C000
C000
C000
C000
C000
ENDCHAR
STARTCHAR 0067
ENCODING 103
SWIDTH 476 0
DWIDTH 40 0
BBX 26 59 7 -17
BITMAP
0FFFFFC0
3FFFFFC0
700000C0
600000C0
C00000C0
C00000C0
C00000C0
C00000C0
C00000C0
C00000C0
C00000C0
C00000C0
C00000C0
C00000C0
C00000C0
C00000C0
C00000C0
C00000C0
C00000C0
C00000C0
C00000C0
C00000C0
C00000C0
C00000C0
C00000C0
C00000C0
C00000C0
C00000C0
C00000C0
C00000C0
C00000C0
C00000C0
C00000C0
C00000C0
C00000C0
C00000C0
C00000C0
C00000C0
600000C0
700000C0
3FFFFFC0
1FFFFFC0
000000C0
000000C0
000000C0
000000C0
000000C0
000000C0
000000C0
000000C0
000000C0
000000C0
000000C0
000000C0
000000C0
00000180
00000300
FFFFFE00
FFFFF800
ENDCHAR
STARTCHAR 0068
ENCODING 104
SWIDTH 476 0
DWIDTH 40 0
BBX 26 59 7 0
BITMAP
C0000000
C0000000
C0000000
C0000000
C0000000
C0000000
C0000000
C0000000
C0000000
C0000000
C0000000
C0000000
C0000000
C0000000
C0000000
C0000000
C0000000
FFFFFC00
FFFFFF00
C0000380
C0000180
C00000C0
C00000C0
C00000C0
C00000C0
C00000C0
C00000C0
C00000C0
C00000C0
C00000C0
C00000C0
C00000C0
C00000C0
C00000C0
C00000C0
C00000C0
C00000C0
C00000C0
C00000C0
C00000C0
C00000C0
C00000C0
C00000C0
C00000C0
C00000C0
C00000C0
C00000C0
C00000C0
C00000C0
C00000C0
C00000C0
C00000C0
C00000C0
C00000C0
C00000C0
C00000C0
C00000C0
C00000C0
C00000C0
ENDCHAR
STARTCHAR 0069
ENCODING 105
SWIDTH 190 0
DWIDTH 16 0
BBX 2 52 7 0
BITMAP
C0
C0
C0
00
00
00
00
00
00
00
C0
C0
C0
C0
C0
C0
C0
C0
C0
C0
C0
C0
C0
C0
C0
C0
C0
C0
C0
C0
C0
C0
C0
C0
C0
C0
C0
C0
C0
C0
C0
C0
C0
C0
C0
C0
C0
C0
C0
C0
C0
C0
ENDCHAR
STARTCHAR 006A
ENCODING 106
SWIDTH 190 0
DWIDTH 16 0
BBX 5 69 4 -18
BITMAP
18
18
18
00
00
00
00
00
00
00
18
18
18
18
18
18
18
18
18
18
18
18
18
18
18
18
18
18
18
18
18
18
18
18
18
18
18
18
18
18
18
18
18
18
18
18
18
18
18
18
18
18
18
18
18
18
18
18
18
10
30
30
30
30
30
60
60
60
C0
ENDCHAR
STARTCHAR 006B
ENCODING 107
SWIDTH 428 0
DWIDTH 36 0
BBX 25 59 7 0
BITMAP
C0000000
C0000000
C0000000
C0000000
C0000000
C0000000
C0000000
C0000000
C0000000
C0000000
C0000000
C0000000
C0000000
C0000000
C0000000
C0000000
C0000000
C0000300
C0000300
C0000600
C0000600
C0000C00
C0000C00
C0001800
C0001800
C0003000
C0007000
C0006000
C000E000
C000C000
C001C000
C0018000
C0038000
C0030000
C00E0000
FFFC0000
FFFC0000
C0060000
C0030000
C0038000
C0018000
C0018000
C000C000
C000C000
C0006000
C0006000
C0003000
C0003000
C0001800
C0001800
C0001C00
C0000C00
C0000E00
C0000600
C0000600
C0000300
C0000300
C0000180
C0000180
ENDCHAR
STARTCHAR 006C
ENCODING 108
SWIDTH 190 0
DWIDTH 16 0
BBX 2 59 7 0
BITMAP
C0
C0
C0
C0
C0
C0
C0
C0
C0
C0
C0
C0
C0
C0
C0
C0
C0
C0
C0
C0
C0
C0
C0
C0
C0
C0
C0
C0
C0
C0
C0
C0
C0
C0
C0
C0
C0
C0
C0
C0
C0
C0
C0
C0
C0
C0
C0
C0
C0
C0
C0
C0
C0
C0
C0
C0
C0
C0
C0
ENDCHAR
STARTCHAR 006D
ENCODING 109
SWIDTH 678 0
DWIDTH 57 0
BBX 43 42 7 0
BITMAP
FFFFC07FFE00
FFFFF1FFFF80
C0003B0001C0
C0001E0000C0
C0000C000060
C0000C000060
C0000C000060
C0000C000060
C0000C000060
C0000C000060
C0000C000060
C0000C000060
C0000C000060
C0000C000060
C0000C000060
C0000C000060
C0000C000060
C0000C000060
C0000C000060
C0000C000060
C0000C000060
C0000C000060
C0000C000060
C0000C000060
C0000C000060
C0000C000060
C0000C000060
C0000C000060
C0000C000060
C0000C000060
C0000C000060
C0000C000060
C0000C000060
C0000C000060
C0000C000060
C0000C000060
C0000C000060
C0000C000060
C0000C000060
C0000C000060
C0000C000060
C0000C000060
ENDCHAR
STARTCHAR 006E
ENCODING 110
SWIDTH 476 0
DWIDTH 40 0
BBX 26 42 7 0
BITMAP
FFFFFC00
FFFFFF00
C0000380
C0000180
C00000C0
C00000C0
C00000C0
C00000C0
C00000C0
C00000C0
C00000C0
C00000C0
C00000C0
C00000C0
C00000C0
C00000C0
C00000C0
C00000C0
C00000C0
C00000C0
C00000C0
C00000C0
C00000C0
C00000C0
C00000C0
C00000C0
C00000C0
C00000C0
C00000C0
C00000C0
C00000C0
C00000C0
C00000C0
C00000C0
C00000C0
C00000C0
C00000C0
C00000C0
C00000C0
C00000C0
C00000C0
C00000C0
ENDCHAR
STARTCHAR 006F
ENCODING 111
SWIDTH 476 0
DWIDTH 40 0
BBX 26 42 7 0
BITMAP
0FFFFC00
3FFFFF00
70000380
60000180
C00000C0
C00000C0
C00000C0
C00000C0
C00000C0
C00000C0
C00000C0
C00000C0
C00000C0
C00000C0
C00000C0
C00000C0
C00000C0
C00000C0
C00000C0
C00000C0
C00000C0
C00000C0
C00000C0
C00000C0
C00000C0
C00000C0
C00000C0
C00000C0
C00000C0
C00000C0
C00000C0
C00000C0
C00000C0
C00000C0
C00000C0
C00000C0
C00000C0
C00000C0
60000180
70000380
3FFFFF00
0FFFFC00
ENDCHAR
STARTCHAR 0070
ENCODING 112
SWIDTH 476 0
DWIDTH 40 0
BBX 26 59 7 -17
BITMAP
FFFFFC00
FFFFFF00
C0000380
C0000180
C00000C0
C00000C0
C00000C0
C00000C0
C00000C0
C00000C0
C00000C0
C00000C0
C00000C0
C00000C0
C00000C0
C00000C0
C00000C0
C00000C0
C00000C0
C00000C0
C00000C0
C00000C0
C00000C0
C00000C0
C00000C0
C00000C0
C00000C0
C00000C0
C00000C0
C00000C0
C00000C0
C00000C0
C00000C0
C00000C0
C00000C0
C00000C0
C00000C0
C00000C0
C0000180
C0000380
FFFFFF00
FFFFFC00
C0000000
C0000000
C0000000
C0000000
C0000000
C0000000
C0000000
C0000000
C0000000
C0000000
C0000000
C0000000
C0000000
C0000000
C0000000
C0000000
C0000000
ENDCHAR
STARTCHAR 0071
ENCODING 113
SWIDTH 476 0
DWIDTH 40 0
BBX 26 59 7 -17
BITMAP
0FFFFFC0
3FFFFFC0
700000C0
600000C0
C00000C0
C00000C0
C00000C0
C00000C0
C00000C0
C00000C0
C00000C0
C00000C0
C00000C0
C00000C0
C00000C0
C00000C0
C00000C0
C00000C0
C00000C0
C00000C0
C00000C0
C00000C0
C00000C0
C00000C0
C00000C0
C00000C0
C00000C0
C00000C0
C00000C0
C00000C0
C00000C0
C00000C0
C00000C0
C00000C0
C00000C0
C00000C0
C00000C0
C00000C0
600000C0
700000C0
3FFFFFC0
0FFFFFC0
000000C0
000000C0
000000C0
000000C0
000000C0
000000C0
000000C0
000000C0
000000C0
000000C0
000000C0
000000C0
000000C0
000000C0
000000C0
000000C0
000000C0
ENDCHAR
STARTCHAR 0072
ENCODING 114
SWIDTH 285 0
DWIDTH 24 0
BBX 16 42 7 0
BITMAP
C7FF
DFFF
F000
E000
C000
C000
C000
C000
C000
C000
C000
C000
C000
C000
C000
C000
C000
C000
C000
C000
C000
C000
C000
C000
C000
C000
C000
C000
C000
C000
C000
C000
C000
C000
C000
C000
C000
C000
C000
C000
C000
C000
ENDCHAR
STARTCHAR 0073
ENCODING 115
SWIDTH 404 0
DWIDTH 34 0
BBX 24 42 5 0
BITMAP
0FFFFF
1FFFFF
300000
600000
400000
C00000
C00000
C00000
C00000
C00000
C00000
600000
700000
380000
1C0000
0E0000
078000
01C000
00E000
003800
001C00
000F00
000380
0001E0
000070
000038
00001C
00000E
000006
000003
000003
000003
000003
000003
000003
000003
000003
000003
000006
00000E
FFFFFC
FFFFF0
ENDCHAR
STARTCHAR 0074
ENCODING 116
SWIDTH 285 0
DWIDTH 24 0
BBX 14 52 7 1
BITMAP
4000
C000
C000
C000
C000
C000
C000
C000
C000
C000
FFFC
FFFC
C000
C000
C000
C000
C000
C000
C000
C000
C000
C000
C000
C000
C000
C000
C000
C000
C000
C000
C000
C000
C000
C000
C000
C000
C000
C000
C000
C000
C000
C000
C000
C000
C000
C000
C000
C000
6000
7000
3FFC
0FFC
ENDCHAR
STARTCHAR 0075
ENCODING 117
SWIDTH 476 0
DWIDTH 40 0
BBX 26 42 7 0
BITMAP
C00000C0
C00000C0
C00000C0
C00000C0
C00000C0
C00000C0
C00000C0
C00000C0
C00000C0
C00000C0
C00000C0
C00000C0
C00000C0
C00000C0
C00000C0
C00000C0
C00000C0
C00000C0
C00000C0
C00000C0
C00000C0
C00000C0
C00000C0
C00000C0
C00000C0
C00000C0
C00000C0
C00000C0
C00000C0
C00000C0
C00000C0
C00000C0
C00000C0
C00000C0
C00000C0
C00000C0
C00000C0
C00000C0
600000C0
700000C0
3FFFFFC0
0FFFFFC0
ENDCHAR
STARTCHAR 0076
ENCODING 118
SWIDTH 392 0
DWIDTH 33 0
BBX 30 42 2 0
BITMAP
C000000C
E000001C
60000018
60000018
70000038
30000030
30000030
38000070
18000060
18000060
1C000060
0C0000C0
0C0000C0
0C0000C0
06000180
06000180
06000180
03000300
03000300
03000300
01800600
01800600
01800600
00C00C00
00C00C00
00C00C00
00601800
00601800
00601800
00303000
00303000
00303000
00186000
00186000
00186000
0008C000
000CC000
000CC000
00048000
00078000
00078000
00030000
ENDCHAR
STARTCHAR 0077
ENCODING 119
SWIDTH 607 0
DWIDTH 51 0
BBX 46 42 3 0
BITMAP
C0000300000C
C0000380000C
600007800018
600007800018
600004800018
300004800030
30000CC00030
30000CC00030
30000C400030
180008400060
180008600060
180018600060
180018600040
0C00102000C0
0C00102000C0
0C00303000C0
060030300080
060030300180
060020100180
060020180100
030060180300
030060180300
030040080300
030040080200
0180C00C0600
0180C00C0600
0180800C0400
008080040400
00C080060C00
00C180060C00
00C180060800
006100021800
006100021800
006300031800
006300031000
003200033000
003200013000
00320001A000
00160001A000
001E0001E000
001C0001E000
001C0000C000
ENDCHAR
STARTCHAR 0078
ENCODING 120
SWIDTH 416 0
DWIDTH 35 0
BBX 30 42 3 0
BITMAP
E000001C
60000018
30000030
38000070
18000060
0C0000C0
0C0001C0
06000180
03000300
03000300
01800600
00C00C00
00C00C00
00601800
00303000
00303000
00186000
000CC000
000CC000
00078000
00030000
00030000
00078000
000CC000
000CC000
00186000
00303000
00303000
00601800
00C00C00
00C00C00
01800600
03000300
03000300
06000180
0E0000C0
0C0000C0
18000060
38000070
30000030
60000018
E000001C
ENDCHAR
STARTCHAR 0079
ENCODING 121
SWIDTH 392 0
DWIDTH 33 0
BBX 30 59 2 -17
BITMAP
C000000C
E000001C
60000018
60000018
70000038
30000030
30000030
38000030
18000060
18000060
18000060
0C0000C0
0C0000C0
0C0000C0
06000180
06000180
06000180
03000300
03000300
03000300
01800600
01800600
01800600
00C00C00
00C00C00
00C00C00
00601800
00601800
00601800
00301000
00303000
00303000
00182000
00186000
00186000
00084000
000CC000
000CC000
00048000
00078000
00078000
00030000
00030000
00030000
00020000
00060000
00060000
00040000
000C0000
000C0000
000C0000
00180000
00180000
00380000
00300000
00300000
00700000
00600000
00600000
ENDCHAR
STARTCHAR 007A
ENCODING 122
SWIDTH 404 0
DWIDTH 34 0
BBX 26 42 4 0
BITMAP
FFFFFFC0
FFFFFFC0
00000080
00000180
00000100
00000300
00000600
00000400
00000C00
00001800
00001000
00003000
00002000
00006000
0000C000
00008000
00018000
00030000
00020000
00060000
000C0000
000C0000
00180000
00100000
00300000
00600000
00600000
00C00000
01800000
01800000
03000000
06000000
06000000
0C000000
0C000000
18000000
30000000
30000000
60000000
E0000000
FFFFFFC0
FFFFFFC0
ENDCHAR
STARTCHAR 007B
ENCODING 123
SWIDTH 345 0
DWIDTH 29 0
BBX 21 76 3 -17
BITMAP
0001F8
001FF8
007C00
00E000
01C000
018000
030000
030000
030000
020000
060000
060000
060000
060000
060000
060000
060000
060000
060000
060000
060000
060000
060000
060000
060000
060000
060000
060000
060000
060000
060000
060000
060000
040000
0C0000
180000
F00000
F00000
180000
0C0000
060000
060000
060000
060000
060000
060000
060000
060000
060000
060000
060000
060000
060000
060000
060000
060000
060000
060000
060000
060000
060000
060000
060000
060000
060000
060000
060000
030000
030000
030000
018000
01C000
00E000
007C00
001FF8
0003F8
ENDCHAR
STARTCHAR 007C
ENCODING 124
SWIDTH 178 0
DWIDTH 15 0
BBX 2 76 7 -17
BITMAP
C0
C0
C0
C0
C0
C0
C0
C0
C0
C0
C0
C0
C0
C0
C0
C0
C0
C0
C0
C0
C0
C0
C0
C0
C0
C0
C0
C0
C0
C0
C0
C0
C0
C0
C0
C0
C0
C0
C0
C0
C0
C0
C0
C0
C0
C0
C0
C0
C0
C0
C0
C0
C0
C0
C0
C0
C0
C0
C0
C0
C0
C0
C0
C0
C0
C0
C0
C0
C0
C0
C0
C0
C0
C0
C0
C0
ENDCHAR
STARTCHAR 007D
ENCODING 125
SWIDTH 345 0
DWIDTH 29 0
BBX 21 76 5 -17
BITMAP
FE0000
FFC000
01F000
003800
001C00
000C00
000600
000600
000600
000300
000300
000300
000300
000300
000300
000300
000300
000300
000300
000300
000300
000300
000300
000300
000300
000300
000300
000300
000300
000300
000300
000300
000300
000180
000180
0000E0
000078
000078
0000C0
000180
000100
000300
000300
000300
000300
000300
000300
000300
000300
000300
000300
000300
000300
000300
000300
000300
000300
000300
000300
000300
000300
000300
000300
000300
000300
000300
000300
000200
000600
000600
000C00
001C00
003800
01F000
FFC000
FC0000
ENDCHAR
STARTCHAR 007E
ENCODING 126
SWIDTH 464 0
DWIDTH 39 0
BBX 32 12 4 37
BITMAP
07800003
1FF00003
38380003
700C0003
60070003
60018003
C000C007
C0006006
C000300E
C0001C1C
C00007F8
C00001E0
ENDCHAR
STARTCHAR 00A0
ENCODING 160
SWIDTH 261 0
DWIDTH 22 0
BBX 0 0 0 0
BITMAP
ENDCHAR
STARTCHAR 00A1
ENCODING 161
SWIDTH 178 0
DWIDTH 15 0
BBX 2 59 7 -17
BITMAP
C0
C0
C0
00
00
00
00
00
00
00
00
C0
C0
C0
C0
C0
C0
C0
C0
C0
C0
C0
C0
C0
C0
C0
C0
C0
C0
C0
C0
C0
C0
C0
C0
C0
C0
C0
C0
C0
C0
C0
C0
C0
C0
C0
C0
C0
C0
C0
C0
C0
C0
C0
C0
C0
C0
C0
C0
ENDCHAR
STARTCHAR 00A2
ENCODING 162
SWIDTH 369 0
DWIDTH 31 0
BBX 23 59 4 1
BITMAP
000C00
000C00
000C00
000C00
000C00
000C00
000C00
000C00
07FFFE
1FFFFE
380000
600000
600000
C00000
C00000
C00000
C00000
C00000
C00000
C00000
C00000
C00000
C00000
C00000
C00000
C00000
C00000
C00000
C00000
C00000
C00000
C00000
C00000
C00000
C00000
C00000
C00000
C00000
C00000
C00000
C00000
C00000
C00000
C00000
C00000
C00000
600000
600000
380000
1FFFFE
07FFFE
000C00
000C00
000C00
000C00
000C00
000C00
000C00
000C00
ENDCHAR
STARTCHAR 00A3
ENCODING 163
SWIDTH 464 0
DWIDTH 39 0
BBX 33 59 4 0
BITMAP
01FFF00000
07FFF00000
0600000000
0C00000000
0C00000000
1800000000
1800000000
1800000000
1800000000
1800000000
1800000000
1800000000
1800000000
1800000000
1800000000
1800000000
1800000000
1800000000
1800000000
1800000000
1800000000
1800000000
1800000000
1800000000
1800000000
1800000000
1800000000
1800000000
1800000000
FFFFE00000
FFFFE00000
1800000000
1800000000
1800000000
1800000000
1800000000
1800000000
1800000000
1800000000
1800000000
1800000000
1800000000
1800000000
1800000000
1800000000
1800000000
1800000000
1800000000
1800000000
1800000000
1800000000
1800000000
1800000000
1800000000
1800000000
1800000000
1800000000
1FFFFFFF80
1FFFFFFF80
ENDCHAR
STARTCHAR 00A4
ENCODING 164
SWIDTH 476 0
DWIDTH 40 0
BBX 35 59 3 1
BITMAP
C0000000E0
C0000000C0
E0000001C0
6000000180
7000000380
3000000780
3000000700
3800000F00
1800000E00
1C00001E00
1FFFFFFE00
0FFFFFFC00
0F80007C00
0E00001C00
0C00001C00
0C00000C00
0C00000C00
0C00000C00
0C00000C00
0C00000C00
0C00000C00
0C00000C00
0C00000C00
0C00000C00
0C00000C00
0C00000C00
0C00000C00
0C00000C00
0C00000C00
0C00000C00
0C00000C00
0C00000C00
0C00000C00
0C00000C00
0C00000C00
0C00000C00
0C00000C00
0C00000C00
0C00000C00
0C00000C00
0C00000C00
0C00000C00
0C00000C00
0C00000C00
0C00000C00
0E00001C00
0F00003C00
0FFFFFFC00
1FFFFFFE00
1800001E00
1800000F00
3800000700
3000000700
3000000380
6000000380
60000001C0
E0000001C0
C0000000C0
C0000000E0
ENDCHAR
STARTCHAR 00A5
ENCODING 165
SWIDTH 523 0
DWIDTH 44 0
BBX 42 59 1 0
BITMAP
C000000000C0
E00000000180
700000000380
300000000300
380000000700
180000000600
0C0000000C00
0E0000001C00
060000001800
070000003800
038000003000
018000006000
01C00000E000
00C00000C000
006000018000
007000018000
003000030000
003800070000
001800060000
000C000C0000
000E000C0000
000600180000
000300380000
000300300000
000180600000
0001C0E00000
0000C0C00000
000061800000
000071800000
000033000000
00001F000000
00001E000000
00000C000000
00000C000000
00000C000000
00000C000000
00000C000000
00000C000000
0007FFF80000
0007FFF80000
00000C000000
00000C000000
00000C000000
00000C000000
00000C000000
00000C000000
00000C000000
00000C000000
00000C000000
00000C000000
00000C000000
00000C000000
00000C000000
00000C000000
00000C000000
00000C000000
00000C000000
00000C000000
00000C000000
ENDCHAR
STARTCHAR 00A7
ENCODING 167
SWIDTH 404 0
DWIDTH 34 0
BBX 24 76 5 -17
BITMAP
0FFFFF
1FFFFF
300000
600000
400000
C00000
C00000
C00000
C00000
C00000
C00000
C00000
E00000
E00000
F00000
D80000
CC0000
C70000
C38000
C0E000
C07000
C01C00
C00E00
C00300
C001C0
C000E0
C00038
C0001C
C0000E
C00006
C00006
C00003
C00003
C00003
C00003
C00003
C00003
C00003
C00003
C00003
C00003
C00003
600003
600003
300003
180003
0E0003
070003
018003
00E003
007003
001C03
000E03
000383
0001C3
000073
00003B
00001F
00000F
000007
000003
000003
000003
000003
000003
000003
000003
000003
000003
000003
000003
000003
000006
00000E
FFFFFC
FFFFF0
ENDCHAR
STARTCHAR 00A8
ENCODING 168
SWIDTH 297 0
DWIDTH 25 0
BBX 11 3 7 52
BITMAP
C060
C060
C060
ENDCHAR
STARTCHAR 00A9
ENCODING 169
SWIDTH 642 0
DWIDTH 54 0
BBX 40 59 7 0
BITMAP
0FFFFFFFF0
1FFFFFFFFC
300000000E
6000000006
4000000003
C000000003
C000000003
C00FFFFF83
C03FFFFF83
C070000003
C060000003
C0C0000003
C0C0000003
C0C0000003
C0C0000003
C0C0000003
C0C0000003
C0C0000003
C0C0000003
C0C0000003
C0C0000003
C0C0000003
C0C0000003
C0C0000003
C0C0000003
C0C0000003
C0C0000003
C0C0000003
C0C0000003
C0C0000003
C0C0000003
C0C0000003
C0C0000003
C0C0000003
C0C0000003
C0C0000003
C0C0000003
C0C0000003
C0C0000003
C0C0000003
C0C0000003
C0C0000003
C0C0000003
C0C0000003
C0C0000003
C0C0000003
C0C0000003
C0E0000003
C070000003
C03FFFFF83
C01FFFFF83
C000000003
C000000003
C000000003
C000000003
6000000006
700000000E
3FFFFFFFFC
0FFFFFFFF0
ENDCHAR
STARTCHAR 00AA
ENCODING 170
SWIDTH 464 0
DWIDTH 39 0
BBX 26 59 6 0
BITMAP
FFFFFC00
FFFFFF00
00000380
00000180
000000C0
000000C0
000000C0
000000C0
000000C0
000000C0
000000C0
000000C0
000000C0
000000C0
000000C0
000000C0
07FFFFC0
1FFFFFC0
380000C0
600000C0
600000C0
C00000C0
C00000C0
C00000C0
C00000C0
C00000C0
C00000C0
C00000C0
C00000C0
C00000C0
C00000C0
C00000C0
C00000C0
C00000C0
C00000C0
C00000C0
C00000C0
E00000C0
600000C0
700000C0
3FFFFFC0
0FFFFFC0
00000000
00000000
00000000
00000000
00000000
00000000
00000000
00000000
00000000
00000000
00000000
00000000
00000000
00000000
00000000
FFFFFFC0
FFFFFFC0
ENDCHAR
STARTCHAR 00AB
ENCODING 171
SWIDTH 547 0
DWIDTH 46 0
BBX 40 35 3 8
BITMAP
00000C0001
00001C0003
000038000E
000070001C
0001C00038
00038000E0
00070001C0
001E000380
0038000F00
0070001C00
01E0003800
0380007000
070001E000
0E00038000
3C00070000
70001E0000
E0003C0000
E0003C0000
70001E0000
3C000F0000
1E00038000
070001C000
038000F000
01E0003800
00F0001C00
0038000E00
001C000780
000F0001C0
00038000E0
0001C00070
0000E0001C
000070000E
00001C0007
00000C0003
0000040000
ENDCHAR
STARTCHAR 00AC
ENCODING 172
SWIDTH 452 0
DWIDTH 38 0
BBX 29 26 4 0
BITMAP
FFFFFFF8
FFFFFFF8
00000018
00000018
00000018
00000018
00000018
00000018
00000018
00000018
00000018
00000018
00000018
00000018
00000018
00000018
00000018
00000018
00000018
00000018
00000018
00000018
00000018
00000018
00000018
00000018
ENDCHAR
STARTCHAR 00AE
ENCODING 174
SWIDTH 642 0
DWIDTH 54 0
BBX 40 59 7 0
BITMAP
0FFFFFFFF0
1FFFFFFFFC
300000000E
6000000006
4000000003
C000000003
C000000003
C0FFFFF003
C0FFFFFC03
C0C0000E03
C0C0000703
C0C0000303
C0C0000303
C0C0000303
C0C0000303
C0C0000303
C0C0000303
C0C0000303
C0C0000303
C0C0000303
C0C0000303
C0C0000303
C0C0000303
C0C0000303
C0C0000303
C0C0000303
C0C0000703
C0C0000E03
C0FFFFFC03
C0FFFFF003
C0C000C003
C0C000C003
C0C0006003
C0C0006003
C0C0003003
C0C0003003
C0C0003003
C0C0001803
C0C0001803
C0C0000C03
C0C0000C03
C0C0000603
C0C0000603
C0C0000603
C0C0000303
C0C0000303
C0C0000183
C0C0000183
C0C0000183
C0C00000C3
C0C00000C3
C000000003
C000000003
C000000003
C000000003
6000000006
700000000E
3FFFFFFFFC
0FFFFFFFF0
ENDCHAR
STARTCHAR 00AF
ENCODING 175
SWIDTH 357 0
DWIDTH 30 0
BBX 16 2 7 52
BITMAP
FFFF
FFFF
ENDCHAR
STARTCHAR 00B0
ENCODING 176
SWIDTH 321 0
DWIDTH 27 0
BBX 17 28 5 31
BITMAP
0FF800
1FFE00
300700
600300
400180
C00180
C00180
C00180
C00180
C00180
C00180
C00180
C00180
C00180
C00180
C00180
C00180
C00180
C00180
C00180
C00180
C00180
C00180
600300
600300
380E00
1FFC00
07F000
ENDCHAR
STARTCHAR 00B1
ENCODING 177
SWIDTH 452 0
DWIDTH 38 0
BBX 30 40 4 0
BITMAP
00030000
00030000
00030000
00030000
00030000
00030000
00030000
00030000
00030000
00030000
00030000
00030000
00030000
00030000
FFFFFFFC
FFFFFFFC
00030000
00030000
00030000
00030000
00030000
00030000
00030000
00030000
00030000
00030000
00030000
00030000
00030000
00030000
00000000
00000000
00000000
00000000
00000000
00000000
00000000
00000000
FFFFFFFC
FFFFFFFC
ENDCHAR
STARTCHAR 00B4
ENCODING 180
SWIDTH 285 0
DWIDTH 24 0
BBX 11 11 7 48
BITMAP
00E0
01C0
0380
0300
0600
0C00
1800
1800
3000
6000
C000
ENDCHAR
STARTCHAR 00B5
ENCODING 181
SWIDTH 476 0
DWIDTH 40 0
BBX 26 59 7 -17
BITMAP
C00000C0
C00000C0
C00000C0
C00000C0
C00000C0
C00000C0
C00000C0
C00000C0
C00000C0
C00000C0
C00000C0
C00000C0
C00000C0
C00000C0
C00000C0
C00000C0
C00000C0
C00000C0
C00000C0
C00000C0
C00000C0
C00000C0
C00000C0
C00000C0
C00000C0
C00000C0
C00000C0
C00000C0
C00000C0
C00000C0
C00000C0
C00000C0
C00000C0
C00000C0
C00000C0
C00000C0
C00000C0
C00000C0
E00000C0
F00000C0
DFFFFFC0
CFFFFFC0
C0000000
C0000000
C0000000
C0000000
C0000000
C0000000
C0000000
C0000000
C0000000
C0000000
C0000000
C0000000
C0000000
C0000000
C0000000
C0000000
C0000000
ENDCHAR
STARTCHAR 00B6
ENCODING 182
SWIDTH 523 0
DWIDTH 44 0
BBX 31 59 8 0
BITMAP
07FFFFFE
1FFFFFFE
7FFFFFFE
7FFFFFFE
FFFFFFFE
FFFFFFFE
FFFFFFFE
FFFFFFFE
FFFFFFFE
FFFFFFFE
FFFFFFFE
FFFFFFFE
FFFFFFFE
FFFFFFFE
FFFFFFFE
FFFFFFFE
FFFFFFFE
FFFFFFFE
FFFFFFFE
FFFFFFFE
FFFFFFFE
FFFFFFFE
FFFFFFFE
FFFFFFFE
FFFFFFFE
7FFFFFFE
7FFFFFFE
3FFFFFFE
07FFFFFE
00000006
00000006
00000006
00000006
00000006
00000006
00000006
00000006
00000006
00000006
00000006
00000006
00000006
00000006
00000006
00000006
00000006
00000006
00000006
00000006
00000006
00000006
00000006
00000006
00000006
00000006
00000006
00000006
00000006
00000006
ENDCHAR
STARTCHAR 00B7
ENCODING 183
SWIDTH 166 0
DWIDTH 14 0
BBX 4 4 5 23
BITMAP
F0
F0
F0
F0
ENDCHAR
STARTCHAR 00B8
ENCODING 184
SWIDTH 321 0
DWIDTH 27 0
BBX 15 18 6 -16
BITMAP
0300
0200
0600
0600
07E0
0FF8
001C
000E
0006
0006
0006
0006
0006
0006
0006
000C
7FF8
FFF0
ENDCHAR
STARTCHAR 00BA
ENCODING 186
SWIDTH 476 0
DWIDTH 40 0
BBX 26 59 7 0
BITMAP
0FFFFC00
3FFFFF00
70000380
60000180
C00000C0
C00000C0
C00000C0
C00000C0
C00000C0
C00000C0
C00000C0
C00000C0
C00000C0
C00000C0
C00000C0
C00000C0
C00000C0
C00000C0
C00000C0
C00000C0
C00000C0
C00000C0
C00000C0
C00000C0
C00000C0
C00000C0
C00000C0
C00000C0
C00000C0
C00000C0
C00000C0
C00000C0
C00000C0
C00000C0
C00000C0
C00000C0
C00000C0
C00000C0
60000180
70000380
3FFFFF00
0FFFFC00
00000000
00000000
00000000
00000000
00000000
00000000
00000000
00000000
00000000
00000000
00000000
00000000
00000000
00000000
00000000
FFFFFFC0
FFFFFFC0
ENDCHAR
STARTCHAR 00BB
ENCODING 187
SWIDTH 547 0
DWIDTH 46 0
BBX 40 35 3 8
BITMAP
8000300000
E000380000
70001C0000
38000E0000
1C00038000
070001C000
038000E000
01C0007800
00F0001C00
0078000E00
001C000780
000E0003C0
00078000E0
0003C00070
0000E0003C
000078001E
00003C0007
00001C0007
000078000E
0000F0001C
0001C00078
00038000E0
000F0001C0
001C000380
0038000F00
0070001C00
01E0003800
0380007000
070001C000
0E00038000
3800070000
70000E0000
E000380000
C000300000
0000200000
ENDCHAR
STARTCHAR 00BF
ENCODING 191
SWIDTH 392 0
DWIDTH 33 0
BBX 27 59 4 -17
BITMAP
00018000
00018000
00018000
00000000
00000000
00000000
00000000
00000000
00000000
00000000
00000000
00018000
00018000
00018000
00018000
00018000
00018000
00018000
00018000
00018000
00018000
00018000
00018000
00018000
00018000
00018000
00018000
00018000
00018000
00018000
00018000
00018000
00030000
00030000
000E0000
001C0000
00380000
00700000
00E00000
01800000
03000000
06000000
0C000000
18000000
30000000
60000000
60000000
C0000000
C0000000
C0000000
C0000000
C0000000
C0000000
C0000000
E0000000
60000000
70000000
3FFFFFE0
0FFFFFE0
ENDCHAR
STARTCHAR 00C0
ENCODING 192
SWIDTH 500 0
DWIDTH 42 0
BBX 39 67 2 0
BITMAP
001FFFE000
001FFFE000
0000000000
0000000000
0000000000
0000000000
0000000000
0000000000
0000380000
0000780000
00007C0000
00004C0000
0000CC0000
0000CC0000
0000C60000
0001860000
0001860000
0001870000
0001030000
0003030000
0003038000
0003018000
0006018000
000601C000
000600C000
000C00C000
000C00C000
000C00E000
000C006000
0018006000
0018007000
0018003000
0030003000
0030003800
0030001800
0070001800
0060001C00
0060001C00
0060000C00
00C0000E00
00C0000E00
00C0000600
01C0000600
0180000700
0180000300
0380000300
0300000380
03FFFFFF80
03FFFFFF80
06000001C0
06000001C0
06000000C0
0E000000E0
0C000000E0
0C00000060
1C00000060
1800000070
1800000030
1800000030
3000000038
3000000038
3000000018
700000001C
600000001C
600000000C
E00000000E
C00000000E
ENDCHAR
STARTCHAR 00C1
ENCODING 193
SWIDTH 500 0
DWIDTH 42 0
BBX 39 70 2 1
BITMAP
0018001800
0018001800
0018001800
0018001800
000C003800
000E007000
0007FFE000
0003FFC000
0000000000
0000000000
0000000000
0000380000
00003C0000
00006C0000
00006C0000
0000660000
0000C60000
0000C60000
0000C70000
0000830000
0001830000
0001830000
0001818000
0003018000
0003018000
000300C000
000600C000
000600C000
0006006000
000C006000
000C006000
000C006000
000C003000
0018003000
0018003000
0018001800
0030001800
0030001800
0030000C00
0060000C00
0060000C00
0060000400
00C0000600
00C0000600
00C0000600
00C0000300
0180000300
0180000300
0180000180
0300000180
03FFFFFF80
03FFFFFF80
06000000C0
06000000C0
06000000C0
0E00000060
0C00000060
0C00000060
0C00000030
1800000030
1800000030
1800000030
3000000018
3000000018
3000000018
700000000C
600000000C
600000000C
E00000000E
C000000006
ENDCHAR
STARTCHAR 00C2
ENCODING 194
SWIDTH 500 0
DWIDTH 42 0
BBX 39 67 2 0
BITMAP
0003018000
0003018000
0000000000
0000000000
0000000000
0000000000
0000000000
0000000000
0000380000
00003C0000
00006C0000
00006C0000
00006E0000
0000C60000
0000C60000
0000C70000
0000830000
0001830000
0001830000
0001818000
0003018000
0003018000
000301C000
000600C000
000600C000
000600E000
000C006000
000C006000
000C006000
000C003000
0018003000
0018003000
0018003800
0030001800
0030001800
0030001C00
0060000C00
0060000C00
0060000C00
00C0000600
00C0000600
00C0000600
00C0000700
0180000300
0180000300
0180000380
0300000180
03FFFFFF80
03FFFFFF80
06000001C0
06000000C0
06000000C0
0E000000E0
0C00000060
0C00000060
0C00000070
1800000030
1800000030
1800000030
3000000038
3000000018
3000000018
700000001C
600000000C
600000000C
E00000000E
C000000006
ENDCHAR
STARTCHAR 00C3
ENCODING 195
SWIDTH 404 0
DWIDTH 34 0
BBX 24 59 7 0
BITMAP
000018
000030
000060
0000E0
0000C0
000180
000300
000600
000C00
000800
001800
000000
000000
000000
000000
000000
000000
0FFFFF
3FFFFF
700000
600000
C00000
C00000
C00000
C00000
C00000
C00000
C00000
C00000
C00000
C00000
C00000
C00000
C00000
C00000
C00000
C00000
C00000
C00000
C00000
C00000
C00000
C00000
C00000
C00000
C00000
C00000
C00000
C00000
C00000
C00000
C00000
C00000
C00000
C00000
600000
700000
3FFFFF
0FFFFF
ENDCHAR
STARTCHAR 00C4
ENCODING 196
SWIDTH 500 0
DWIDTH 42 0
BBX 39 70 2 0
BITMAP
000C000000
0006000000
0003000000
0001800000
0000C00000
0000300000
0000180000
00000C0000
0000000000
0000000000
0000000000
0000380000
00003C0000
00006C0000
00006C0000
00006E0000
0000C60000
0000C60000
0000C70000
0000830000
0001830000
0001830000
0001818000
0003018000
0003018000
000301C000
000600C000
000600C000
000600E000
000C006000
000C006000
000C006000
000C003000
0018003000
0018003000
0018003800
0030001800
0030001800
0030001C00
0060000C00
0060000C00
0060000C00
00C0000600
00C0000600
00C0000600
00C0000700
0180000300
0180000300
0180000380
0300000180
03FFFFFF80
03FFFFFF80
06000000C0
06000000C0
06000000C0
0E000000E0
0C00000060
0C00000060
0C00000070
1800000030
1800000030
1800000030
3000000038
3000000018
3000000018
700000001C
600000000C
600000000C
E00000000E
C000000006
ENDCHAR
STARTCHAR 00C5
ENCODING 197
SWIDTH 500 0
DWIDTH 42 0
BBX 39 70 2 0
BITMAP
001E000180
007FC00180
00E0E00180
00C0300180
01C0180180
01800E0300
0180078700
018001FE00
0180007800
0000000000
0000000000
00001C0000
00003C0000
00003C0000
0000360000
0000660000
0000660000
0000670000
0000C30000
0000C30000
0000C30000
0001818000
0001818000
0001818000
000300C000
000300C000
000300C000
000300C000
0006006000
0006006000
0006006000
000C003000
000C003000
000C003000
0018001800
0018001800
0018001800
0038001800
0030000C00
0030000C00
0070000C00
0060000600
0060000600
00E0000600
00C0000200
00C0000300
01C0000300
0180000100
0180000180
0180000180
03FFFFFF80
03FFFFFFC0
03000000C0
06000000C0
0600000040
0600000060
0C00000060
0C00000020
0C00000030
1C00000030
1800000030
1800000018
3800000018
3000000018
3000000018
700000000C
600000000C
600000000C
E000000006
C000000006
ENDCHAR
STARTCHAR 00C6
ENCODING 198
SWIDTH 797 0
DWIDTH 67 0
BBX 67 59 -3 0
BITMAP
000000000FFFFFFF80
000000001FFFFFFF80
000000003600000000
000000003600000000
000000006600000000
000000006600000000
00000000C600000000
000000018600000000
000000018600000000
000000030600000000
000000070600000000
000000060600000000
0000000C0600000000
0000000C0600000000
000000180600000000
000000380600000000
000000300600000000
000000600600000000
000000600600000000
000000C00600000000
000001C00600000000
000001800600000000
000003000600000000
000003000600000000
000006000600000000
00000E000600000000
00000C000600000000
0000180007FFFFF800
0000180007FFFFF800
000030000600000000
000070000600000000
000060000600000000
0000C0000600000000
0001C0000600000000
000180000600000000
000380000600000000
000300000600000000
000600000600000000
000E00000600000000
000FFFFFFE00000000
001FFFFFFE00000000
001800000600000000
003000000600000000
007000000600000000
006000000600000000
00E000000600000000
00C000000600000000
018000000600000000
038000000600000000
030000000600000000
070000000600000000
0E0000000600000000
0C0000000600000000
1C0000000600000000
180000000600000000
380000000600000000
700000000600000000
6000000007FFFFFFE0
E000000007FFFFFFE0
ENDCHAR
STARTCHAR 00C7
ENCODING 199
SWIDTH 488 0
DWIDTH 41 0
BBX 31 70 7 0
BITMAP
0000C000
0001E000
0003B000
00061800
000C0C00
00180600
00300300
00600080
00000000
00000000
00000000
0FFFFFFE
1FFFFFFE
30000000
60000000
60000000
C0000000
C0000000
C0000000
C0000000
C0000000
C0000000
C0000000
C0000000
C0000000
C0000000
C0000000
C0000000
C0000000
C0000000
C0000000
C0000000
C0000000
C0000000
C0000000
C0000000
C0000000
C0000000
C0000000
C0000000
C0000000
C0000000
C0000000
C0000000
C0000000
C0000000
C0000000
C0000000
C0000000
C0000000
C0000000
C0000000
C0000000
C0000000
C0000000
C0000000
C0000000
C0000000
C0000000
C0000000
C0000000
C0000000
C0000000
C0000000
C0000000
E0000000
60000000
70000000
3FFFFFFE
0FFFFFFE
ENDCHAR
STARTCHAR 00C8
ENCODING 200
SWIDTH 476 0
DWIDTH 40 0
BBX 30 70 7 0
BITMAP
00E00000
00300000
00180000
000C0000
00060000
00030000
00018000
00004000
00000000
00000000
00000000
FFFFFFF0
FFFFFFF0
C0000000
C0000000
C0000000
C0000000
C0000000
C0000000
C0000000
C0000000
C0000000
C0000000
C0000000
C0000000
C0000000
C0000000
C0000000
C0000000
C0000000
C0000000
C0000000
C0000000
C0000000
C0000000
C0000000
C0000000
C0000000
FFFFFF00
FFFFFF00
C0000000
C0000000
C0000000
C0000000
C0000000
C0000000
C0000000
C0000000
C0000000
C0000000
C0000000
C0000000
C0000000
C0000000
C0000000
C0000000
C0000000
C0000000
C0000000
C0000000
C0000000
C0000000
C0000000
C0000000
C0000000
C0000000
C0000000
C0000000
FFFFFFFC
FFFFFFFC
ENDCHAR
STARTCHAR 00C9
ENCODING 201
SWIDTH 476 0
DWIDTH 40 0
BBX 29 70 7 0
BITMAP
00001800
00003000
00006000
0000C000
00008000
00010000
00020000
00040000
00000000
00000000
00000000
FFFFFFE0
FFFFFFE0
C0000000
C0000000
C0000000
C0000000
C0000000
C0000000
C0000000
C0000000
C0000000
C0000000
C0000000
C0000000
C0000000
C0000000
C0000000
C0000000
C0000000
C0000000
C0000000
C0000000
C0000000
C0000000
C0000000
C0000000
C0000000
FFFFFE00
FFFFFE00
C0000000
C0000000
C0000000
C0000000
C0000000
C0000000
C0000000
C0000000
C0000000
C0000000
C0000000
C0000000
C0000000
C0000000
C0000000
C0000000
C0000000
C0000000
C0000000
C0000000
C0000000
C0000000
C0000000
C0000000
C0000000
C0000000
C0000000
C0000000
FFFFFFF8
FFFFFFF8
ENDCHAR
STARTCHAR 00CA
ENCODING 202
SWIDTH 476 0
DWIDTH 40 0
BBX 32 70 7 0
BITMAP
00010000
00078000
000EC000
001C6000
00303800
00601C00
00C00600
01800300
00000000
00000000
00000000
FFFFFFFC
FFFFFFFC
C0000000
C0000000
C0000000
C0000000
C0000000
C0000000
C0000000
C0000000
C0000000
C0000000
C0000000
C0000000
C0000000
C0000000
C0000000
C0000000
C0000000
C0000000
C0000000
C0000000
C0000000
C0000000
C0000000
C0000000
C0000000
FFFFFFC0
FFFFFFC0
C0000000
C0000000
C0000000
C0000000
C0000000
C0000000
C0000000
C0000000
C0000000
C0000000
C0000000
C0000000
C0000000
C0000000
C0000000
C0000000
C0000000
C0000000
C0000000
C0000000
C0000000
C0000000
C0000000
C0000000
C0000000
C0000000
C0000000
C0000000
FFFFFFFF
FFFFFFFF
ENDCHAR
STARTCHAR 00CB
ENCODING 203
SWIDTH 476 0
DWIDTH 40 0
BBX 31 67 7 0
BITMAP
00300800
00300800
00000000
00000000
00000000
00000000
00000000
00000000
FFFFFFF8
FFFFFFF8
C0000000
C0000000
C0000000
C0000000
C0000000
C0000000
C0000000
C0000000
C0000000
C0000000
C0000000
C0000000
C0000000
C0000000
C0000000
C0000000
C0000000
C0000000
C0000000
C0000000
C0000000
C0000000
C0000000
C0000000
C0000000
FFFFFF80
FFFFFF80
C0000000
C0000000
C0000000
C0000000
C0000000
C0000000
C0000000
C0000000
C0000000
C0000000
C0000000
C0000000
C0000000
C0000000
C0000000
C0000000
C0000000
C0000000
C0000000
C0000000
C0000000
C0000000
C0000000
C0000000
C0000000
C0000000
C0000000
C0000000
FFFFFFFE
FFFFFFFE
ENDCHAR
STARTCHAR 00CC
ENCODING 204
SWIDTH 202 0
DWIDTH 17 0
BBX 9 69 1 1
BITMAP
C000
6000
3000
1C00
0600
0300
0180
0000
0000
0000
0180
0180
0180
0180
0180
0180
0180
0180
0180
0180
0180
0180
0180
0180
0180
0180
0180
0180
0180
0180
0180
0180
0180
0180
0180
0180
0180
0180
0180
0180
0180
0180
0180
0180
0180
0180
0180
0180
0180
0180
0180
0180
0180
0180
0180
0180
0180
0180
0180
0180
0180
0180
0180
0180
0180
0180
0180
0180
0180
ENDCHAR
STARTCHAR 00CD
ENCODING 205
SWIDTH 202 0
DWIDTH 17 0
BBX 9 69 7 1
BITMAP
0380
0700
0E00
1800
3000
6000
C000
0000
0000
0000
C000
C000
C000
C000
C000
C000
C000
C000
C000
C000
C000
C000
C000
C000
C000
C000
C000
C000
C000
C000
C000
C000
C000
C000
C000
C000
C000
C000
C000
C000
C000
C000
C000
C000
C000
C000
C000
C000
C000
C000
C000
C000
C000
C000
C000
C000
C000
C000
C000
C000
C000
C000
C000
C000
C000
C000
C000
C000
C000
ENDCHAR
STARTCHAR 00CE
ENCODING 206
SWIDTH 202 0
DWIDTH 17 0
BBX 16 69 1 1
BITMAP
03C0
07E0
0C70
1818
300C
6006
C003
0000
0000
0000
0180
0180
0180
0180
0180
0180
0180
0180
0180
0180
0180
0180
0180
0180
0180
0180
0180
0180
0180
0180
0180
0180
0180
0180
0180
0180
0180
0180
0180
0180
0180
0180
0180
0180
0180
0180
0180
0180
0180
0180
0180
0180
0180
0180
0180
0180
0180
0180
0180
0180
0180
0180
0180
0180
0180
0180
0180
0180
0180
ENDCHAR
STARTCHAR 00CF
ENCODING 207
SWIDTH 202 0
DWIDTH 17 0
BBX 11 67 3 0
BITMAP
C060
C060
0000
0000
0000
0000
0000
0000
0C00
0C00
0C00
0C00
0C00
0C00
0C00
0C00
0C00
0C00
0C00
0C00
0C00
0C00
0C00
0C00
0C00
0C00
0C00
0C00
0C00
0C00
0C00
0C00
0C00
0C00
0C00
0C00
0C00
0C00
0C00
0C00
0C00
0C00
0C00
0C00
0C00
0C00
0C00
0C00
0C00
0C00
0C00
0C00
0C00
0C00
0C00
0C00
0C00
0C00
0C00
0C00
0C00
0C00
0C00
0C00
0C00
0C00
0C00
ENDCHAR
STARTCHAR 00D1
ENCODING 209
SWIDTH 559 0
DWIDTH 47 0
BBX 32 70 8 0
BITMAP
00F0000C
03FE000C
0707000C
0601800C
0E00C00C
0C007018
0C003C38
0C000FF0
0C0003C0
00000000
00000000
E000000F
E000000F
F000000F
F000000F
D800000F
D800000F
CC00000F
CC00000F
C400000F
C600000F
C200000F
C300000F
C100000F
C180000F
C080000F
C0C0000F
C040000F
C040000F
C020000F
C020000F
C010000F
C010000F
C018000F
C008000F
C008000F
C004000F
C004000F
C002000F
C002000F
C001000F
C001000F
C000800F
C000800F
C000400F
C000400F
C000400F
C000200F
C000200F
C000100F
C000100F
C000080F
C000080F
C000080F
C000040F
C000040F
C000020F
C000020F
C000010F
C000010F
C000008F
C000008F
C000004F
C000004F
C000006F
C000002F
C000002F
C000001F
C000000F
C0000007
ENDCHAR
STARTCHAR 00D2
ENCODING 210
SWIDTH 547 0
DWIDTH 46 0
BBX 32 70 7 0
BITMAP
00700000
00380000
000C0000
00060000
00030000
00018000
0000C000
00003000
00000000
00000000
00000000
0FFFFFF0
1FFFFFFC
3000000E
60000006
60000007
C0000003
C0000003
C0000003
C0000003
C0000003
C0000003
C0000003
C0000003
C0000003
C0000003
C0000003
C0000003
C0000003
C0000003
C0000003
C0000003
C0000003
C0000003
C0000003
C0000003
C0000003
C0000003
C0000003
C0000003
C0000003
C0000003
C0000003
C0000003
C0000003
C0000003
C0000003
C0000003
C0000003
C0000003
C0000003
C0000003
C0000003
C0000003
C0000003
C0000003
C0000003
C0000003
C0000003
C0000003
C0000003
C0000003
C0000003
C0000003
C0000003
E0000003
60000006
7000000E
3FFFFFFC
0FFFFFF0
ENDCHAR
STARTCHAR 00D3
ENCODING 211
SWIDTH 547 0
DWIDTH 46 0
BBX 32 70 7 0
BITMAP
00000700
00000E00
00001C00
00003000
00006000
0000C000
00018000
00030000
00000000
00000000
00000000
0FFFFFF0
1FFFFFFC
3000000E
60000006
60000007
C0000003
C0000003
C0000003
C0000003
C0000003
C0000003
C0000003
C0000003
C0000003
C0000003
C0000003
C0000003
C0000003
C0000003
C0000003
C0000003
C0000003
C0000003
C0000003
C0000003
C0000003
C0000003
C0000003
C0000003
C0000003
C0000003
C0000003
C0000003
C0000003
C0000003
C0000003
C0000003
C0000003
C0000003
C0000003
C0000003
C0000003
C0000003
C0000003
C0000003
C0000003
C0000003
C0000003
C0000003
C0000003
C0000003
C0000003
C0000003
C0000003
E0000003
60000006
7000000E
3FFFFFFC
0FFFFFF0
ENDCHAR
STARTCHAR 00D4
ENCODING 212
SWIDTH 547 0
DWIDTH 46 0
BBX 32 70 7 0
BITMAP
00018000
0003C000
0006E000
000C3000
00181800
00300C00
00600600
00C00300
00000000
00000000
00000000
0FFFFFF0
1FFFFFFC
3000000E
60000006
60000007
C0000003
C0000003
C0000003
C0000003
C0000003
C0000003
C0000003
C0000003
C0000003
C0000003
C0000003
C0000003
C0000003
C0000003
C0000003
C0000003
C0000003
C0000003
C0000003
C0000003
C0000003
C0000003
C0000003
C0000003
C0000003
C0000003
C0000003
C0000003
C0000003
C0000003
C0000003
C0000003
C0000003
C0000003
C0000003
C0000003
C0000003
C0000003
C0000003
C0000003
C0000003
C0000003
C0000003
C0000003
C0000003
C0000003
C0000003
C0000003
C0000003
E0000003
60000006
7000000E
3FFFFFFC
0FFFFFF0
ENDCHAR
STARTCHAR 00D5
ENCODING 213
SWIDTH 547 0
DWIDTH 46 0
BBX 32 70 7 0
BITMAP
00F00018
03FC0018
070E0018
06038018
0C01C018
0C006038
0C003870
0C001FE0
0C0007C0
00000000
00000000
0FFFFFF0
1FFFFFFC
3000007E
6000003E
4000001F
C000001F
C000001F
C000001F
C000001F
C000001F
C000001F
C000001F
C000001F
C000001F
C000001F
C000001F
C000001F
C000001F
C000001F
C000001F
C000001F
C000001F
C000001F
C000001F
C000001F
C000001F
C000001F
C000001F
C000001F
C000001F
C000001F
C000001F
C000001F
C000001F
C000001F
C000001F
C000001F
C000001F
C000001F
C000001F
C000001F
C000001F
C000001F
C000001F
C000001F
C000001F
C000001F
C000001F
C000001F
C000001F
C000001F
C000001F
C000001F
C000001F
E000001F
6000003E
7000007E
3FFFFFFC
0FFFFFF0
ENDCHAR
STARTCHAR 00D6
ENCODING 214
SWIDTH 547 0
DWIDTH 46 0
BBX 32 67 7 0
BITMAP
00300C00
00300C00
00000000
00000000
00000000
00000000
00000000
00000000
0FFFFFF0
1FFFFFFC
3000000E
60000006
60000007
C0000003
C0000003
C0000003
C0000003
C0000003
C0000003
C0000003
C0000003
C0000003
C0000003
C0000003
C0000003
C0000003
C0000003
C0000003
C0000003
C0000003
C0000003
C0000003
C0000003
C0000003
C0000003
C0000003
C0000003
C0000003
C0000003
C0000003
C0000003
C0000003
C0000003
C0000003
C0000003
C0000003
C0000003
C0000003
C0000003
C0000003
C0000003
C0000003
C0000003
C0000003
C0000003
C0000003
C0000003
C0000003
C0000003
C0000003
C0000003
C0000003
E0000003
60000006
7000000E
3FFFFFFC
0FFFFFF0
ENDCHAR
STARTCHAR 00D8
ENCODING 216
SWIDTH 547 0
DWIDTH 46 0
BBX 46 59 0 0
BITMAP
001FFFFFE00C
003FFFFFF818
006000001C30
00C000000C70
00C000000E60
0180000006C0
018000000780
018000000780
018000000700
018000000600
018000000E00
018000000E00
018000001E00
018000003E00
018000007600
018000006600
01800000C600
018000018600
018000038600
018000070600
018000060600
0180000C0600
0180001C0600
018000380600
018000300600
018000600600
018000E00600
018001C00600
018001800600
018003000600
018007000600
01800E000600
01800C000600
018018000600
018030000600
018070000600
018060000600
0180C0000600
018180000600
018380000600
018700000600
018600000600
018C00000600
019C00000600
01B800000600
01B000000600
01E000000600
01E000000600
01C000000600
018000000600
038000000600
078000000600
078000000600
0D8000000600
19C000000600
38C000000C00
30E000001C00
607FFFFFF800
C01FFFFFE000
ENDCHAR
STARTCHAR 00D9
ENCODING 217
SWIDTH 547 0
DWIDTH 46 0
BBX 32 69 7 1
BITMAP
00180000
000E0000
00070000
00018000
0000C000
00006000
00003000
00000000
00000000
00000000
C0000003
C0000003
C0000003
C0000003
C0000003
C0000003
C0000003
C0000003
C0000003
C0000003
C0000003
C0000003
C0000003
C0000003
C0000003
C0000003
C0000003
C0000003
C0000003
C0000003
C0000003
C0000003
C0000003
C0000003
C0000003
C0000003
C0000003
C0000003
C0000003
C0000003
C0000003
C0000003
C0000003
C0000003
C0000003
C0000003
C0000003
C0000003
C0000003
C0000003
C0000003
C0000003
C0000003
C0000003
C0000003
C0000003
C0000003
C0000003
C0000003
C0000003
C0000003
C0000003
C0000003
C0000003
E0000003
60000006
7000000E
3FFFFFFC
0FFFFFF0
ENDCHAR
STARTCHAR 00DA
ENCODING 218
SWIDTH 547 0
DWIDTH 46 0
BBX 32 69 7 1
BITMAP
00000600
00001C00
00003800
00007000
0000C000
00018000
00030000
00000000
00000000
00000000
C0000003
C0000003
C0000003
C0000003
C0000003
C0000003
C0000003
C0000003
C0000003
C0000003
C0000003
C0000003
C0000003
C0000003
C0000003
C0000003
C0000003
C0000003
C0000003
C0000003
C0000003
C0000003
C0000003
C0000003
C0000003
C0000003
C0000003
C0000003
C0000003
C0000003
C0000003
C0000003
C0000003
C0000003
C0000003
C0000003
C0000003
C0000003
C0000003
C0000003
C0000003
C0000003
C0000003
C0000003
C0000003
C0000003
C0000003
C0000003
C0000003
C0000003
C0000003
C0000003
C0000003
C0000003
E0000003
60000006
7000000E
3FFFFFFC
0FFFFFF0
ENDCHAR
STARTCHAR 00DB
ENCODING 219
SWIDTH 547 0
DWIDTH 46 0
BBX 32 69 7 1
BITMAP
0003C000
0007E000
000C7000
00181800
00300C00
00600600
00C00300
00000000
00000000
00000000
C0000003
C0000003
C0000003
C0000003
C0000003
C0000003
C0000003
C0000003
C0000003
C0000003
C0000003
C0000003
C0000003
C0000003
C0000003
C0000003
C0000003
C0000003
C0000003
C0000003
C0000003
C0000003
C0000003
C0000003
C0000003
C0000003
C0000003
C0000003
C0000003
C0000003
C0000003
C0000003
C0000003
C0000003
C0000003
C0000003
C0000003
C0000003
C0000003
C0000003
C0000003
C0000003
C0000003
C0000003
C0000003
C0000003
C0000003
C0000003
C0000003
C0000003
C0000003
C0000003
C0000003
C0000003
E0000003
60000006
7000000E
3FFFFFFC
0FFFFFF0
ENDCHAR
STARTCHAR 00DC
ENCODING 220
SWIDTH 547 0
DWIDTH 46 0
BBX 32 67 7 0
BITMAP
00300C00
00300C00
00000000
00000000
00000000
00000000
00000000
00000000
C0000003
C0000003
C0000003
C0000003
C0000003
C0000003
C0000003
C0000003
C0000003
C0000003
C0000003
C0000003
C0000003
C0000003
C0000003
C0000003
C0000003
C0000003
C0000003
C0000003
C0000003
C0000003
C0000003
C0000003
C0000003
C0000003
C0000003
C0000003
C0000003
C0000003
C0000003
C0000003
C0000003
C0000003
C0000003
C0000003
C0000003
C0000003
C0000003
C0000003
C0000003
C0000003
C0000003
C0000003
C0000003
C0000003
C0000003
C0000003
C0000003
C0000003
C0000003
C0000003
C0000003
C0000003
E0000003
60000006
7000000E
3FFFFFFC
0FFFFFF0
ENDCHAR
STARTCHAR 00DD
ENCODING 221
SWIDTH 523 0
DWIDTH 44 0
BBX 42 69 1 1
BITMAP
000000300000
000000C00000
000001800000
000003000000
000004000000
000008000000
000010000000
000000000000
000000000000
000000000000
C000000001C0
E00000000180
600000000380
700000000300
380000000600
380000000E00
1C0000000C00
0C0000001C00
0E0000003800
060000003000
070000007000
03800000E000
03800000C000
01C00001C000
00C000018000
00E000038000
007000070000
007000060000
0038000E0000
0038001C0000
001C001C0000
000C00380000
000E00700000
000700700000
000700E00000
000381C00000
000381C00000
0001C3800000
0001C3800000
0000E7000000
00007E000000
00007E000000
00003C000000
00003C000000
00003C000000
00003C000000
00003C000000
00003C000000
00003C000000
00003C000000
00003C000000
00003C000000
00003C000000
00003C000000
00003C000000
00003C000000
00003C000000
00003C000000
00003C000000
00003C000000
00003C000000
00003C000000
00003C000000
00003C000000
00003C000000
00003C000000
00003C000000
00003C000000
00003C000000
ENDCHAR
STARTCHAR 00DF
ENCODING 223
SWIDTH 452 0
DWIDTH 38 0
BBX 26 59 7 0
BITMAP
0FFFFC00
3FFFFF00
70000380
60000180
C00000C0
C00000C0
C00000C0
C00000C0
C00000C0
C00000C0
C00000C0
C00000C0
C00000C0
C0000180
C0000180
C0000300
C0000600
C0000C00
C0003800
C0007000
C000C000
C0018000
C0030000
C0060000
C00C0000
C0080000
C0180000
C0180000
C0180000
C0180000
C0180000
C00C0000
C00C0000
C0060000
C0030000
C001C000
C000E000
C0007000
C0001C00
C0000E00
C0000700
C0000380
C0000180
C00000C0
C00000C0
C00000C0
C00000C0
C00000C0
C00000C0
C00000C0
C00000C0
C00000C0
C00000C0
C00000C0
C00000C0
C0000180
C0000380
C01FFF00
C01FFC00
ENDCHAR
STARTCHAR 00E0
ENCODING 224
SWIDTH 464 0
DWIDTH 39 0
BBX 26 54 6 0
BITMAP
07FFF800
07FFF800
00000000
00000000
00000000
00000000
00000000
00000000
00000000
00000000
00000000
00000000
FFFFFC00
FFFFFF00
00000380
00000180
000000C0
000000C0
000000C0
000000C0
000000C0
000000C0
000000C0
000000C0
000000C0
000000C0
000000C0
000000C0
0FFFFFC0
1FFFFFC0
300000C0
600000C0
600000C0
C00000C0
C00000C0
C00000C0
C00000C0
C00000C0
C00000C0
C00000C0
C00000C0
C00000C0
C00000C0
C00000C0
C00000C0
C00000C0
C00000C0
C00000C0
C00000C0
C00000C0
600000C0
700000C0
3FFFFFC0
0FFFFFC0
ENDCHAR
STARTCHAR 00E1
ENCODING 225
SWIDTH 464 0
DWIDTH 39 0
BBX 26 59 6 0
BITMAP
06000400
06000400
06000400
06000400
06000400
06000C00
03000800
03803800
01FFF000
007FC000
00000000
00000000
00000000
00000000
00000000
00000000
00000000
FFFFFC00
FFFFFF00
00000380
00000180
000000C0
000000C0
000000C0
000000C0
000000C0
000000C0
000000C0
000000C0
000000C0
000000C0
000000C0
000000C0
07FFFFC0
1FFFFFC0
300000C0
600000C0
600000C0
C00000C0
C00000C0
C00000C0
C00000C0
C00000C0
C00000C0
C00000C0
C00000C0
C00000C0
C00000C0
C00000C0
C00000C0
C00000C0
C00000C0
C00000C0
C00000C0
C00000C0
600000C0
700000C0
3FFFFFC0
0FFFFFC0
ENDCHAR
STARTCHAR 00E2
ENCODING 226
SWIDTH 464 0
DWIDTH 39 0
BBX 26 55 6 0
BITMAP
01806000
01806000
01806000
00000000
00000000
00000000
00000000
00000000
00000000
00000000
00000000
00000000
00000000
FFFFFC00
FFFFFF00
00000380
00000180
000000C0
000000C0
000000C0
000000C0
000000C0
000000C0
000000C0
000000C0
000000C0
000000C0
000000C0
000000C0
0FFFFFC0
3FFFFFC0
700000C0
600000C0
600000C0
C00000C0
C00000C0
C00000C0
C00000C0
C00000C0
C00000C0
C00000C0
C00000C0
C00000C0
C00000C0
C00000C0
C00000C0
C00000C0
C00000C0
C00000C0
C00000C0
C00000C0
600000C0
700000C0
3FFFFFC0
0FFFFFC0
ENDCHAR
STARTCHAR 00E3
ENCODING 227
SWIDTH 500 0
DWIDTH 42 0
BBX 39 70 2 0
BITMAP
0000007000
000000E000
0000018000
0000030000
0000060000
00000C0000
0000180000
0000300000
0000000000
0000000000
0000000000
00003C0000
00003C0000
00002C0000
00006E0000
0000660000
0000660000
0000C60000
0000C30000
0000C30000
0001830000
0001838000
0001818000
0003018000
0003018000
000300C000
000200C000
000600C000
0006006000
0006006000
000C006000
000C007000
000C003000
0018003000
0018003000
0018001800
0030001800
0030001800
0030001C00
0060000C00
0060000C00
0060000E00
0060000600
00C0000600
00C0000600
00C0000300
0180000300
0180000300
0180000380
0300000180
03FFFFFF80
03FFFFFFC0
06000000C0
06000000C0
06000000C0
06000000E0
0C00000060
0C00000060
0C00000070
1800000030
1800000030
1800000030
3000000018
3000000018
3000000018
700000001C
600000000C
600000000C
E00000000E
C000000006
ENDCHAR
STARTCHAR 00E4
ENCODING 228
SWIDTH 464 0
DWIDTH 39 0
BBX 26 59 6 0
BITMAP
03800000
01800000
00C00000
00600000
00300000
00380000
00180000
000C0000
00060000
00030000
00010000
00000000
00000000
00000000
00000000
00000000
00000000
FFFFFC00
FFFFFF00
00000380
00000180
000000C0
000000C0
000000C0
000000C0
000000C0
000000C0
000000C0
000000C0
000000C0
000000C0
000000C0
000000C0
0FFFFFC0
3FFFFFC0
300000C0
600000C0
600000C0
C00000C0
C00000C0
C00000C0
C00000C0
C00000C0
C00000C0
C00000C0
C00000C0
C00000C0
C00000C0
C00000C0
C00000C0
C00000C0
C00000C0
C00000C0
C00000C0
C00000C0
600000C0
700000C0
3FFFFFC0
0FFFFFC0
ENDCHAR
STARTCHAR 00E5
ENCODING 229
SWIDTH 464 0
DWIDTH 39 0
BBX 26 59 6 0
BITMAP
0F8000C0
3FC000C0
306000C0
603000C0
601800C0
C00C00C0
C0060180
C0030180
C001C380
C000FF00
C0003C00
00000000
00000000
00000000
00000000
00000000
00000000
FFFFFC00
FFFFFF00
00000380
00000180
000000C0
000000C0
000000C0
000000C0
000000C0
000000C0
000000C0
000000C0
000000C0
000000C0
000000C0
000000C0
0FFFFFC0
3FFFFFC0
300000C0
600000C0
600000C0
C00000C0
C00000C0
C00000C0
C00000C0
C00000C0
C00000C0
C00000C0
C00000C0
C00000C0
C00000C0
C00000C0
C00000C0
C00000C0
C00000C0
C00000C0
C00000C0
C00000C0
600000C0
700000C0
3FFFFFC0
0FFFFFC0
ENDCHAR
STARTCHAR 00E6
ENCODING 230
SWIDTH 726 0
DWIDTH 61 0
BBX 49 42 6 0
BITMAP
FFFFFC0FFFF800
FFFFFE3FFFFE00
00000330000700
000001E0000300
000000C0000180
000000C0000180
000000C0000180
000000C0000180
000000C0000180
000000C0000180
000000C0000180
000000C0000180
000000C0000180
000000C0000180
000000C0000180
000000C0000180
0FFFFFFFFFFF80
3FFFFFFFFFFF80
300000C0000000
600000C0000000
600000C0000000
C00000C0000000
C00000C0000000
C00000C0000000
C00000C0000000
C00000C0000000
C00000C0000000
C00000C0000000
C00000C0000000
C00000C0000000
C00000C0000000
C00000C0000000
C00000C0000000
C00000C0000000
C00000C0000000
C00000C0000000
C00000C0000000
C00000C0000000
600001E0000000
70000330000000
3FFFFE3FFFFF80
0FFFFC0FFFFF80
ENDCHAR
STARTCHAR 00E7
ENCODING 231
SWIDTH 404 0
DWIDTH 34 0
BBX 24 59 7 0
BITMAP
000E00
000E00
001B00
003180
0061C0
0060C0
00C060
018030
030018
060008
04000C
000000
000000
000000
000000
000000
000000
0FFFFF
3FFFFF
700000
600000
C00000
C00000
C00000
C00000
C00000
C00000
C00000
C00000
C00000
C00000
C00000
C00000
C00000
C00000
C00000
C00000
C00000
C00000
C00000
C00000
C00000
C00000
C00000
C00000
C00000
C00000
C00000
C00000
C00000
C00000
C00000
C00000
C00000
C00000
600000
700000
3FFFFF
0FFFFF
ENDCHAR
STARTCHAR 00E8
ENCODING 232
SWIDTH 452 0
DWIDTH 38 0
BBX 25 59 7 0
BITMAP
03000000
01800000
00C00000
00E00000
00600000
00300000
00180000
000C0000
00060000
00020000
00030000
00000000
00000000
00000000
00000000
00000000
00000000
0FFFF800
3FFFFE00
70000700
60000300
C0000180
C0000180
C0000180
C0000180
C0000180
C0000180
C0000180
C0000180
C0000180
C0000180
C0000180
C0000180
FFFFFF80
FFFFFF80
C0000000
C0000000
C0000000
C0000000
C0000000
C0000000
C0000000
C0000000
C0000000
C0000000
C0000000
C0000000
C0000000
C0000000
C0000000
C0000000
C0000000
C0000000
C0000000
C0000000
60000000
70000000
3FFFFF80
0FFFFF80
ENDCHAR
STARTCHAR 00E9
ENCODING 233
SWIDTH 452 0
DWIDTH 38 0
BBX 25 59 7 0
BITMAP
00007000
00006000
0000C000
00018000
00038000
00030000
00060000
000C0000
00180000
00100000
00300000
00000000
00000000
00000000
00000000
00000000
00000000
0FFFF800
3FFFFE00
70000700
60000300
C0000180
C0000180
C0000180
C0000180
C0000180
C0000180
C0000180
C0000180
C0000180
C0000180
C0000180
C0000180
FFFFFF80
FFFFFF80
C0000000
C0000000
C0000000
C0000000
C0000000
C0000000
C0000000
C0000000
C0000000
C0000000
C0000000
C0000000
C0000000
C0000000
C0000000
C0000000
C0000000
C0000000
C0000000
C0000000
60000000
70000000
3FFFFF80
0FFFFF80
ENDCHAR
STARTCHAR 00EA
ENCODING 234
SWIDTH 452 0
DWIDTH 38 0
BBX 23 59 7 0
BITMAP
001C00
001C00
003600
006300
00C180
00C180
0180C0
030060
060030
0C0018
080008
000000
000000
000000
000000
000000
000000
0FFFE0
3FFFF8
700004
600004
C00002
C00002
C00002
C00002
C00002
C00002
C00002
C00002
C00002
C00002
C00002
C00002
FFFFFE
FFFFFE
C00000
C00000
C00000
C00000
C00000
C00000
C00000
C00000
C00000
C00000
C00000
C00000
C00000
C00000
C00000
C00000
C00000
C00000
C00000
C00000
600000
700000
3FFFFE
0FFFFE
ENDCHAR
STARTCHAR 00EB
ENCODING 235
SWIDTH 452 0
DWIDTH 38 0
BBX 25 55 7 0
BITMAP
0180C000
0180C000
0180C000
00000000
00000000
00000000
00000000
00000000
00000000
00000000
00000000
00000000
00000000
0FFFF800
3FFFFE00
70000700
60000300
C0000180
C0000180
C0000180
C0000180
C0000180
C0000180
C0000180
C0000180
C0000180
C0000180
C0000180
C0000180
FFFFFF80
FFFFFF80
C0000000
C0000000
C0000000
C0000000
C0000000
C0000000
C0000000
C0000000
C0000000
C0000000
C0000000
C0000000
C0000000
C0000000
C0000000
C0000000
C0000000
C0000000
C0000000
C0000000
60000000
70000000
3FFFFF80
0FFFFF80
ENDCHAR
STARTCHAR 00EC
ENCODING 236
SWIDTH 190 0
DWIDTH 16 0
BBX 11 59 -1 0
BITMAP
C000
6000
3000
1800
0C00
0600
0300
0180
0180
00C0
0060
0000
0000
0000
0000
0000
0000
01C0
01C0
01C0
01C0
01C0
01C0
01C0
01C0
01C0
01C0
01C0
01C0
01C0
01C0
01C0
01C0
01C0
01C0
01C0
01C0
01C0
01C0
01C0
01C0
01C0
01C0
01C0
01C0
01C0
01C0
01C0
01C0
01C0
01C0
01C0
01C0
01C0
01C0
01C0
01C0
01C0
01C0
ENDCHAR
STARTCHAR 00ED
ENCODING 237
SWIDTH 190 0
DWIDTH 16 0
BBX 11 59 5 0
BITMAP
00E0
01C0
0180
0300
0600
0C00
1800
1800
3000
6000
C000
0000
0000
0000
0000
0000
0000
3000
3000
3000
3000
3000
3000
3000
3000
3000
3000
3000
3000
3000
3000
3000
3000
3000
3000
3000
3000
3000
3000
3000
3000
3000
3000
3000
3000
3000
3000
3000
3000
3000
3000
3000
3000
3000
3000
3000
3000
3000
3000
ENDCHAR
STARTCHAR 00EE
ENCODING 238
SWIDTH 190 0
DWIDTH 16 0
BBX 18 59 -1 0
BITMAP
00C000
01E000
03F000
033000
061800
0C0C00
180600
100600
300300
600180
C000C0
000000
000000
000000
000000
000000
000000
00C000
00C000
00C000
00C000
00C000
00C000
00C000
00C000
00C000
00C000
00C000
00C000
00C000
00C000
00C000
00C000
00C000
00C000
00C000
00C000
00C000
00C000
00C000
00C000
00C000
00C000
00C000
00C000
00C000
00C000
00C000
00C000
00C000
00C000
00C000
00C000
00C000
00C000
00C000
00C000
00C000
00C000
ENDCHAR
STARTCHAR 00EF
ENCODING 239
SWIDTH 190 0
DWIDTH 16 0
BBX 12 55 2 0
BITMAP
C030
C030
C030
0000
0000
0000
0000
0000
0000
0000
0000
0000
0000
0600
0600
0600
0600
0600
0600
0600
0600
0600
0600
0600
0600
0600
0600
0600
0600
0600
0600
0600
0600
0600
0600
0600
0600
0600
0600
0600
0600
0600
0600
0600
0600
0600
0600
0600
0600
0600
0600
0600
0600
0600
0600
ENDCHAR
STARTCHAR 00F0
ENCODING 240
SWIDTH 511 0
DWIDTH 43 0
BBX 28 59 7 0
BITMAP
70000000
38000000
18000000
0C000000
06010000
03030000
01860000
00DC0000
00780000
00700000
00F80000
018C0000
030E0000
0E070000
04038000
0001C000
0000E000
00007000
00003800
00001C00
00000C00
00000600
00000300
00000180
000000C0
00000060
00000030
0FFFFFF0
3FFFFFF0
30000030
60000030
60000030
C0000030
C0000030
C0000030
C0000030
C0000030
C0000030
C0000030
C0000030
C0000030
C0000030
C0000030
C0000030
C0000030
C0000030
C0000030
C0000030
C0000030
C0000030
C0000030
C0000030
C0000030
C0000030
E0000030
60000060
700000E0
3FFFFFC0
0FFFFF00
ENDCHAR
STARTCHAR 00F1
ENCODING 241
SWIDTH 476 0
DWIDTH 40 0
BBX 26 59 7 0
BITMAP
0F0000C0
3FC000C0
706000C0
603000C0
601800C0
C00C00C0
C0060180
C0030180
C001C380
C000FF00
C0003C00
00000000
00000000
00000000
00000000
00000000
00000000
FFFFFC00
FFFFFF00
C0000380
C0000180
C00000C0
C00000C0
C00000C0
C00000C0
C00000C0
C00000C0
C00000C0
C00000C0
C00000C0
C00000C0
C00000C0
C00000C0
C00000C0
C00000C0
C00000C0
C00000C0
C00000C0
C00000C0
C00000C0
C00000C0
C00000C0
C00000C0
C00000C0
C00000C0
C00000C0
C00000C0
C00000C0
C00000C0
C00000C0
C00000C0
C00000C0
C00000C0
C00000C0
C00000C0
C00000C0
C00000C0
C00000C0
C00000C0
ENDCHAR
STARTCHAR 00F2
ENCODING 242
SWIDTH 476 0
DWIDTH 40 0
BBX 26 59 7 0
BITMAP
01800000
01C00000
00E00000
00700000
00300000
00180000
000C0000
00060000
00060000
00030000
00018000
00000000
00000000
00000000
00000000
00000000
00000000
0FFFFC00
3FFFFF00
70000380
60000180
C00000C0
C00000C0
C00000C0
C00000C0
C00000C0
C00000C0
C00000C0
C00000C0
C00000C0
C00000C0
C00000C0
C00000C0
C00000C0
C00000C0
C00000C0
C00000C0
C00000C0
C00000C0
C00000C0
C00000C0
C00000C0
C00000C0
C00000C0
C00000C0
C00000C0
C00000C0
C00000C0
C00000C0
C00000C0
C00000C0
C00000C0
C00000C0
C00000C0
C00000C0
60000180
70000380
3FFFFF00
0FFFFC00
ENDCHAR
STARTCHAR 00F3
ENCODING 243
SWIDTH 476 0
DWIDTH 40 0
BBX 26 59 7 0
BITMAP
00003800
00007000
00006000
0000C000
00018000
00030000
00060000
00060000
000C0000
00180000
00300000
00000000
00000000
00000000
00000000
00000000
00000000
0FFFFC00
3FFFFF00
70000380
60000180
C00000C0
C00000C0
C00000C0
C00000C0
C00000C0
C00000C0
C00000C0
C00000C0
C00000C0
C00000C0
C00000C0
C00000C0
C00000C0
C00000C0
C00000C0
C00000C0
C00000C0
C00000C0
C00000C0
C00000C0
C00000C0
C00000C0
C00000C0
C00000C0
C00000C0
C00000C0
C00000C0
C00000C0
C00000C0
C00000C0
C00000C0
C00000C0
C00000C0
C00000C0
60000180
70000380
3FFFFF00
0FFFFC00
ENDCHAR
STARTCHAR 00F4
ENCODING 244
SWIDTH 476 0
DWIDTH 40 0
BBX 26 59 7 0
BITMAP
000C0000
001E0000
003F0000
00330000
00618000
00C0C000
01806000
01006000
03003000
06001800
0C000C00
00000000
00000000
00000000
00000000
00000000
00000000
0FFFFC00
3FFFFF00
70000380
60000180
C00000C0
C00000C0
C00000C0
C00000C0
C00000C0
C00000C0
C00000C0
C00000C0
C00000C0
C00000C0
C00000C0
C00000C0
C00000C0
C00000C0
C00000C0
C00000C0
C00000C0
C00000C0
C00000C0
C00000C0
C00000C0
C00000C0
C00000C0
C00000C0
C00000C0
C00000C0
C00000C0
C00000C0
C00000C0
C00000C0
C00000C0
C00000C0
C00000C0
C00000C0
60000180
70000380
3FFFFF00
0FFFFC00
ENDCHAR
STARTCHAR 00F5
ENCODING 245
SWIDTH 476 0
DWIDTH 40 0
BBX 26 59 7 0
BITMAP
0F0000C0
3FC000C0
706000C0
603000C0
601800C0
C00C00C0
C0060180
C0030180
C001C380
C000FF00
C0003C00
00000000
00000000
00000000
00000000
00000000
00000000
0FFFFC00
3FFFFF00
70000380
60000180
C00000C0
C00000C0
C00000C0
C00000C0
C00000C0
C00000C0
C00000C0
C00000C0
C00000C0
C00000C0
C00000C0
C00000C0
C00000C0
C00000C0
C00000C0
C00000C0
C00000C0
C00000C0
C00000C0
C00000C0
C00000C0
C00000C0
C00000C0
C00000C0
C00000C0
C00000C0
C00000C0
C00000C0
C00000C0
C00000C0
C00000C0
C00000C0
C00000C0
C00000C0
60000180
70000380
3FFFFF00
0FFFFC00
ENDCHAR
STARTCHAR 00F6
ENCODING 246
SWIDTH 476 0
DWIDTH 40 0
BBX 26 55 7 0
BITMAP
01806000
01806000
01806000
00000000
00000000
00000000
00000000
00000000
00000000
00000000
00000000
00000000
00000000
0FFFFC00
3FFFFF00
70000380
60000180
C00000C0
C00000C0
C00000C0
C00000C0
C00000C0
C00000C0
C00000C0
C00000C0
C00000C0
C00000C0
C00000C0
C00000C0
C00000C0
C00000C0
C00000C0
C00000C0
C00000C0
C00000C0
C00000C0
C00000C0
C00000C0
C00000C0
C00000C0
C00000C0
C00000C0
C00000C0
C00000C0
C00000C0
C00000C0
C00000C0
C00000C0
C00000C0
C00000C0
C00000C0
60000180
70000380
3FFFFF00
0FFFFC00
ENDCHAR
STARTCHAR 00F7
ENCODING 247
SWIDTH 452 0
DWIDTH 38 0
BBX 30 30 4 10
BITMAP
00070000
00070000
00070000
00000000
00000000
00000000
00000000
00000000
00000000
00000000
00000000
00000000
00000000
00000000
FFFFFFFC
FFFFFFFC
00000000
00000000
00000000
00000000
00000000
00000000
00000000
00000000
00000000
00000000
00000000
00070000
00070000
00070000
ENDCHAR
STARTCHAR 00F8
ENCODING 248
SWIDTH 476 0
DWIDTH 40 0
BBX 34 42 3 0
BITMAP
00FFFFC0C0
03FFFFF180
0700003980
0600001B00
0C00000E00
0C00000C00
0C00000C00
0C00001C00
0C00003C00
0C00006C00
0C0000CC00
0C0000CC00
0C00018C00
0C00030C00
0C00060C00
0C000C0C00
0C000C0C00
0C00180C00
0C00300C00
0C00600C00
0C00C00C00
0C00C00C00
0C01800C00
0C03000C00
0C06000C00
0C0C000C00
0C0C000C00
0C18000C00
0C30000C00
0C60000C00
0CC0000C00
0CC0000C00
0D80000C00
0F00000C00
0E00000C00
0C00000C00
0C00000C00
1C00000C00
3600001800
6700003800
63FFFFF000
C0FFFFC000
ENDCHAR
STARTCHAR 00F9
ENCODING 249
SWIDTH 476 0
DWIDTH 40 0
BBX 26 59 7 0
BITMAP
03800000
01800000
00C00000
00600000
00300000
00380000
00180000
000C0000
00060000
00030000
00010000
00000000
00000000
00000000
00000000
00000000
00000000
C00000C0
C00000C0
C00000C0
C00000C0
C00000C0
C00000C0
C00000C0
C00000C0
C00000C0
C00000C0
C00000C0
C00000C0
C00000C0
C00000C0
C00000C0
C00000C0
C00000C0
C00000C0
C00000C0
C00000C0
C00000C0
C00000C0
C00000C0
C00000C0
C00000C0
C00000C0
C00000C0
C00000C0
C00000C0
C00000C0
C00000C0
C00000C0
C00000C0
C00000C0
C00000C0
C00000C0
C00000C0
C00000C0
600000C0
700000C0
3FFFFFC0
0FFFFFC0
ENDCHAR
STARTCHAR 00FA
ENCODING 250
SWIDTH 476 0
DWIDTH 40 0
BBX 26 59 7 0
BITMAP
00003000
00006000
0000E000
0001C000
00018000
00030000
00060000
000C0000
00080000
00180000
00300000
00000000
00000000
00000000
00000000
00000000
00000000
C00000C0
C00000C0
C00000C0
C00000C0
C00000C0
C00000C0
C00000C0
C00000C0
C00000C0
C00000C0
C00000C0
C00000C0
C00000C0
C00000C0
C00000C0
C00000C0
C00000C0
C00000C0
C00000C0
C00000C0
C00000C0
C00000C0
C00000C0
C00000C0
C00000C0
C00000C0
C00000C0
C00000C0
C00000C0
C00000C0
C00000C0
C00000C0
C00000C0
C00000C0
C00000C0
C00000C0
C00000C0
C00000C0
600000C0
700000C0
3FFFFFC0
0FFFFFC0
ENDCHAR
STARTCHAR 00FB
ENCODING 251
SWIDTH 476 0
DWIDTH 40 0
BBX 26 59 7 0
BITMAP
000C0000
001E0000
003F0000
00330000
00618000
00C0C000
01806000
01006000
03003000
06001800
0C000C00
00000000
00000000
00000000
00000000
00000000
00000000
C00000C0
C00000C0
C00000C0
C00000C0
C00000C0
C00000C0
C00000C0
C00000C0
C00000C0
C00000C0
C00000C0
C00000C0
C00000C0
C00000C0
C00000C0
C00000C0
C00000C0
C00000C0
C00000C0
C00000C0
C00000C0
C00000C0
C00000C0
C00000C0
C00000C0
C00000C0
C00000C0
C00000C0
C00000C0
C00000C0
C00000C0
C00000C0
C00000C0
C00000C0
C00000C0
C00000C0
C00000C0
C00000C0
600000C0
700000C0
3FFFFFC0
0FFFFFC0
ENDCHAR
STARTCHAR 00FC
ENCODING 252
SWIDTH 476 0
DWIDTH 40 0
BBX 26 55 7 0
BITMAP
01806000
01806000
01806000
00000000
00000000
00000000
00000000
00000000
00000000
00000000
00000000
00000000
00000000
C00000C0
C00000C0
C00000C0
C00000C0
C00000C0
C00000C0
C00000C0
C00000C0
C00000C0
C00000C0
C00000C0
C00000C0
C00000C0
C00000C0
C00000C0
C00000C0
C00000C0
C00000C0
C00000C0
C00000C0
C00000C0
C00000C0
C00000C0
C00000C0
C00000C0
C00000C0
C00000C0
C00000C0
C00000C0
C00000C0
C00000C0
C00000C0
C00000C0
C00000C0
C00000C0
C00000C0
C00000C0
C00000C0
600000C0
700000C0
3FFFFFC0
0FFFFFC0
ENDCHAR
STARTCHAR 00FD
ENCODING 253
SWIDTH 392 0
DWIDTH 33 0
BBX 30 76 2 -17
BITMAP
00078000
00070000
00040000
00080000
00180000
00780000
01F80000
03F80000
0FF80000
3FF80000
7FF80000
00000000
00000000
00000000
00000000
00000000
00000000
C000003C
C000007C
C00000F8
C00000F8
400001F8
400001F0
400003F0
400007F0
400007E0
40000FE0
40001FE0
40001FC0
40003FC0
40003FC0
40007F80
4000FF80
4000FF80
4001FF00
2001FF00
2003FF00
2007FE00
2007FE00
200FFE00
200FFC00
201FFC00
703FFC00
703FF800
707FF800
70FFF800
70FFF000
71FFF000
71FFF000
7BFFE000
7FFFE000
7FFFE000
77FFE000
77FFC000
67FFC000
47FFC000
47FF8000
03FF8000
03FF8000
FFFF0000
7FFF0000
7FFF0000
3FFE0000
3FFE0000
1FFE0000
1FFC0000
0FFC0000
0FFC0000
07F80000
07F80000
03F80000
01F00000
01F00000
00F00000
00E00000
00600000
ENDCHAR
STARTCHAR 00FF
ENCODING 255
SWIDTH 392 0
DWIDTH 33 0
BBX 30 71 2 -17
BITMAP
00601800
00601800
00601800
00000000
00000000
00000000
00000000
00000000
00000000
00000000
00000000
00000000
00000000
C000000C
60000018
60000018
60000018
30000030
30000030
30000030
18000060
18000060
18000060
0C0000C0
0C0000C0
0C0000C0
0E000080
06000180
06000180
07000100
03000300
03000300
03000200
01800600
01800600
01800400
00C00C00
00C00C00
00C00C00
00601800
00601800
00601800
00303000
00303000
00303000
00182000
00186000
00186000
000C4000
000CC000
000CC000
00068000
00078000
00078000
00030000
00030000
00030000
00060000
00060000
00060000
000C0000
000C0000
000C0000
00180000
00180000
00180000
00300000
00300000
00300000
00600000
00600000
ENDCHAR
STARTCHAR 0100
ENCODING 256
SWIDTH 500 0
DWIDTH 42 0
BBX 39 76 2 -16
BITMAP
0000380000
00003C0000
00006C0000
00006C0000
00004C0000
0000C60000
0000C60000
0000C60000
0001870000
0001830000
0001830000
0001030000
0003018000
0003018000
0002018000
000600C000
000600C000
000600C000
0004006000
000C006000
000C006000
0008006000
0018003000
0018003000
0018003000
0030001800
0030001800
0030001800
0020000800
0060000C00
0060000C00
0040000C00
00C0000600
00C0000600
00C0000600
0180000300
0180000300
0180000300
0100000100
03FFFFFF80
03FFFFFF80
0200000180
06000000C0
06000000C0
06000000C0
04000000C0
0C00000060
0C00000060
0C00000060
1800000030
1800000030
1800000030
3800000038
3000000018
3000000018
3000000018
600000000C
600000000C
600000000C
E00000000E
C000000006
0000000018
00000000E0
0000000380
0000000E00
0000001C00
0000001800
0000003000
0000003000
0000003000
0000003000
0000003000
0000003000
0000001800
0000000FFE
00000007FE
ENDCHAR
STARTCHAR 0101
ENCODING 257
SWIDTH 464 0
DWIDTH 39 0
BBX 26 59 6 -17
BITMAP
FFFFFC00
FFFFFF00
00000380
00000180
000000C0
000000C0
000000C0
000000C0
000000C0
000000C0
000000C0
000000C0
000000C0
000000C0
000000C0
000000C0
0FFFFFC0
1FFFFFC0
300000C0
600000C0
600000C0
C00000C0
C00000C0
C00000C0
C00000C0
C00000C0
C00000C0
C00000C0
C00000C0
C00000C0
C00000C0
C00000C0
C00000C0
C00000C0
C00000C0
C00000C0
C00000C0
C00000C0
C00000C0
600000C0
600000C0
380000C0
1FFFFFC0
07FFFFC0
00000300
00000C00
00007000
0000C000
00018000
00030000
00060000
00060000
00060000
00060000
00060000
00030000
00030000
0001FFC0
00007FC0
ENDCHAR
STARTCHAR 0102
ENCODING 258
SWIDTH 500 0
DWIDTH 42 0
BBX 39 70 2 0
BITMAP
0000300000
0000780000
0000CC0000
0001860000
0003030000
0006018000
000C00C000
0010002000
0000000000
0000000000
0000000000
0000380000
0000780000
00006C0000
00006C0000
0000CC0000
0000CE0000
0000C60000
0000C60000
0001870000
0001830000
0001830000
0003038000
0003018000
0003018000
0006018000
000600C000
000600C000
000600C000
000C00E000
000C006000
000C006000
0018007000
0018003000
0018003000
0030003000
0030001800
0030001800
0030001800
0060001C00
0060000C00
0060000C00
00C0000E00
00C0000600
00C0000600
01C0000700
0180000300
0180000300
0180000300
0300000380
03FFFFFF80
03FFFFFF80
06000001C0
06000000C0
06000000C0
0E000000E0
0C000000E0
0C00000060
1C00000070
1800000070
1800000030
1800000030
3000000038
3000000018
3000000018
700000001C
600000000C
600000000C
E00000000E
C00000000E
ENDCHAR
STARTCHAR 0103
ENCODING 259
SWIDTH 464 0
DWIDTH 39 0
BBX 26 59 6 0
BITMAP
000C0000
001E0000
003F0000
00330000
00618000
00C0C000
01806000
01006000
03003000
06001800
0C000C00
00000000
00000000
00000000
00000000
00000000
00000000
FFFFFC00
FFFFFF00
00000380
00000180
000000C0
000000C0
000000C0
000000C0
000000C0
000000C0
000000C0
000000C0
000000C0
000000C0
000000C0
000000C0
0FFFFFC0
3FFFFFC0
700000C0
600000C0
600000C0
C00000C0
C00000C0
C00000C0
C00000C0
C00000C0
C00000C0
C00000C0
C00000C0
C00000C0
C00000C0
C00000C0
C00000C0
C00000C0
C00000C0
C00000C0
C00000C0
C00000C0
600000C0
700000C0
3FFFFFC0
0FFFFFC0
ENDCHAR
STARTCHAR 0104
ENCODING 260
SWIDTH 500 0
DWIDTH 42 0
BBX 39 71 2 0
BITMAP
0001FF0000
0007FFC000
000C006000
0018003000
0018003000
0018003000
0018003000
000C007000
000FFFE000
0003FF8000
0000000000
0000000000
0000380000
00003C0000
00006C0000
00006C0000
00006E0000
0000C60000
0000C60000
0000C60000
0000830000
0001830000
0001830000
0001818000
0003018000
0003018000
000301C000
000600C000
000600C000
000600C000
000C006000
000C006000
000C006000
0008003000
0018003000
0018003000
0018003800
0030001800
0030001800
0030001C00
0060000C00
0060000C00
0060000C00
00C0000600
00C0000600
00C0000600
00C0000700
0180000300
0180000300
0180000380
0300000180
03FFFFFF80
03FFFFFF80
06000001C0
06000000C0
06000000C0
0E000000E0
0C00000060
0C00000060
0C00000070
1800000030
1800000030
1800000030
3000000038
3000000018
3000000018
700000001C
600000000C
600000000C
E00000000E
C000000006
ENDCHAR
STARTCHAR 0105
ENCODING 261
SWIDTH 464 0
DWIDTH 39 0
BBX 26 61 6 0
BITMAP
01FFE000
03FFF000
07003800
0E001C00
0C000C00
0C000C00
0C000C00
0C000C00
0C000C00
0E000C00
07001800
03FFF000
01FFE000
00000000
00000000
00000000
00000000
00000000
00000000
FFFFFC00
FFFFFF00
00000380
00000180
000000C0
000000C0
000000C0
000000C0
000000C0
000000C0
000000C0
000000C0
000000C0
000000C0
000000C0
000000C0
0FFFFFC0
3FFFFFC0
700000C0
600000C0
600000C0
C00000C0
C00000C0
C00000C0
C00000C0
C00000C0
C00000C0
C00000C0
C00000C0
C00000C0
C00000C0
C00000C0
C00000C0
C00000C0
C00000C0
C00000C0
C00000C0
C00000C0
600000C0
700000C0
3FFFFFC0
0FFFFFC0
ENDCHAR
STARTCHAR 0106
ENCODING 262
SWIDTH 488 0
DWIDTH 41 0
BBX 28 70 7 0
BITMAP
00C00040
00600180
00300300
001C0600
000E0C00
00071800
0001F000
0000E000
00000000
00000000
00000000
0FFFFFF0
3FFFFFF0
70000000
60000000
C0000000
C0000000
C0000000
C0000000
C0000000
C0000000
C0000000
C0000000
C0000000
C0000000
C0000000
C0000000
C0000000
C0000000
C0000000
C0000000
C0000000
C0000000
C0000000
C0000000
C0000000
C0000000
C0000000
C0000000
C0000000
C0000000
C0000000
C0000000
C0000000
C0000000
C0000000
C0000000
C0000000
C0000000
C0000000
C0000000
C0000000
C0000000
C0000000
C0000000
C0000000
C0000000
C0000000
C0000000
C0000000
C0000000
C0000000
C0000000
C0000000
C0000000
E0000000
60000000
70000000
3FFFFFF0
0FFFFFF0
ENDCHAR
STARTCHAR 0107
ENCODING 263
SWIDTH 404 0
DWIDTH 34 0
BBX 22 59 7 0
BITMAP
0C000C
060018
030030
010020
018060
00C0C0
006180
003300
003F00
001E00
000C00
000000
000000
000000
000000
000000
000000
0FFFFC
3FFFFC
700000
600000
C00000
C00000
C00000
C00000
C00000
C00000
C00000
C00000
C00000
C00000
C00000
C00000
C00000
C00000
C00000
C00000
C00000
C00000
C00000
C00000
C00000
C00000
C00000
C00000
C00000
C00000
C00000
C00000
C00000
C00000
C00000
C00000
C00000
C00000
600000
700000
3FFFFC
0FFFFC
ENDCHAR
STARTCHAR 0108
ENCODING 264
SWIDTH 488 0
DWIDTH 41 0
BBX 29 66 7 0
BITMAP
00018000
00018000
00000000
00000000
00000000
00000000
00000000
0FFFFFF8
3FFFFFF8
70000000
60000000
60000000
C0000000
C0000000
C0000000
C0000000
C0000000
C0000000
C0000000
C0000000
C0000000
C0000000
C0000000
C0000000
C0000000
C0000000
C0000000
C0000000
C0000000
C0000000
C0000000
C0000000
C0000000
C0000000
C0000000
C0000000
C0000000
C0000000
C0000000
C0000000
C0000000
C0000000
C0000000
C0000000
C0000000
C0000000
C0000000
C0000000
C0000000
C0000000
C0000000
C0000000
C0000000
C0000000
C0000000
C0000000
C0000000
C0000000
C0000000
C0000000
C0000000
E0000000
60000000
70000000
3FFFFFF8
0FFFFFF8
ENDCHAR
STARTCHAR 0109
ENCODING 265
SWIDTH 404 0
DWIDTH 34 0
BBX 22 52 7 0
BITMAP
001800
001800
001800
000000
000000
000000
000000
000000
000000
000000
0FFFFC
3FFFFC
700000
600000
C00000
C00000
C00000
C00000
C00000
C00000
C00000
C00000
C00000
C00000
C00000
C00000
C00000
C00000
C00000
C00000
C00000
C00000
C00000
C00000
C00000
C00000
C00000
C00000
C00000
C00000
C00000
C00000
C00000
C00000
C00000
C00000
C00000
C00000
600000
700000
3FFFFC
0FFFFC
ENDCHAR
STARTCHAR 010A
ENCODING 266
SWIDTH 547 0
DWIDTH 46 0
BBX 32 70 7 0
BITMAP
01000180
00C00300
00600600
00300C00
00181800
000E7000
0007E000
0003C000
00000000
00000000
00000000
FFFFFFF0
FFFFFFFC
C000000E
C0000006
C0000007
C0000003
C0000003
C0000003
C0000003
C0000003
C0000003
C0000003
C0000003
C0000003
C0000003
C0000003
C0000003
C0000003
C0000003
C0000003
C0000003
C0000003
C0000003
C0000003
C0000003
C0000003
C0000003
C0000003
C0000003
C0000003
C0000003
C0000003
C0000003
C0000003
C0000003
C0000003
C0000003
C0000003
C0000003
C0000003
C0000003
C0000003
C0000003
C0000003
C0000003
C0000003
C0000003
C0000003
C0000003
C0000003
C0000003
C0000003
C0000003
C0000003
C0000003
C0000006
C000000E
FFFFFFFC
FFFFFFF0
ENDCHAR
STARTCHAR 010B
ENCODING 267
SWIDTH 488 0
DWIDTH 41 0
BBX 30 70 7 0
BITMAP
00000380
00000700
00000E00
00001800
00003000
00006000
0000C000
00018000
00000000
00000000
00000000
0FFFFFFC
1FFFFFFC
30000000
60000000
60000000
C0000000
C0000000
C0000000
C0000000
C0000000
C0000000
C0000000
C0000000
C0000000
C0000000
C0000000
C0000000
C0000000
C0000000
C0000000
C0000000
C0000000
C0000000
C0000000
C0000000
C0000000
C0000000
C0000000
C0000000
C0000000
C0000000
C0000000
C0000000
C0000000
C0000000
C0000000
C0000000
C0000000
C0000000
C0000000
C0000000
C0000000
C0000000
C0000000
C0000000
C0000000
C0000000
C0000000
C0000000
C0000000
C0000000
C0000000
C0000000
C0000000
E0000000
60000000
70000000
3FFFFFFC
0FFFFFFC
ENDCHAR
STARTCHAR 010C
ENCODING 268
SWIDTH 488 0
DWIDTH 41 0
BBX 31 76 7 -17
BITMAP
0FFFFFFE
1FFFFFFE
30000000
60000000
60000000
C0000000
C0000000
C0000000
C0000000
C0000000
C0000000
C0000000
C0000000
C0000000
C0000000
C0000000
C0000000
C0000000
C0000000
C0000000
C0000000
C0000000
C0000000
C0000000
C0000000
C0000000
C0000000
C0000000
C0000000
C0000000
C0000000
C0000000
C0000000
C0000000
C0000000
C0000000
C0000000
C0000000
C0000000
C0000000
C0000000
C0000000
C0000000
C0000000
C0000000
C0000000
C0000000
C0000000
C0000000
C0000000
C0000000
C0000000
C0000000
C0000000
E0000000
60000000
70000000
3FFFFFFE
0FFFFFFE
0000C000
0000C000
00008000
0001FC00
0001FF00
00000380
00000180
000000C0
000000C0
000000C0
000000C0
000000C0
000000C0
00000080
00000180
001FFF00
001FFC00
ENDCHAR
STARTCHAR 010D
ENCODING 269
SWIDTH 404 0
DWIDTH 34 0
BBX 23 59 7 -17
BITMAP
0FFFFE
3FFFFE
700000
600000
C00000
C00000
C00000
C00000
C00000
C00000
C00000
C00000
C00000
C00000
C00000
C00000
C00000
C00000
C00000
C00000
C00000
C00000
C00000
C00000
C00000
C00000
C00000
C00000
C00000
C00000
C00000
C00000
C00000
C00000
C00000
C00000
C00000
C00000
600000
700000
3FFFFE
0FFFFE
001800
001000
003000
003F00
003FC0
0000E0
000060
000030
000030
000030
000030
000030
000030
000020
000060
03FFC0
03FF80
ENDCHAR
STARTCHAR 010E
ENCODING 270
SWIDTH 547 0
DWIDTH 46 0
BBX 32 67 7 0
BITMAP
01FFFE00
01FFFE00
00000000
00000000
00000000
00000000
00000000
00000000
FFFFFFF0
FFFFFFFC
C000000E
C0000006
C0000007
C0000003
C0000003
C0000003
C0000003
C0000003
C0000003
C0000003
C0000003
C0000003
C0000003
C0000003
C0000003
C0000003
C0000003
C0000003
C0000003
C0000003
C0000003
C0000003
C0000003
C0000003
C0000003
C0000003
C0000003
C0000003
C0000003
C0000003
C0000003
C0000003
C0000003
C0000003
C0000003
C0000003
C0000003
C0000003
C0000003
C0000003
C0000003
C0000003
C0000003
C0000003
C0000003
C0000003
C0000003
C0000003
C0000003
C0000003
C0000003
C0000003
C0000003
C0000006
C000000E
FFFFFFFC
FFFFFFF0
ENDCHAR
STARTCHAR 010F
ENCODING 271
SWIDTH 476 0
DWIDTH 40 0
BBX 30 59 7 1
BITMAP
000000C0
000000C0
000000C0
000000C0
000000C0
0003FFFC
0003FFFC
000000C0
000000C0
000000C0
000000C0
000000C0
000000C0
000000C0
000000C0
000000C0
000000C0
0FFFFFC0
3FFFFFC0
700000C0
600000C0
C00000C0
C00000C0
C00000C0
C00000C0
C00000C0
C00000C0
C00000C0
C00000C0
C00000C0
C00000C0
C00000C0
C00000C0
C00000C0
C00000C0
C00000C0
C00000C0
C00000C0
C00000C0
C00000C0
C00000C0
C00000C0
C00000C0
C00000C0
C00000C0
C00000C0
C00000C0
C00000C0
C00000C0
C00000C0
C00000C0
C00000C0
C00000C0
C00000C0
C00000C0
600000C0
700000C0
3FFFFFC0
0FFFFFC0
ENDCHAR
STARTCHAR 0111
ENCODING 273
SWIDTH 476 0
DWIDTH 40 0
BBX 26 59 7 1
BITMAP
000000C0
000000C0
000000C0
000000C0
000000C0
0FFFF0C0
0FFFF0C0
000000C0
000000C0
000000C0
000000C0
000000C0
000000C0
000000C0
000000C0
000000C0
000000C0
0FFFFFC0
3FFFFFC0
700000C0
600000C0
C00000C0
C00000C0
C00000C0
C00000C0
C00000C0
C00000C0
C00000C0
C00000C0
C00000C0
C00000C0
C00000C0
C00000C0
C00000C0
C00000C0
C00000C0
C00000C0
C00000C0
C00000C0
C00000C0
C00000C0
C00000C0
C00000C0
C00000C0
C00000C0
C00000C0
C00000C0
C00000C0
C00000C0
C00000C0
C00000C0
C00000C0
C00000C0
C00000C0
C00000C0
600000C0
700000C0
3FFFFFC0
0FFFFFC0
ENDCHAR
STARTCHAR 0112
ENCODING 274
SWIDTH 476 0
DWIDTH 40 0
BBX 30 67 7 0
BITMAP
00FFFF00
00FFFF00
00000000
00000000
00000000
00000000
00000000
00000000
FFFFFFF0
FFFFFFF0
C0000000
C0000000
C0000000
C0000000
C0000000
C0000000
C0000000
C0000000
C0000000
C0000000
C0000000
C0000000
C0000000
C0000000
C0000000
C0000000
C0000000
C0000000
C0000000
C0000000
C0000000
C0000000
C0000000
C0000000
C0000000
FFFFFF00
FFFFFF00
C0000000
C0000000
C0000000
C0000000
C0000000
C0000000
C0000000
C0000000
C0000000
C0000000
C0000000
C0000000
C0000000
C0000000
C0000000
C0000000
C0000000
C0000000
C0000000
C0000000
C0000000
C0000000
C0000000
C0000000
C0000000
C0000000
C0000000
C0000000
FFFFFFFC
FFFFFFFC
ENDCHAR
STARTCHAR 0113
ENCODING 275
SWIDTH 452 0
DWIDTH 38 0
BBX 25 54 7 0
BITMAP
07FFF800
07FFF800
00000000
00000000
00000000
00000000
00000000
00000000
00000000
00000000
00000000
00000000
0FFFF800
3FFFFE00
70000700
60000300
C0000180
C0000180
C0000180
C0000180
C0000180
C0000180
C0000180
C0000180
C0000180
C0000180
C0000180
C0000180
FFFFFF80
FFFFFF80
C0000000
C0000000
C0000000
C0000000
C0000000
C0000000
C0000000
C0000000
C0000000
C0000000
C0000000
C0000000
C0000000
C0000000
C0000000
C0000000
C0000000
C0000000
C0000000
C0000000
60000000
70000000
3FFFF800
0FFFF800
ENDCHAR
STARTCHAR 0114
ENCODING 276
SWIDTH 476 0
DWIDTH 40 0
BBX 32 70 7 1
BITMAP
01800080
01800080
01800080
01800180
00C00100
00E00300
007FFE00
003FF800
00000000
00000000
00000000
FFFFFFFE
FFFFFFFE
C0000000
C0000000
C0000000
C0000000
C0000000
C0000000
C0000000
C0000000
C0000000
C0000000
C0000000
C0000000
C0000000
C0000000
C0000000
C0000000
C0000000
C0000000
C0000000
C0000000
C0000000
C0000000
C0000000
C0000000
C0000000
FFFFFFC0
FFFFFFC0
C0000000
C0000000
C0000000
C0000000
C0000000
C0000000
C0000000
C0000000
C0000000
C0000000
C0000000
C0000000
C0000000
C0000000
C0000000
C0000000
C0000000
C0000000
C0000000
C0000000
C0000000
C0000000
C0000000
C0000000
C0000000
C0000000
C0000000
C0000000
FFFFFFFF
FFFFFFFF
ENDCHAR
STARTCHAR 0115
ENCODING 277
SWIDTH 452 0
DWIDTH 38 0
BBX 25 59 7 0
BITMAP
0C000800
0C000800
0C000800
0C000800
0C001800
0C001800
06003000
07007000
03FFE000
00FF8000
00000000
00000000
00000000
00000000
00000000
00000000
00000000
0FFFF800
3FFFFE00
70000700
60000300
C0000180
C0000180
C0000180
C0000180
C0000180
C0000180
C0000180
C0000180
C0000180
C0000180
C0000180
C0000180
FFFFFF80
FFFFFF80
C0000000
C0000000
C0000000
C0000000
C0000000
C0000000
C0000000
C0000000
C0000000
C0000000
C0000000
C0000000
C0000000
C0000000
C0000000
C0000000
C0000000
C0000000
C0000000
C0000000
60000000
70000000
3FFFFF80
0FFFFF80
ENDCHAR
STARTCHAR 0116
ENCODING 278
SWIDTH 476 0
DWIDTH 40 0
BBX 31 66 7 0
BITMAP
00018000
00018000
00000000
00000000
00000000
00000000
00000000
FFFFFFF8
FFFFFFF8
C0000000
C0000000
C0000000
C0000000
C0000000
C0000000
C0000000
C0000000
C0000000
C0000000
C0000000
C0000000
C0000000
C0000000
C0000000
C0000000
C0000000
C0000000
C0000000
C0000000
C0000000
C0000000
C0000000
C0000000
C0000000
FFFFFF80
FFFFFF80
C0000000
C0000000
C0000000
C0000000
C0000000
C0000000
C0000000
C0000000
C0000000
C0000000
C0000000
C0000000
C0000000
C0000000
C0000000
C0000000
C0000000
C0000000
C0000000
C0000000
C0000000
C0000000
C0000000
C0000000
C0000000
C0000000
C0000000
C0000000
FFFFFFFE
FFFFFFFE
ENDCHAR
STARTCHAR 0117
ENCODING 279
SWIDTH 452 0
DWIDTH 38 0
BBX 25 52 7 0
BITMAP
000C0000
000C0000
000C0000
00000000
00000000
00000000
00000000
00000000
00000000
00000000
0FFFF800
3FFFFE00
70000700
60000300
C0000180
C0000180
C0000180
C0000180
C0000180
C0000180
C0000180
C0000180
C0000180
C0000180
C0000180
C0000180
FFFFFF80
FFFFFF80
C0000000
C0000000
C0000000
C0000000
C0000000
C0000000
C0000000
C0000000
C0000000
C0000000
C0000000
C0000000
C0000000
C0000000
C0000000
C0000000
C0000000
C0000000
C0000000
C0000000
60000000
70000000
3FFFFF80
0FFFFF80
ENDCHAR
STARTCHAR 0118
ENCODING 280
SWIDTH 476 0
DWIDTH 40 0
BBX 30 76 7 -17
BITMAP
FFFFFFF0
FFFFFFF0
C0000000
C0000000
C0000000
C0000000
C0000000
C0000000
C0000000
C0000000
C0000000
C0000000
C0000000
C0000000
C0000000
C0000000
C0000000
C0000000
C0000000
C0000000
C0000000
C0000000
C0000000
C0000000
C0000000
C0000000
C0000000
FFFFFF00
FFFFFF00
C0000000
C0000000
C0000000
C0000000
C0000000
C0000000
C0000000
C0000000
C0000000
C0000000
C0000000
C0000000
C0000000
C0000000
C0000000
C0000000
C0000000
C0000000
C0000000
C0000000
C0000000
C0000000
C0000000
C0000000
C0000000
C0000000
C0000000
C0000000
C0000000
C0000000
FFFFFFFC
FFFFFFFC
000000C0
00000700
00001C00
00007000
0000E000
0000C000
00018000
00018000
00018000
00018000
00018000
00018000
0000C000
0000FFE0
00003FE0
ENDCHAR
STARTCHAR 0119
ENCODING 281
SWIDTH 452 0
DWIDTH 38 0
BBX 25 59 7 -17
BITMAP
0FFFF800
3FFFFE00
70000700
60000300
C0000180
C0000180
C0000180
C0000180
C0000180
C0000180
C0000180
C0000180
C0000180
C0000180
C0000180
C0000180
FFFFFF80
FFFFFF80
C0000000
C0000000
C0000000
C0000000
C0000000
C0000000
C0000000
C0000000
C0000000
C0000000
C0000000
C0000000
C0000000
C0000000
C0000000
C0000000
C0000000
C0000000
C0000000
C0000000
C0000000
E0000000
60000000
78000000
3FFFFF80
0FFFFF80
00000800
00007000
00038000
001C0000
00300000
00600000
00C00000
00C00000
00C00000
00C00000
00C00000
00600000
00700000
003FFF80
000FFF80
ENDCHAR
STARTCHAR 011A
ENCODING 282
SWIDTH 476 0
DWIDTH 40 0
BBX 31 70 7 0
BITMAP
03000100
01800600
00C00C00
00601800
00383000
001CE000
000FC000
00078000
00000000
00000000
00000000
FFFFFFF8
FFFFFFF8
C0000000
C0000000
C0000000
C0000000
C0000000
C0000000
C0000000
C0000000
C0000000
C0000000
C0000000
C0000000
C0000000
C0000000
C0000000
C0000000
C0000000
C0000000
C0000000
C0000000
C0000000
C0000000
C0000000
C0000000
C0000000
FFFFFF80
FFFFFF80
C0000000
C0000000
C0000000
C0000000
C0000000
C0000000
C0000000
C0000000
C0000000
C0000000
C0000000
C0000000
C0000000
C0000000
C0000000
C0000000
C0000000
C0000000
C0000000
C0000000
C0000000
C0000000
C0000000
C0000000
C0000000
C0000000
C0000000
C0000000
FFFFFFFE
FFFFFFFE
ENDCHAR
STARTCHAR 011B
ENCODING 283
SWIDTH 452 0
DWIDTH 38 0
BBX 23 59 7 0
BITMAP
080008
040018
060030
030060
0180C0
00C0C0
00E180
006300
003600
001C00
001C00
000000
000000
000000
000000
000000
000000
0FFFE0
3FFFF8
700004
600004
C00002
C00002
C00002
C00002
C00002
C00002
C00002
C00002
C00002
C00002
C00002
C00002
FFFFFE
FFFFFE
C00000
C00000
C00000
C00000
C00000
C00000
C00000
C00000
C00000
C00000
C00000
C00000
C00000
C00000
C00000
C00000
C00000
C00000
C00000
C00000
600000
700000
3FFFFE
0FFFFE
ENDCHAR
STARTCHAR 011C
ENCODING 284
SWIDTH 547 0
DWIDTH 46 0
BBX 32 70 7 0
BITMAP
00008000
0001C000
00037000
000E3800
001C1C00
00300600
00600300
00C00180
00000000
00000000
00000000
0FFFFFFF
1FFFFFFF
30000000
60000000
60000000
C0000000
C0000000
C0000000
C0000000
C0000000
C0000000
C0000000
C0000000
C0000000
C0000000
C0000000
C0000000
C0000000
C0000000
C0000000
C0000000
C0000000
C0000000
C0000000
C0000000
C0000000
C0000000
C000FFFF
C000FFFF
C0000003
C0000003
C0000003
C0000003
C0000003
C0000003
C0000003
C0000003
C0000003
C0000003
C0000003
C0000003
C0000003
C0000003
C0000003
C0000003
C0000003
C0000003
C0000003
C0000003
C0000003
C0000003
C0000003
C0000003
C0000003
E0000003
60000006
7000000E
3FFFFFFC
0FFFFFF0
ENDCHAR
STARTCHAR 011D
ENCODING 285
SWIDTH 476 0
DWIDTH 40 0
BBX 26 76 7 -17
BITMAP
00060000
000F0000
000D8000
0019C000
0030C000
00606000
00403000
00C01800
01800C00
03000C00
06000600
00000000
00000000
00000000
00000000
00000000
00000000
0FFFFFC0
3FFFFFC0
700000C0
600000C0
C00000C0
C00000C0
C00000C0
C00000C0
C00000C0
C00000C0
C00000C0
C00000C0
C00000C0
C00000C0
C00000C0
C00000C0
C00000C0
C00000C0
C00000C0
C00000C0
C00000C0
C00000C0
C00000C0
C00000C0
C00000C0
C00000C0
C00000C0
C00000C0
C00000C0
C00000C0
C00000C0
C00000C0
C00000C0
C00000C0
C00000C0
C00000C0
C00000C0
C00000C0
600000C0
700000C0
3FFFFFC0
0FFFFFC0
000000C0
000000C0
000000C0
000000C0
000000C0
000000C0
000000C0
000000C0
000000C0
000000C0
000000C0
000000C0
000000C0
00000180
00000300
FFFFFE00
FFFFF800
ENDCHAR
STARTCHAR 011E
ENCODING 286
SWIDTH 547 0
DWIDTH 46 0
BBX 32 70 7 1
BITMAP
00C00180
00C00180
00C00180
00C00180
00E00180
00700700
003FFE00
001FFC00
00000000
00000000
00000000
0FFFFFFF
1FFFFFFF
30000000
60000000
60000000
C0000000
C0000000
C0000000
C0000000
C0000000
C0000000
C0000000
C0000000
C0000000
C0000000
C0000000
C0000000
C0000000
C0000000
C0000000
C0000000
C0000000
C0000000
C0000000
C0000000
C0000000
C0000000
C000FFFF
C000FFFF
C0000003
C0000003
C0000003
C0000003
C0000003
C0000003
C0000003
C0000003
C0000003
C0000003
C0000003
C0000003
C0000003
C0000003
C0000003
C0000003
C0000003
C0000003
C0000003
C0000003
C0000003
C0000003
C0000003
C0000003
C0000003
E0000003
60000006
7000000E
3FFFFFFC
0FFFFFF0
ENDCHAR
STARTCHAR 011F
ENCODING 287
SWIDTH 476 0
DWIDTH 40 0
BBX 26 76 7 -17
BITMAP
0C000600
0C000600
0C000600
0C000400
0C000400
06000400
06000C00
07803800
03FFF000
00FFC000
00000000
00000000
00000000
00000000
00000000
00000000
00000000
0FFFFFC0
3FFFFFC0
700000C0
600000C0
C00000C0
C00000C0
C00000C0
C00000C0
C00000C0
C00000C0
C00000C0
C00000C0
C00000C0
C00000C0
C00000C0
C00000C0
C00000C0
C00000C0
C00000C0
C00000C0
C00000C0
C00000C0
C00000C0
C00000C0
C00000C0
C00000C0
C00000C0
C00000C0
C00000C0
C00000C0
C00000C0
C00000C0
C00000C0
C00000C0
C00000C0
C00000C0
C00000C0
C00000C0
600000C0
700000C0
3FFFFFC0
0FFFFFC0
000000C0
000000C0
000000C0
000000C0
000000C0
000000C0
000000C0
000000C0
000000C0
000000C0
000000C0
000000C0
000000C0
00000180
00000300
FFFFFE00
FFFFF800
ENDCHAR
STARTCHAR 0120
ENCODING 288
SWIDTH 547 0
DWIDTH 46 0
BBX 32 66 7 0
BITMAP
00018000
00018000
00000000
00000000
00000000
00000000
00000000
0FFFFFFF
1FFFFFFF
30000000
60000000
60000000
C0000000
C0000000
C0000000
C0000000
C0000000
C0000000
C0000000
C0000000
C0000000
C0000000
C0000000
C0000000
C0000000
C0000000
C0000000
C0000000
C0000000
C0000000
C0000000
C0000000
C0000000
C0000000
C001FFFF
C001FFFF
C0000003
C0000003
C0000003
C0000003
C0000003
C0000003
C0000003
C0000003
C0000003
C0000003
C0000003
C0000003
C0000003
C0000003
C0000003
C0000003
C0000003
C0000003
C0000003
C0000003
C0000003
C0000003
C0000003
C0000003
C0000003
E0000003
60000006
7000000E
3FFFFFFC
0FFFFFF0
ENDCHAR
STARTCHAR 0121
ENCODING 289
SWIDTH 476 0
DWIDTH 40 0
BBX 26 69 7 -17
BITMAP
000C0000
000C0000
000C0000
00000000
00000000
00000000
00000000
00000000
00000000
00000000
0FFFFFC0
3FFFFFC0
700000C0
600000C0
C00000C0
C00000C0
C00000C0
C00000C0
C00000C0
C00000C0
C00000C0
C00000C0
C00000C0
C00000C0
C00000C0
C00000C0
C00000C0
C00000C0
C00000C0
C00000C0
C00000C0
C00000C0
C00000C0
C00000C0
C00000C0
C00000C0
C00000C0
C00000C0
C00000C0
C00000C0
C00000C0
C00000C0
C00000C0
C00000C0
C00000C0
C00000C0
C00000C0
C00000C0
600000C0
700000C0
3FFFFFC0
1FFFFFC0
000000C0
000000C0
000000C0
000000C0
000000C0
000000C0
000000C0
000000C0
000000C0
000000C0
000000C0
000000C0
000000C0
00000180
00000300
FFFFFE00
FFFFF800
ENDCHAR
STARTCHAR 0122
ENCODING 290
SWIDTH 547 0
DWIDTH 46 0
BBX 32 76 7 -17
BITMAP
0FFFFFFF
1FFFFFFF
30000000
60000000
60000000
C0000000
C0000000
C0000000
C0000000
C0000000
C0000000
C0000000
C0000000
C0000000
C0000000
C0000000
C0000000
C0000000
C0000000
C0000000
C0000000
C0000000
C0000000
C0000000
C0000000
C0000000
C0000000
C0003FFF
C0003FFF
C0000003
C0000003
C0000003
C0000003
C0000003
C0000003
C0000003
C0000003
C0000003
C0000003
C0000003
C0000003
C0000003
C0000003
C0000003
C0000003
C0000003
C0000003
C0000003
C0000003
C0000003
C0000003
C0000003
C0000003
C0000003
E0000003
60000006
7000000E
3FFFFFFC
0FFFFFF0
00000000
00000000
00000000
00003000
00003000
00003000
00003000
00003000
00007000
00006000
0000E000
0000C000
0001C000
0001C000
00018000
00038000
00030000
ENDCHAR
STARTCHAR 0123
ENCODING 291
SWIDTH 476 0
DWIDTH 40 0
BBX 26 76 7 -16
BITMAP
00003000
00003000
00006000
00006000
00006000
0000C000
0000C000
0001C000
00018000
00018000
00018000
00018000
00018000
00000000
00000000
00000000
00000000
0FFFFFC0
3FFFFFC0
700000C0
600000C0
C00000C0
C00000C0
C00000C0
C00000C0
C00000C0
C00000C0
C00000C0
C00000C0
C00000C0
C00000C0
C00000C0
C00000C0
C00000C0
C00000C0
C00000C0
C00000C0
C00000C0
C00000C0
C00000C0
C00000C0
C00000C0
C00000C0
C00000C0
C00000C0
C00000C0
C00000C0
C00000C0
C00000C0
C00000C0
C00000C0
C00000C0
C00000C0
C00000C0
C00000C0
600000C0
700000C0
3FFFFFC0
0FFFFFC0
000000C0
000000C0
000000C0
000000C0
000000C0
000000C0
000000C0
000000C0
000000C0
000000C0
000000C0
000000C0
000000C0
00000180
00000300
FFFFFE00
FFFFF800
ENDCHAR
STARTCHAR 0124
ENCODING 292
SWIDTH 547 0
DWIDTH 46 0
BBX 32 69 7 1
BITMAP
0003C000
0007E000
000C7000
00181800
00300C00
00600600
00C00300
00000000
00000000
00000000
C0000003
C0000003
C0000003
C0000003
C0000003
C0000003
C0000003
C0000003
C0000003
C0000003
C0000003
C0000003
C0000003
C0000003
C0000003
C0000003
C0000003
C0000003
C0000003
C0000003
C0000003
C0000003
C0000003
C0000003
C0000003
C0000003
C0000003
FFFFFFFF
FFFFFFFF
C0000003
C0000003
C0000003
C0000003
C0000003
C0000003
C0000003
C0000003
C0000003
C0000003
C0000003
C0000003
C0000003
C0000003
C0000003
C0000003
C0000003
C0000003
C0000003
C0000003
C0000003
C0000003
C0000003
C0000003
C0000003
C0000003
C0000003
C0000003
C0000003
C0000003
ENDCHAR
STARTCHAR 0125
ENCODING 293
SWIDTH 476 0
DWIDTH 40 0
BBX 27 69 6 1
BITMAP
03800000
06E00000
0C700000
18380000
300C0000
60060000
80030000
00000000
00000000
00000000
60000000
60000000
60000000
60000000
60000000
60000000
60000000
60000000
60000000
60000000
60000000
60000000
60000000
60000000
60000000
60000000
60000000
7FFFFE00
7FFFFF80
600001C0
600000C0
60000060
60000060
60000060
60000060
60000060
60000060
60000060
60000060
60000060
60000060
60000060
60000060
60000060
60000060
60000060
60000060
60000060
60000060
60000060
60000060
60000060
60000060
60000060
60000060
60000060
60000060
60000060
60000060
60000060
60000060
60000060
60000060
60000060
60000060
60000060
60000060
60000060
60000060
ENDCHAR
STARTCHAR 0126
ENCODING 294
SWIDTH 547 0
DWIDTH 46 0
BBX 40 59 3 1
BITMAP
0C00000030
0C00000030
0C00000030
0C00000030
0C00000030
FFFFFFFFFF
FFFFFFFFFF
0C00000030
0C00000030
0C00000030
0C00000030
0C00000030
0C00000030
0C00000030
0C00000030
0C00000030
0C00000030
0C00000030
0C00000030
0C00000030
0C00000030
0C00000030
0C00000030
0C00000030
0C00000030
0C00000030
0C00000030
0FFFFFFFF0
0FFFFFFFF0
0C00000030
0C00000030
0C00000030
0C00000030
0C00000030
0C00000030
0C00000030
0C00000030
0C00000030
0C00000030
0C00000030
0C00000030
0C00000030
0C00000030
0C00000030
0C00000030
0C00000030
0C00000030
0C00000030
0C00000030
0C00000030
0C00000030
0C00000030
0C00000030
0C00000030
0C00000030
0C00000030
0C00000030
0C00000030
0C00000030
ENDCHAR
STARTCHAR 0127
ENCODING 295
SWIDTH 476 0
DWIDTH 40 0
BBX 31 59 2 1
BITMAP
06000000
06000000
06000000
06000000
06000000
FFFF8000
FFFF8000
06000000
06000000
06000000
06000000
06000000
06000000
06000000
06000000
06000000
06000000
07FFFFE0
07FFFFF8
0600001C
0600000C
06000006
06000006
06000006
06000006
06000006
06000006
06000006
06000006
06000006
06000006
06000006
06000006
06000006
06000006
06000006
06000006
06000006
06000006
06000006
06000006
06000006
06000006
06000006
06000006
06000006
06000006
06000006
06000006
06000006
06000006
06000006
06000006
06000006
06000006
06000006
06000006
06000006
06000006
ENDCHAR
STARTCHAR 0128
ENCODING 296
SWIDTH 202 0
DWIDTH 17 0
BBX 25 70 -4 0
BITMAP
0F000080
3FC00080
70F00180
60380180
E01C0180
C0060100
C0038300
C001FE00
C0007C00
00000000
00000000
00180000
00180000
00180000
00180000
00180000
00180000
00180000
00180000
00180000
00180000
00180000
00180000
00180000
00180000
00180000
00180000
00180000
00180000
00180000
00180000
00180000
00180000
00180000
00180000
00180000
00180000
00180000
00180000
00180000
00180000
00180000
00180000
00180000
00180000
00180000
00180000
00180000
00180000
00180000
00180000
00180000
00180000
00180000
00180000
00180000
00180000
00180000
00180000
00180000
00180000
00180000
00180000
00180000
00180000
00180000
00180000
00180000
00180000
00180000
ENDCHAR
STARTCHAR 0129
ENCODING 297
SWIDTH 190 0
DWIDTH 16 0
BBX 25 59 -4 0
BITMAP
0F000180
3FC00180
70E00180
60300180
60180180
C0080180
C0040300
C0060300
C0038700
C000FE00
C0007C00
00000000
00000000
00000000
00000000
00000000
00000000
00180000
00180000
00180000
00180000
00180000
00180000
00180000
00180000
00180000
00180000
00180000
00180000
00180000
00180000
00180000
00180000
00180000
00180000
00180000
00180000
00180000
00180000
00180000
00180000
00180000
00180000
00180000
00180000
00180000
00180000
00180000
00180000
00180000
00180000
00180000
00180000
00180000
00180000
00180000
00180000
00180000
00180000
ENDCHAR
STARTCHAR 012A
ENCODING 298
SWIDTH 202 0
DWIDTH 17 0
BBX 16 67 0 0
BITMAP
FFFF
FFFF
0000
0000
0000
0000
0000
0000
0180
0180
0180
0180
0180
0180
0180
0180
0180
0180
0180
0180
0180
0180
0180
0180
0180
0180
0180
0180
0180
0180
0180
0180
0180
0180
0180
0180
0180
0180
0180
0180
0180
0180
0180
0180
0180
0180
0180
0180
0180
0180
0180
0180
0180
0180
0180
0180
0180
0180
0180
0180
0180
0180
0180
0180
0180
0180
0180
ENDCHAR
STARTCHAR 012B
ENCODING 299
SWIDTH 190 0
DWIDTH 16 0
BBX 16 54 0 0
BITMAP
FFFF
FFFF
0000
0000
0000
0000
0000
0000
0000
0000
0000
0000
0180
0180
0180
0180
0180
0180
0180
0180
0180
0180
0180
0180
0180
0180
0180
0180
0180
0180
0180
0180
0180
0180
0180
0180
0180
0180
0180
0180
0180
0180
0180
0180
0180
0180
0180
0180
0180
0180
0180
0180
0180
0180
ENDCHAR
STARTCHAR 012C
ENCODING 300
SWIDTH 202 0
DWIDTH 17 0
BBX 18 70 0 1
BITMAP
C000C0
C000C0
C000C0
C000C0
E00180
700380
3FFF00
1FFC00
000000
000000
000000
018000
018000
018000
018000
018000
018000
018000
018000
018000
018000
018000
018000
018000
018000
018000
018000
018000
018000
018000
018000
018000
018000
018000
018000
018000
018000
018000
018000
018000
018000
018000
018000
018000
018000
018000
018000
018000
018000
018000
018000
018000
018000
018000
018000
018000
018000
018000
018000
018000
018000
018000
018000
018000
018000
018000
018000
018000
018000
018000
ENDCHAR
STARTCHAR 012D
ENCODING 301
SWIDTH 190 0
DWIDTH 16 0
BBX 18 59 -1 0
BITMAP
C000C0
C000C0
C000C0
C000C0
C000C0
6000C0
600180
780380
3FFF00
0FFC00
000000
000000
000000
000000
000000
000000
000000
00C000
00C000
00C000
00C000
00C000
00C000
00C000
00C000
00C000
00C000
00C000
00C000
00C000
00C000
00C000
00C000
00C000
00C000
00C000
00C000
00C000
00C000
00C000
00C000
00C000
00C000
00C000
00C000
00C000
00C000
00C000
00C000
00C000
00C000
00C000
00C000
00C000
00C000
00C000
00C000
00C000
00C000
ENDCHAR
STARTCHAR 012E
ENCODING 302
SWIDTH 202 0
DWIDTH 17 0
BBX 12 76 0 -17
BITMAP
0180
0180
0180
0180
0180
0180
0180
0180
0180
0180
0180
0180
0180
0180
0180
0180
0180
0180
0180
0180
0180
0180
0180
0180
0180
0180
0180
0180
0180
0180
0180
0180
0180
0180
0180
0180
0180
0180
0180
0180
0180
0180
0180
0180
0180
0180
0180
0180
0180
0180
0180
0180
0180
0180
0180
0180
0180
0180
0180
0180
0600
0C00
1800
3000
6000
C000
C000
C000
C000
C000
C000
C000
C000
6000
3FF0
1FF0
ENDCHAR
STARTCHAR 012F
ENCODING 303
SWIDTH 190 0
DWIDTH 16 0
BBX 12 69 1 -17
BITMAP
0300
0300
0300
0000
0000
0000
0000
0000
0000
0000
0300
0300
0300
0300
0300
0300
0300
0300
0300
0300
0300
0300
0300
0300
0300
0300
0300
0300
0300
0300
0300
0300
0300
0300
0300
0300
0300
0300
0300
0300
0300
0300
0300
0300
0300
0300
0300
0300
0300
0300
0300
0300
0200
0C00
1000
2000
4000
C000
C000
C000
C000
8000
8000
C000
C000
C000
6000
7FF0
1FF0
ENDCHAR
STARTCHAR 0130
ENCODING 304
SWIDTH 202 0
DWIDTH 17 0
BBX 2 66 7 0
BITMAP
C0
C0
00
00
00
00
00
C0
C0
C0
C0
C0
C0
C0
C0
C0
C0
C0
C0
C0
C0
C0
C0
C0
C0
C0
C0
C0
C0
C0
C0
C0
C0
C0
C0
C0
C0
C0
C0
C0
C0
C0
C0
C0
C0
C0
C0
C0
C0
C0
C0
C0
C0
C0
C0
C0
C0
C0
C0
C0
C0
C0
C0
C0
C0
C0
ENDCHAR
STARTCHAR 0131
ENCODING 305
SWIDTH 190 0
DWIDTH 16 0
BBX 2 42 7 0
BITMAP
C0
C0
C0
C0
C0
C0
C0
C0
C0
C0
C0
C0
C0
C0
C0
C0
C0
C0
C0
C0
C0
C0
C0
C0
C0
C0
C0
C0
C0
C0
C0
C0
C0
C0
C0
C0
C0
C0
C0
C0
C0
C0
ENDCHAR
STARTCHAR 0132
ENCODING 306
SWIDTH 452 0
DWIDTH 38 0
BBX 24 59 7 0
BITMAP
C00003
C00003
C00003
C00003
C00003
C00003
C00003
C00003
C00003
C00003
C00003
C00003
C00003
C00003
C00003
C00003
C00003
C00003
C00003
C00003
C00003
C00003
C00003
C00003
C00003
C00003
C00003
C00003
C00003
C00003
C00003
C00003
C00003
C00003
C00003
C00003
C00003
C00003
C00003
C00003
C00003
C00003
C00003
C00003
C00003
C00003
C00003
C00003
C00003
C00003
C00003
C00003
C00003
C00003
C00003
C00006
C0000E
C3FFFC
C3FFF0
ENDCHAR
STARTCHAR 0133
ENCODING 307
SWIDTH 380 0
DWIDTH 32 0
BBX 18 69 7 -17
BITMAP
C000C0
C000C0
C000C0
000000
000000
000000
000000
000000
000000
000000
C000C0
C000C0
C000C0
C000C0
C000C0
C000C0
C000C0
C000C0
C000C0
C000C0
C000C0
C000C0
C000C0
C000C0
C000C0
C000C0
C000C0
C000C0
C000C0
C000C0
C000C0
C000C0
C000C0
C000C0
C000C0
C000C0
C000C0
C000C0
C000C0
C000C0
C000C0
C000C0
C000C0
C000C0
C000C0
C000C0
C000C0
C000C0
C000C0
C000C0
C000C0
C000C0
0000C0
0000C0
0000C0
000080
000080
000180
000180
000180
000180
000180
000180
000300
000300
000300
000300
000600
000600
ENDCHAR
STARTCHAR 0134
ENCODING 308
SWIDTH 321 0
DWIDTH 27 0
BBX 25 69 2 1
BITMAP
0001C000
00036000
00063000
000C1800
00180E00
00200300
00C00180
00000000
00000000
00000000
0000C000
0000C000
0000C000
0000C000
0000C000
0000C000
0000C000
0000C000
0000C000
0000C000
0000C000
0000C000
0000C000
0000C000
0000C000
0000C000
0000C000
0000C000
0000C000
0000C000
0000C000
0000C000
0000C000
0000C000
0000C000
0000C000
0000C000
0000C000
0000C000
0000C000
0000C000
0000C000
0000C000
0000C000
0000C000
0000C000
0000C000
0000C000
0000C000
0000C000
0000C000
0000C000
0000C000
0000C000
0000C000
0000C000
0000C000
0000C000
0000C000
0000C000
0000C000
0000C000
0000C000
0000C000
0000C000
00018000
00038000
FFFF0000
FFFC0000
ENDCHAR
STARTCHAR 0135
ENCODING 309
SWIDTH 190 0
DWIDTH 16 0
BBX 17 76 -1 -17
BITMAP
00C000
01E000
036000
063000
0E1800
0C0C00
180C00
300600
600300
C00180
800080
000000
000000
000000
000000
000000
000000
00C000
00C000
00C000
00C000
00C000
00C000
00C000
00C000
00C000
00C000
00C000
00C000
00C000
00C000
00C000
00C000
00C000
00C000
00C000
00C000
00C000
00C000
00C000
00C000
00C000
00C000
00C000
00C000
00C000
00C000
00C000
00C000
00C000
00C000
00C000
00C000
00C000
00C000
00C000
00C000
00C000
00C000
00C000
00C000
00C000
00C000
00C000
00C000
008000
018000
018000
018000
018000
018000
030000
030000
030000
060000
060000
ENDCHAR
STARTCHAR 0136
ENCODING 310
SWIDTH 511 0
DWIDTH 43 0
BBX 31 76 7 -17
BITMAP
C000000C
C000001C
C0000018
C0000030
C0000030
C0000060
C0000060
C00000C0
C00000C0
C0000180
C0000180
C0000300
C0000300
C0000600
C0000600
C0000C00
C0000C00
C0001800
C0001800
C0003000
C0003000
C0006000
C0006000
C000C000
C001C000
C0018000
C0070000
FFFE0000
FFFE0000
C0038000
C0018000
C000C000
C000E000
C0006000
C0007000
C0003000
C0003800
C0001800
C0001C00
C0000C00
C0000E00
C0000600
C0000700
C0000300
C0000300
C0000180
C0000180
C00000C0
C00000C0
C00000E0
C0000060
C0000070
C0000030
C0000038
C0000018
C000001C
C000000C
C000000E
C0000006
00000000
00000000
00000000
00070000
00070000
00070000
00070000
00070000
00060000
000E0000
000C0000
000C0000
001C0000
00180000
00380000
00300000
00300000
ENDCHAR
STARTCHAR 0137
ENCODING 311
SWIDTH 428 0
DWIDTH 36 0
BBX 25 76 7 -17
BITMAP
C0000000
C0000000
C0000000
C0000000
C0000000
C0000000
C0000000
C0000000
C0000000
C0000000
C0000000
C0000000
C0000000
C0000000
C0000000
C0000000
C0000000
C0000300
C0000300
C0000600
C0000600
C0000C00
C0000C00
C0001800
C0001800
C0003000
C0007000
C0006000
C000E000
C000C000
C001C000
C0018000
C0038000
C0030000
C00E0000
FFFC0000
FFFC0000
C0060000
C0030000
C0038000
C0018000
C0018000
C000C000
C000C000
C0006000
C0006000
C0003000
C0003000
C0001800
C0001800
C0001C00
C0000C00
C0000E00
C0000600
C0000600
C0000300
C0000300
C0000180
C0000180
00000000
00000000
00000000
00180000
00180000
00180000
00180000
00180000
00380000
00380000
00300000
00700000
00600000
00E00000
00C00000
00C00000
01800000
ENDCHAR
STARTCHAR 0139
ENCODING 313
SWIDTH 464 0
DWIDTH 39 0
BBX 30 69 7 1
BITMAP
00C00000
01800000
03000000
0E000000
18000000
30000000
60000000
00000000
00000000
00000000
C0000000
C0000000
C0000000
C0000000
C0000000
C0000000
C0000000
C0000000
C0000000
C0000000
C0000000
C0000000
C0000000
C0000000
C0000000
C0000000
C0000000
C0000000
C0000000
C0000000
C0000000
C0000000
C0000000
C0000000
C0000000
C0000000
C0000000
C0000000
C0000000
C0000000
C0000000
C0000000
C0000000
C0000000
C0000000
C0000000
C0000000
C0000000
C0000000
C0000000
C0000000
C0000000
C0000000
C0000000
C0000000
C0000000
C0000000
C0000000
C0000000
C0000000
C0000000
C0000000
C0000000
C0000000
C0000000
C0000000
C0000000
FFFFFFFC
FFFFFFFC
ENDCHAR
STARTCHAR 013A
ENCODING 314
SWIDTH 190 0
DWIDTH 16 0
BBX 9 69 7 1
BITMAP
0180
0300
0600
0C00
1800
7000
C000
0000
0000
0000
C000
C000
C000
C000
C000
C000
C000
C000
C000
C000
C000
C000
C000
C000
C000
C000
C000
C000
C000
C000
C000
C000
C000
C000
C000
C000
C000
C000
C000
C000
C000
C000
C000
C000
C000
C000
C000
C000
C000
C000
C000
C000
C000
C000
C000
C000
C000
C000
C000
C000
C000
C000
C000
C000
C000
C000
C000
C000
C000
ENDCHAR
STARTCHAR 013B
ENCODING 315
SWIDTH 464 0
DWIDTH 39 0
BBX 32 76 7 -17
BITMAP
C0000000
C0000000
C0000000
C0000000
C0000000
C0000000
C0000000
C0000000
C0000000
C0000000
C0000000
C0000000
C0000000
C0000000
C0000000
C0000000
C0000000
C0000000
C0000000
C0000000
C0000000
C0000000
C0000000
C0000000
C0000000
C0000000
C0000000
C0000000
C0000000
C0000000
C0000000
C0000000
C0000000
C0000000
C0000000
C0000000
C0000000
C0000000
C0000000
C0000000
C0000000
C0000000
C0000000
C0000000
C0000000
C0000000
C0000000
C0000000
C0000000
C0000000
C0000000
C0000000
C0000000
C0000000
C0000000
C0000000
C0000000
FFFFFFFF
FFFFFFFF
00000000
00000000
00000000
0000C000
0000C000
0000C000
0000C000
0000C000
0000C000
00018000
00018000
00038000
00030000
00070000
00060000
000E0000
000C0000
ENDCHAR
STARTCHAR 013C
ENCODING 316
SWIDTH 190 0
DWIDTH 16 0
BBX 5 76 4 -17
BITMAP
18
18
18
18
18
18
18
18
18
18
18
18
18
18
18
18
18
18
18
18
18
18
18
18
18
18
18
18
18
18
18
18
18
18
18
18
18
18
18
18
18
18
18
18
18
18
18
18
18
18
18
18
18
18
18
18
18
18
18
00
00
00
18
18
18
18
18
18
30
30
70
60
60
C0
C0
C0
ENDCHAR
STARTCHAR 013D
ENCODING 317
SWIDTH 464 0
DWIDTH 39 0
BBX 30 59 7 0
BITMAP
C0300000
C0300000
C0300000
C0300000
C0300000
C0300000
C0300000
C0300000
C0300000
C0300000
C0200000
C0200000
C0200000
C0000000
C0000000
C0000000
C0000000
C0000000
C0000000
C0000000
C0000000
C0000000
C0000000
C0000000
C0000000
C0000000
C0000000
C0000000
C0000000
C0000000
C0000000
C0000000
C0000000
C0000000
C0000000
C0000000
C0000000
C0000000
C0000000
C0000000
C0000000
C0000000
C0000000
C0000000
C0000000
C0000000
C0000000
C0000000
C0000000
C0000000
C0000000
C0000000
C0000000
C0000000
C0000000
C0000000
C0000000
FFFFFFFC
FFFFFFFC
ENDCHAR
STARTCHAR 013E
ENCODING 318
SWIDTH 190 0
DWIDTH 16 0
BBX 9 59 7 0
BITMAP
C380
C300
C300
C300
C300
C300
C300
C300
C300
C300
C300
C300
C300
C000
C000
C000
C000
C000
C000
C000
C000
C000
C000
C000
C000
C000
C000
C000
C000
C000
C000
C000
C000
C000
C000
C000
C000
C000
C000
C000
C000
C000
C000
C000
C000
C000
C000
C000
C000
C000
C000
C000
C000
C000
C000
C000
C000
C000
C000
ENDCHAR
STARTCHAR 013F
ENCODING 319
SWIDTH 464 0
DWIDTH 39 0
BBX 33 59 7 0
BITMAP
C000000000
C000000000
C000000000
C000000000
C000000000
C000000000
C000000000
C000000000
C000000000
C000000000
C000000000
C000000000
C000000000
C000000000
C000000000
C000000000
C000000000
C000000000
C000000000
C000000000
C000000000
C000000000
C000000000
C000000000
C000000000
C000000000
C01E000000
C01E000000
C01E000000
C000000000
C000000000
C000000000
C000000000
C000000000
C000000000
C000000000
C000000000
C000000000
C000000000
C000000000
C000000000
C000000000
C000000000
C000000000
C000000000
C000000000
C000000000
C000000000
C000000000
C000000000
C000000000
C000000000
C000000000
C000000000
C000000000
C000000000
C000000000
FFFFFFFF80
FFFFFFFF80
ENDCHAR
STARTCHAR 0140
ENCODING 320
SWIDTH 202 0
DWIDTH 17 0
BBX 10 59 7 0
BITMAP
C000
C000
C000
C000
C000
C000
C000
C000
C000
C000
C000
C000
C000
C000
C000
C000
C000
C000
C000
C000
C000
C000
C000
C000
C000
C000
C1C0
C1C0
C1C0
C000
C000
C000
C000
C000
C000
C000
C000
C000
C000
C000
C000
C000
C000
C000
C000
C000
C000
C000
C000
C000
C000
C000
C000
C000
C000
C000
C000
C000
C000
ENDCHAR
STARTCHAR 0141
ENCODING 321
SWIDTH 464 0
DWIDTH 39 0
BBX 36 59 2 0
BITMAP
0300000000
0300000000
0300000000
0300000000
0300000000
0300000000
0300000000
0300000000
0300000000
0300000000
0300000000
0300000000
0300000000
0300000000
0300000000
0300000000
0300018000
0300038000
0300070000
03000E0000
0300180000
0300300000
0300600000
0301C00000
0303800000
0307000000
030C000000
0318000000
0330000000
0360000000
03C0000000
0380000000
0700000000
0F00000000
1B00000000
3300000000
6300000000
C300000000
8300000000
0300000000
0300000000
0300000000
0300000000
0300000000
0300000000
0300000000
0300000000
0300000000
0300000000
0300000000
0300000000
0300000000
0300000000
0300000000
0300000000
0300000000
0300000000
03FFFFFFF0
03FFFFFFF0
ENDCHAR
STARTCHAR 0142
ENCODING 322
SWIDTH 190 0
DWIDTH 16 0
BBX 12 59 2 0
BITMAP
0600
0600
0600
0600
0600
0600
0600
0600
0600
0600
0600
0600
0600
0600
0600
0600
0600
0600
0600
0600
0610
0630
0620
0660
06C0
0680
0780
0700
0600
0600
0E00
1E00
1E00
3600
6600
4600
C600
8600
0600
0600
0600
0600
0600
0600
0600
0600
0600
0600
0600
0600
0600
0600
0600
0600
0600
0600
0600
0600
0600
ENDCHAR
STARTCHAR 0143
ENCODING 323
SWIDTH 559 0
DWIDTH 47 0
BBX 32 69 8 0
BITMAP
00000700
00000C00
00001800
00003000
0000E000
00018000
00030000
00060000
00000000
00000000
00000000
E0000003
F0000003
F0000003
D8000003
D8000003
CC000003
CC000003
C6000003
C6000003
C3000003
C3000003
C1800003
C1800003
C1C00003
C0C00003
C0E00003
C0600003
C0700003
C0300003
C0380003
C0180003
C0180003
C00C0003
C00C0003
C0060003
C0060003
C0030003
C0030003
C0018003
C0018003
C000C003
C000C003
C0006003
C0006003
C0007003
C0003003
C0003803
C0001803
C0001C03
C0000C03
C0000E03
C0000603
C0000603
C0000303
C0000303
C0000183
C0000183
C00000C3
C00000C3
C0000063
C0000063
C0000033
C0000033
C000001B
C000001B
C000001F
C000000F
C000000F
ENDCHAR
STARTCHAR 0144
ENCODING 324
SWIDTH 476 0
DWIDTH 40 0
BBX 26 59 7 0
BITMAP
00007000
00006000
0000C000
00018000
00030000
00070000
00060000
000C0000
00180000
00300000
00600000
00000000
00000000
00000000
00000000
00000000
00000000
FFFFFC00
FFFFFF00
C0000380
C0000180
C00000C0
C00000C0
C00000C0
C00000C0
C00000C0
C00000C0
C00000C0
C00000C0
C00000C0
C00000C0
C00000C0
C00000C0
C00000C0
C00000C0
C00000C0
C00000C0
C00000C0
C00000C0
C00000C0
C00000C0
C00000C0
C00000C0
C00000C0
C00000C0
C00000C0
C00000C0
C00000C0
C00000C0
C00000C0
C00000C0
C00000C0
C00000C0
C00000C0
C00000C0
C00000C0
C00000C0
C00000C0
C00000C0
ENDCHAR
STARTCHAR 0145
ENCODING 325
SWIDTH 559 0
DWIDTH 47 0
BBX 32 75 8 -16
BITMAP
F0000003
F0000003
F8000003
D8000003
DC000003
CC000003
CE000003
C6000003
C6000003
C3000003
C3000003
C1800003
C1800003
C0C00003
C0C00003
C0E00003
C0600003
C0700003
C0300003
C0380003
C0180003
C01C0003
C00C0003
C00E0003
C0060003
C0070003
C0030003
C0030003
C0018003
C0018003
C000C003
C000C003
C0006003
C0006003
C0003003
C0003003
C0001803
C0001803
C0000C03
C0000C03
C0000603
C0000603
C0000703
C0000303
C0000303
C0000183
C0000183
C00000C3
C00000C3
C0000063
C0000063
C0000033
C0000033
C000001B
C000001B
C000000F
C000000F
C0000007
00000000
00000000
00000000
00003000
00003000
00003000
00003000
00003000
00007000
00006000
0000E000
0000C000
0000C000
0001C000
00018000
00038000
00030000
ENDCHAR
STARTCHAR 0146
ENCODING 326
SWIDTH 476 0
DWIDTH 40 0
BBX 26 59 7 -17
BITMAP
FFFFFC00
FFFFFF00
C0000380
C0000180
C00000C0
C00000C0
C00000C0
C00000C0
C00000C0
C00000C0
C00000C0
C00000C0
C00000C0
C00000C0
C00000C0
C00000C0
C00000C0
C00000C0
C00000C0
C00000C0
C00000C0
C00000C0
C00000C0
C00000C0
C00000C0
C00000C0
C00000C0
C00000C0
C00000C0
C00000C0
C00000C0
C00000C0
C00000C0
C00000C0
C00000C0
C00000C0
C00000C0
C00000C0
C00000C0
C00000C0
C00000C0
C00000C0
00000000
00000000
00000000
00030000
00030000
00030000
00030000
00030000
00070000
00060000
000E0000
000C0000
000C0000
001C0000
00180000
00380000
00300000
ENDCHAR
STARTCHAR 0147
ENCODING 327
SWIDTH 559 0
DWIDTH 47 0
BBX 32 69 8 0
BITMAP
01800180
00C00300
00300C00
00181800
000C3000
00066000
0003C000
00018000
00000000
00000000
00000000
E0000003
F0000003
F0000003
D8000003
D8000003
CC000003
CC000003
C6000003
C6000003
C3000003
C3000003
C1800003
C1800003
C1C00003
C0C00003
C0E00003
C0600003
C0700003
C0300003
C0380003
C0180003
C0180003
C00C0003
C00C0003
C0060003
C0060003
C0030003
C0030003
C0018003
C0018003
C000C003
C000C003
C0006003
C0006003
C0003003
C0003003
C0003803
C0001803
C0001C03
C0000C03
C0000E03
C0000603
C0000603
C0000303
C0000303
C0000183
C0000183
C00000C3
C00000C3
C0000063
C0000063
C0000033
C0000033
C000001B
C000001B
C000000F
C000000F
C000000F
ENDCHAR
STARTCHAR 0148
ENCODING 328
SWIDTH 476 0
DWIDTH 40 0
BBX 26 59 7 0
BITMAP
0C000C00
06001800
03003000
01002000
01806000
00C0C000
00618000
00330000
003F0000
001E0000
000C0000
00000000
00000000
00000000
00000000
00000000
00000000
FFFFFC00
FFFFFF00
C0000380
C0000180
C00000C0
C00000C0
C00000C0
C00000C0
C00000C0
C00000C0
C00000C0
C00000C0
C00000C0
C00000C0
C00000C0
C00000C0
C00000C0
C00000C0
C00000C0
C00000C0
C00000C0
C00000C0
C00000C0
C00000C0
C00000C0
C00000C0
C00000C0
C00000C0
C00000C0
C00000C0
C00000C0
C00000C0
C00000C0
C00000C0
C00000C0
C00000C0
C00000C0
C00000C0
C00000C0
C00000C0
C00000C0
C00000C0
ENDCHAR
STARTCHAR 0149
ENCODING 329
SWIDTH 476 0
DWIDTH 40 0
BBX 26 59 7 0
BITMAP
C0000000
C0000000
C0000000
C0000000
C0000000
C0000000
C0000000
C0000000
C0000000
C0000000
C0000000
C0000000
C0000000
00000000
00000000
00000000
00000000
FFFFFC00
FFFFFF00
C0000380
C0000180
C00000C0
C00000C0
C00000C0
C00000C0
C00000C0
C00000C0
C00000C0
C00000C0
C00000C0
C00000C0
C00000C0
C00000C0
C00000C0
C00000C0
C00000C0
C00000C0
C00000C0
C00000C0
C00000C0
C00000C0
C00000C0
C00000C0
C00000C0
C00000C0
C00000C0
C00000C0
C00000C0
C00000C0
C00000C0
C00000C0
C00000C0
C00000C0
C00000C0
C00000C0
C00000C0
C00000C0
C00000C0
C00000C0
ENDCHAR
STARTCHAR 014A
ENCODING 330
SWIDTH 559 0
DWIDTH 47 0
BBX 32 69 8 -11
BITMAP
F0000003
F0000003
F0000003
D8000003
D8000003
CC000003
CC000003
C6000003
C6000003
C3000003
C3000003
C1800003
C1800003
C0C00003
C0C00003
C0600003
C0600003
C0300003
C0300003
C0180003
C0180003
C00C0003
C00C0003
C0040003
C0060003
C0020003
C0030003
C0010003
C0018003
C0008003
C000C003
C0004003
C0006003
C0006003
C0003003
C0003003
C0001803
C0001803
C0000C03
C0000C03
C0000603
C0000603
C0000203
C0000303
C0000103
C0000183
C0000083
C00000C3
C0000043
C0000063
C0000023
C0000033
C0000013
C000001B
C000000B
C000000F
C0000007
C0000007
00000003
00000003
00000006
00000006
00000006
0000000C
0000000C
0000001C
00000018
00000018
00000030
ENDCHAR
STARTCHAR 014B
ENCODING 331
SWIDTH 476 0
DWIDTH 40 0
BBX 26 54 7 -12
BITMAP
FFFFFC00
FFFFFF00
C0000380
C0000180
C00000C0
C00000C0
C00000C0
C00000C0
C00000C0
C00000C0
C00000C0
C00000C0
C00000C0
C00000C0
C00000C0
C00000C0
C00000C0
C00000C0
C00000C0
C00000C0
C00000C0
C00000C0
C00000C0
C00000C0
C00000C0
C00000C0
C00000C0
C00000C0
C00000C0
C00000C0
C00000C0
C00000C0
C00000C0
C00000C0
C00000C0
C00000C0
C00000C0
C00000C0
C00000C0
C00000C0
C00000C0
C00000C0
000000C0
000000C0
000000C0
000001C0
00000180
00000180
00000300
00000300
00000700
00000600
00000600
00000C00
ENDCHAR
STARTCHAR 014C
ENCODING 332
SWIDTH 547 0
DWIDTH 46 0
BBX 32 67 7 0
BITMAP
00FFFF00
00FFFF00
00000000
00000000
00000000
00000000
00000000
00000000
0FFFFFF0
1FFFFFFC
3000000E
60000006
60000007
C0000003
C0000003
C0000003
C0000003
C0000003
C0000003
C0000003
C0000003
C0000003
C0000003
C0000003
C0000003
C0000003
C0000003
C0000003
C0000003
C0000003
C0000003
C0000003
C0000003
C0000003
C0000003
C0000003
C0000003
C0000003
C0000003
C0000003
C0000003
C0000003
C0000003
C0000003
C0000003
C0000003
C0000003
C0000003
C0000003
C0000003
C0000003
C0000003
C0000003
C0000003
C0000003
C0000003
C0000003
C0000003
C0000003
C0000003
C0000003
C0000003
E0000003
60000006
7000000E
3FFFFFFC
0FFFFFF0
ENDCHAR
STARTCHAR 014D
ENCODING 333
SWIDTH 476 0
DWIDTH 40 0
BBX 26 54 7 0
BITMAP
07FFF800
07FFF800
00000000
00000000
00000000
00000000
00000000
00000000
00000000
00000000
00000000
00000000
0FFFFC00
3FFFFF00
70000380
60000180
C00000C0
C00000C0
C00000C0
C00000C0
C00000C0
C00000C0
C00000C0
C00000C0
C00000C0
C00000C0
C00000C0
C00000C0
C00000C0
C00000C0
C00000C0
C00000C0
C00000C0
C00000C0
C00000C0
C00000C0
C00000C0
C00000C0
C00000C0
C00000C0
C00000C0
C00000C0
C00000C0
C00000C0
C00000C0
C00000C0
C00000C0
C00000C0
C00000C0
C00000C0
60000180
70000380
3FFFFF00
0FFFFC00
ENDCHAR
STARTCHAR 014E
ENCODING 334
SWIDTH 547 0
DWIDTH 46 0
BBX 32 70 7 1
BITMAP
00C00180
00C00180
00C00180
00C00180
00E00180
00700700
003FFE00
001FFC00
00000000
00000000
00000000
0FFFFFF0
1FFFFFFC
3000000E
60000006
60000007
C0000003
C0000003
C0000003
C0000003
C0000003
C0000003
C0000003
C0000003
C0000003
C0000003
C0000003
C0000003
C0000003
C0000003
C0000003
C0000003
C0000003
C0000003
C0000003
C0000003
C0000003
C0000003
C0000003
C0000003
C0000003
C0000003
C0000003
C0000003
C0000003
C0000003
C0000003
C0000003
C0000003
C0000003
C0000003
C0000003
C0000003
C0000003
C0000003
C0000003
C0000003
C0000003
C0000003
C0000003
C0000003
C0000003
C0000003
C0000003
C0000003
E0000003
60000006
7000000E
3FFFFFFC
0FFFFFF0
ENDCHAR
STARTCHAR 014F
ENCODING 335
SWIDTH 476 0
DWIDTH 40 0
BBX 26 59 7 0
BITMAP
0C000C00
0C000C00
0C000C00
0C000C00
0C000C00
06000C00
06001800
07803800
03FFF000
00FFC000
00000000
00000000
00000000
00000000
00000000
00000000
00000000
0FFFFC00
3FFFFF00
70000380
60000180
C00000C0
C00000C0
C00000C0
C00000C0
C00000C0
C00000C0
C00000C0
C00000C0
C00000C0
C00000C0
C00000C0
C00000C0
C00000C0
C00000C0
C00000C0
C00000C0
C00000C0
C00000C0
C00000C0
C00000C0
C00000C0
C00000C0
C00000C0
C00000C0
C00000C0
C00000C0
C00000C0
C00000C0
C00000C0
C00000C0
C00000C0
C00000C0
C00000C0
C00000C0
60000180
70000380
3FFFFF00
0FFFFC00
ENDCHAR
STARTCHAR 0150
ENCODING 336
SWIDTH 547 0
DWIDTH 46 0
BBX 32 70 7 0
BITMAP
0001C070
000380E0
000301C0
00060300
000C0600
00100C00
00201800
00403000
00000000
00000000
00000000
0FFFFFF0
1FFFFFFC
3000000E
60000006
60000007
C0000003
C0000003
C0000003
C0000003
C0000003
C0000003
C0000003
C0000003
C0000003
C0000003
C0000003
C0000003
C0000003
C0000003
C0000003
C0000003
C0000003
C0000003
C0000003
C0000003
C0000003
C0000003
C0000003
C0000003
C0000003
C0000003
C0000003
C0000003
C0000003
C0000003
C0000003
C0000003
C0000003
C0000003
C0000003
C0000003
C0000003
C0000003
C0000003
C0000003
C0000003
C0000003
C0000003
C0000003
C0000003
C0000003
C0000003
C0000003
C0000003
E0000003
60000006
7000000E
3FFFFFFC
0FFFFFF0
ENDCHAR
STARTCHAR 0151
ENCODING 337
SWIDTH 476 0
DWIDTH 40 0
BBX 24 59 7 0
BITMAP
000600
000C04
001804
001808
003010
006010
004020
00C060
018040
030080
020180
000000
000000
000000
000000
000000
000000
0FFFE0
3FFFF8
700004
600002
C00001
C00001
C00001
C00001
C00001
C00001
C00001
C00001
C00001
C00001
C00001
C00001
C00001
C00001
C00001
C00001
C00001
C00001
C00001
C00001
C00001
C00001
C00001
C00001
C00001
C00001
C00001
C00001
C00001
C00001
C00001
C00001
C00001
C00001
600002
700004
3FFFF8
0FFFE0
ENDCHAR
STARTCHAR 0152
ENCODING 338
SWIDTH 821 0
DWIDTH 69 0
BBX 60 59 7 0
BITMAP
0FFFFFFFFFFFFFC0
1FFFFFFFFFFFFFC0
3000000300000000
6000000300000000
6000000300000000
C000000300000000
C000000300000000
C000000300000000
C000000300000000
C000000300000000
C000000300000000
C000000300000000
C000000300000000
C000000300000000
C000000300000000
C000000300000000
C000000300000000
C000000300000000
C000000300000000
C000000300000000
C000000300000000
C000000300000000
C000000300000000
C000000300000000
C000000300000000
C000000300000000
C000000300000000
C0000003FFFFFC00
C0000003FFFFFC00
C000000300000000
C000000300000000
C000000300000000
C000000300000000
C000000300000000
C000000300000000
C000000300000000
C000000300000000
C000000300000000
C000000300000000
C000000300000000
C000000300000000
C000000300000000
C000000300000000
C000000300000000
C000000300000000
C000000300000000
C000000300000000
C000000300000000
C000000300000000
C000000300000000
C000000300000000
C000000300000000
C000000300000000
C000000300000000
E000000300000000
6000000300000000
7000000300000000
3FFFFFFFFFFFFFF0
0FFFFFFFFFFFFFF0
ENDCHAR
STARTCHAR 0153
ENCODING 339
SWIDTH 726 0
DWIDTH 61 0
BBX 49 42 7 0
BITMAP
0FFFFC0FFFF800
3FFFFF3FFFFE00
70000330000700
600001E0000300
C00000C0000180
C00000C0000180
C00000C0000180
C00000C0000180
C00000C0000180
C00000C0000180
C00000C0000180
C00000C0000180
C00000C0000180
C00000C0000180
C00000C0000180
C00000C0000180
C00000FFFFFF80
C00000FFFFFF80
C00000C0000000
C00000C0000000
C00000C0000000
C00000C0000000
C00000C0000000
C00000C0000000
C00000C0000000
C00000C0000000
C00000C0000000
C00000C0000000
C00000C0000000
C00000C0000000
C00000C0000000
C00000C0000000
C00000C0000000
C00000C0000000
C00000C0000000
C00000C0000000
C00000C0000000
C00000C0000000
600001E0000000
70000330000000
3FFFFE3FFFFF80
0FFFFC0FFFFF80
ENDCHAR
STARTCHAR 0154
ENCODING 340
SWIDTH 571 0
DWIDTH 48 0
BBX 35 70 7 0
BITMAP
0000300000
0000600000
0000C00000
0001800000
0003000000
0002000000
0004000000
0008000000
0000000000
0000000000
0000000000
FFFFFFF000
FFFFFFFC00
C000000E00
C000000600
C000000700
C000000300
C000000300
C000000300
C000000300
C000000300
C000000300
C000000300
C000000300
C000000300
C000000300
C000000300
C000000300
C000000300
C000000300
C000000300
C000000300
C000000300
C000000300
C000000300
C000000600
C000000600
C000001C00
FFFFFFF000
FFFFFFC000
C000080000
C0000C0000
C000040000
C000060000
C000060000
C000030000
C000030000
C000018000
C000018000
C000008000
C00000C000
C000004000
C000006000
C000006000
C000003000
C000003000
C000001800
C000001800
C000000C00
C000000C00
C000000600
C000000600
C000000600
C000000300
C000000300
C000000180
C000000180
C0000000C0
C0000000C0
C000000060
ENDCHAR
STARTCHAR 0155
ENCODING 341
SWIDTH 285 0
DWIDTH 24 0
BBX 14 59 7 0
BITMAP
000C
0018
0018
0030
0060
0060
00C0
0080
0100
0300
0200
0000
0000
0000
0000
0000
0000
CFFC
DFFC
E000
E000
C000
C000
C000
C000
C000
C000
C000
C000
C000
C000
C000
C000
C000
C000
C000
C000
C000
C000
C000
C000
C000
C000
C000
C000
C000
C000
C000
C000
C000
C000
C000
C000
C000
C000
C000
C000
C000
C000
ENDCHAR
STARTCHAR 0156
ENCODING 342
SWIDTH 571 0
DWIDTH 48 0
BBX 35 76 7 -17
BITMAP
FFFFFFF000
FFFFFFFC00
C000000E00
C000000600
C000000700
C000000300
C000000300
C000000300
C000000300
C000000300
C000000300
C000000300
C000000300
C000000300
C000000300
C000000300
C000000300
C000000300
C000000300
C000000300
C000000300
C000000300
C000000300
C000000300
C000000700
C000000600
C000001E00
FFFFFFFC00
FFFFFFF000
C000018000
C000018000
C00000C000
C00000C000
C00000C000
C000006000
C000006000
C000006000
C000003000
C000003000
C000003000
C000001800
C000001800
C000001800
C000000C00
C000000C00
C000000C00
C000000600
C000000600
C000000600
C000000300
C000000300
C000000300
C000000180
C000000180
C000000180
C0000000C0
C0000000C0
C0000000C0
C000000060
0000000000
0000000000
0000000000
0000600000
0000600000
0000600000
0000600000
0000600000
0000600000
0000C00000
0000C00000
0001C00000
0001800000
0003800000
0003000000
0007000000
0006000000
ENDCHAR
STARTCHAR 0157
ENCODING 343
SWIDTH 285 0
DWIDTH 24 0
BBX 17 59 4 -17
BITMAP
19FF80
1BFF80
1E0000
1C0000
180000
180000
180000
180000
180000
180000
180000
180000
180000
180000
180000
180000
180000
180000
180000
180000
180000
180000
180000
180000
180000
180000
180000
180000
180000
180000
180000
180000
180000
180000
180000
180000
180000
180000
180000
180000
180000
180000
000000
000000
000000
180000
180000
180000
180000
180000
180000
300000
300000
300000
300000
600000
600000
600000
C00000
ENDCHAR
STARTCHAR 0158
ENCODING 344
SWIDTH 571 0
DWIDTH 48 0
BBX 35 70 7 0
BITMAP
0180030000
00C0060000
00600C0000
0030180000
0018300000
000C600000
0006C00000
0003800000
0000000000
0000000000
0000000000
FFFFFFF000
FFFFFFFC00
C000000E00
C000000600
C000000700
C000000300
C000000300
C000000300
C000000300
C000000300
C000000300
C000000300
C000000300
C000000300
C000000300
C000000300
C000000300
C000000300
C000000300
C000000300
C000000300
C000000300
C000000300
C000000300
C000000600
C000000600
C000001C00
FFFFFFF800
FFFFFFE000
C000060000
C000030000
C000030000
C000010000
C000018000
C000018000
C00000C000
C00000C000
C000004000
C000006000
C000006000
C000003000
C000003000
C000003000
C000001800
C000001800
C000000C00
C000000C00
C000000C00
C000000600
C000000600
C000000700
C000000300
C000000300
C000000180
C000000180
C0000001C0
C0000000C0
C0000000C0
C000000060
ENDCHAR
STARTCHAR 0159
ENCODING 345
SWIDTH 285 0
DWIDTH 24 0
BBX 19 59 6 0
BITMAP
400020
200060
3000C0
180180
0C0300
060600
030C00
039C00
01D800
00F000
006000
000000
000000
000000
000000
000000
000000
E3FFC0
EFFFC0
E80000
F00000
F00000
E00000
E00000
E00000
E00000
E00000
E00000
E00000
E00000
E00000
E00000
E00000
E00000
E00000
E00000
E00000
E00000
E00000
E00000
E00000
E00000
E00000
E00000
E00000
E00000
E00000
E00000
E00000
E00000
E00000
E00000
E00000
E00000
E00000
E00000
E00000
E00000
E00000
ENDCHAR
STARTCHAR 015A
ENCODING 346
SWIDTH 511 0
DWIDTH 43 0
BBX 30 70 6 0
BITMAP
00000C00
00001800
00003000
0000E000
0001C000
00030000
00060000
000C0000
00000000
00000000
00000000
0FFFFFFC
1FFFFFFC
30000000
60000000
60000000
C0000000
C0000000
C0000000
C0000000
C0000000
C0000000
C0000000
C0000000
C0000000
C0000000
C0000000
60000000
60000000
30000000
1C000000
0E000000
07000000
03800000
00E00000
00700000
00380000
001C0000
00060000
00038000
0001C000
0000E000
00007000
00001C00
00000E00
00000700
00000380
000000C0
00000070
00000030
00000018
00000018
0000000C
0000000C
0000000C
0000000C
0000000C
0000000C
0000000C
0000000C
0000000C
0000000C
0000000C
0000000C
0000000C
0000000C
00000018
00000038
FFFFFFF0
FFFFFFC0
ENDCHAR
STARTCHAR 015B
ENCODING 347
SWIDTH 404 0
DWIDTH 34 0
BBX 24 59 5 0
BITMAP
000060
0000C0
000180
000380
000300
000600
000C00
001800
003000
002000
006000
000000
000000
000000
000000
000000
000000
0FFFFF
1FFFFF
300000
600000
400000
C00000
C00000
C00000
C00000
C00000
C00000
600000
700000
380000
1C0000
0E0000
078000
01C000
00E000
003800
001C00
000F00
000380
0001E0
000070
000038
00001C
00000E
000006
000003
000003
000003
000003
000003
000003
000003
000003
000003
000006
00000E
FFFFFC
FFFFF0
ENDCHAR
STARTCHAR 015C
ENCODING 348
SWIDTH 511 0
DWIDTH 43 0
BBX 30 70 6 0
BITMAP
00010000
0003C000
0006E000
000C7000
00183800
00300C00
00400600
01800300
00000000
00000000
00000000
0FFFFFFC
1FFFFFFC
30000000
60000000
60000000
C0000000
C0000000
C0000000
C0000000
C0000000
C0000000
C0000000
C0000000
C0000000
C0000000
C0000000
60000000
60000000
30000000
1C000000
0E000000
07000000
03800000
00E00000
00700000
00380000
001C0000
00060000
00038000
0001C000
0000E000
00007000
00001C00
00000E00
00000700
00000380
000000C0
00000070
00000030
00000018
00000018
0000000C
0000000C
0000000C
0000000C
0000000C
0000000C
0000000C
0000000C
0000000C
0000000C
0000000C
0000000C
0000000C
0000000C
00000018
00000038
FFFFFFF0
FFFFFFC0
ENDCHAR
STARTCHAR 015D
ENCODING 349
SWIDTH 404 0
DWIDTH 34 0
BBX 24 59 5 0
BITMAP
000C00
001E00
003F00
003300
006180
00C0C0
018060
010020
030030
060018
0C000C
000000
000000
000000
000000
000000
000000
0FFFF8
3FFFF8
700000
600000
C00000
C00000
C00000
C00000
C00000
C00000
C00000
600000
700000
380000
1C0000
0E0000
078000
01C000
00E000
003800
001C00
000F00
000380
0001E0
000070
000038
00001C
00000E
000006
000003
000003
000003
000003
000003
000003
000003
000003
000003
000006
00000E
FFFFFC
FFFFF0
ENDCHAR
STARTCHAR 015E
ENCODING 350
SWIDTH 511 0
DWIDTH 43 0
BBX 30 76 6 -17
BITMAP
0FFFFFFC
1FFFFFFC
30000000
60000000
60000000
C0000000
C0000000
C0000000
C0000000
C0000000
C0000000
C0000000
C0000000
C0000000
C0000000
C0000000
60000000
60000000
30000000
1C000000
0E000000
07000000
03800000
00E00000
00700000
00380000
001C0000
00060000
00038000
0001C000
0000E000
00007000
00001C00
00000E00
00000700
00000380
000000C0
00000070
00000030
00000018
00000018
0000000C
0000000C
0000000C
0000000C
0000000C
0000000C
0000000C
0000000C
0000000C
0000000C
0000000C
0000000C
0000000C
0000000C
00000018
00000038
FFFFFFF0
FFFFFFC0
00060000
00060000
00040000
000FE000
000FF800
00001C00
00000C00
00000600
00000600
00000600
00000600
00000600
00000600
00000400
00000C00
00FFF800
00FFE000
ENDCHAR
STARTCHAR 015F
ENCODING 351
SWIDTH 404 0
DWIDTH 34 0
BBX 24 59 5 -17
BITMAP
0FFFFF
1FFFFF
300000
600000
400000
C00000
C00000
C00000
C00000
C00000
C00000
600000
700000
380000
1C0000
0E0000
078000
01C000
00E000
003800
001C00
000F00
000380
0001E0
000070
000038
00001C
00000E
000006
000003
000003
000003
000003
000003
000003
000003
000003
000003
000006
00000E
FFFFFC
FFFFF0
003000
003000
002000
007F00
007FC0
0000E0
000060
000030
000030
000030
000030
000030
000030
000020
000060
07FFC0
07FF00
ENDCHAR
STARTCHAR 0160
ENCODING 352
SWIDTH 511 0
DWIDTH 43 0
BBX 30 70 6 0
BITMAP
03000300
01800600
00C00C00
00601800
00383000
001CE000
000FC000
00078000
00000000
00000000
00000000
0FFFFFFC
1FFFFFFC
30000000
60000000
60000000
C0000000
C0000000
C0000000
C0000000
C0000000
C0000000
C0000000
C0000000
C0000000
C0000000
C0000000
60000000
60000000
30000000
1C000000
0E000000
07000000
03800000
00E00000
00700000
00380000
001C0000
00060000
00038000
0001C000
0000E000
00007000
00001C00
00000E00
00000700
00000380
000000C0
00000070
00000030
00000018
00000018
0000000C
0000000C
0000000C
0000000C
0000000C
0000000C
0000000C
0000000C
0000000C
0000000C
0000000C
0000000C
0000000C
0000000C
00000018
00000038
FFFFFFF0
FFFFFFC0
ENDCHAR
STARTCHAR 0161
ENCODING 353
SWIDTH 404 0
DWIDTH 34 0
BBX 24 59 5 0
BITMAP
180018
080030
0C0020
060060
0300C0
018180
00C300
00E600
007E00
003C00
001800
000000
000000
000000
000000
000000
000000
0FFFF0
3FFFF0
700000
600000
C00000
C00000
C00000
C00000
C00000
C00000
C00000
600000
700000
380000
1C0000
0E0000
078000
01C000
00E000
003800
001C00
000F00
000380
0001E0
000070
000038
00001C
00000E
000006
000003
000003
000003
000003
000003
000003
000003
000003
000003
000006
00000E
FFFFFC
FFFFF0
ENDCHAR
STARTCHAR 0162
ENCODING 354
SWIDTH 464 0
DWIDTH 39 0
BBX 33 76 2 -17
BITMAP
FFFFFFFF80
FFFFFFFF80
0000C00000
0000C00000
0000C00000
0000C00000
0000C00000
0000C00000
0000C00000
0000C00000
0000C00000
0000C00000
0000C00000
0000C00000
0000C00000
0000C00000
0000C00000
0000C00000
0000C00000
0000C00000
0000C00000
0000C00000
0000C00000
0000C00000
0000C00000
0000C00000
0000C00000
0000C00000
0000C00000
0000C00000
0000C00000
0000C00000
0000C00000
0000C00000
0000C00000
0000C00000
0000C00000
0000C00000
0000C00000
0000C00000
0000C00000
0000C00000
0000C00000
0000C00000
0000C00000
0000C00000
0000C00000
0000C00000
0000C00000
0000C00000
0000C00000
0000C00000
0000C00000
0000C00000
0000C00000
0000C00000
0000C00000
0000C00000
0000C00000
0000000000
0000000000
0000000000
0000C00000
0000C00000
0000C00000
0000C00000
0000C00000
0000C00000
0001800000
0001800000
0001800000
0003000000
0003000000
0003000000
0006000000
0006000000
ENDCHAR
STARTCHAR 0163
ENCODING 355
SWIDTH 285 0
DWIDTH 24 0
BBX 14 69 7 -16
BITMAP
4000
C000
C000
C000
C000
C000
C000
C000
C000
C000
FFFC
FFFC
C000
C000
C000
C000
C000
C000
C000
C000
C000
C000
C000
C000
C000
C000
C000
C000
C000
C000
C000
C000
C000
C000
C000
C000
C000
C000
C000
C000
C000
C000
C000
C000
C000
C000
C000
C000
6000
7000
3FFC
0FFC
0000
0000
0000
00C0
00C0
00C0
00C0
00C0
01C0
0180
0380
0300
0700
0600
0E00
0E00
1C00
ENDCHAR
STARTCHAR 0164
ENCODING 356
SWIDTH 464 0
DWIDTH 39 0
BBX 34 70 3 0
BITMAP
00C000C000
0060018000
0030030000
0018060000
000C0C0000
0007380000
0003F00000
0001C00000
0000000000
0000000000
0000000000
FFFFFFFFC0
FFFFFFFFC0
0000C00000
0000C00000
0000C00000
0000C00000
0000C00000
0000C00000
0000C00000
0000C00000
0000C00000
0000C00000
0000C00000
0000C00000
0000C00000
0000C00000
0000C00000
0000C00000
0000C00000
0000C00000
0000C00000
0000C00000
0000C00000
0000C00000
0000C00000
0000C00000
0000C00000
0000C00000
0000C00000
0000C00000
0000C00000
0000C00000
0000C00000
0000C00000
0000C00000
0000C00000
0000C00000
0000C00000
0000C00000
0000C00000
0000C00000
0000C00000
0000C00000
0000C00000
0000C00000
0000C00000
0000C00000
0000C00000
0000C00000
0000C00000
0000C00000
0000C00000
0000C00000
0000C00000
0000C00000
0000C00000
0000C00000
0000C00000
0000C00000
ENDCHAR
STARTCHAR 0165
ENCODING 357
SWIDTH 285 0
DWIDTH 24 0
BBX 14 59 7 0
BITMAP
0030
0070
0070
0070
0070
0060
0060
4060
C060
C060
C060
C060
C060
C000
C000
C000
C000
FFFC
FFFC
C000
C000
C000
C000
C000
C000
C000
C000
C000
C000
C000
C000
C000
C000
C000
C000
C000
C000
C000
C000
C000
C000
C000
C000
C000
C000
C000
C000
C000
C000
C000
C000
C000
C000
C000
C000
6000
7000
3FFC
0FFC
ENDCHAR
STARTCHAR 0166
ENCODING 358
SWIDTH 464 0
DWIDTH 39 0
BBX 37 59 1 0
BITMAP
FFFFFFFFF8
FFFFFFFFF8
0000600000
0000600000
0000600000
0000600000
0000600000
0000600000
0000600000
0000600000
0000600000
0000600000
0000600000
0000600000
0000600000
0000600000
0000600000
0000600000
0000600000
0000600000
0000600000
0000600000
0000600000
0000600000
0000600000
0000600000
0000600000
0000600000
0000600000
0000600000
0000600000
0000600000
0000600000
0FFFFFFF80
0FFFFFFF80
0000600000
0000600000
0000600000
0000600000
0000600000
0000600000
0000600000
0000600000
0000600000
0000600000
0000600000
0000600000
0000600000
0000600000
0000600000
0000600000
0000600000
0000600000
0000600000
0000600000
0000600000
0000600000
0000600000
0000600000
ENDCHAR
STARTCHAR 0167
ENCODING 359
SWIDTH 285 0
DWIDTH 24 0
BBX 19 52 2 1
BITMAP
020000
060000
060000
060000
060000
060000
060000
060000
060000
060000
07FFE0
07FFE0
060000
060000
060000
060000
060000
060000
060000
060000
060000
060000
060000
060000
060000
060000
FFFFE0
FFFFE0
060000
060000
060000
060000
060000
060000
060000
060000
060000
060000
060000
060000
060000
060000
060000
060000
060000
060000
060000
060000
030000
038000
01FFE0
007FE0
ENDCHAR
STARTCHAR 0168
ENCODING 360
SWIDTH 547 0
DWIDTH 46 0
BBX 32 70 7 0
BITMAP
00F00018
03FC0018
070E0018
06038018
0C01C018
0C006038
0C003870
0C001FE0
0C0007C0
00000000
00000000
C000001F
C000001F
C000001F
C000001F
C000001F
C000001F
C000001F
C000001F
C000001F
C000001F
C000001F
C000001F
C000001F
C000001F
C000001F
C000001F
C000001F
C000001F
C000001F
C000001F
C000001F
C000001F
C000001F
C000001F
C000001F
C000001F
C000001F
C000001F
C000001F
C000001F
C000001F
C000001F
C000001F
C000001F
C000001F
C000001F
C000001F
C000001F
C000001F
C000001F
C000001F
C000001F
C000001F
C000001F
C000001F
C000001F
C000001F
C000001F
C000001F
C000001F
C000001F
C000001F
C000001F
C000001F
E000001F
6000003E
7000007E
3FFFFFFC
0FFFFFF0
ENDCHAR
STARTCHAR 0169
ENCODING 361
SWIDTH 476 0
DWIDTH 40 0
BBX 26 59 7 0
BITMAP
0F8000C0
3FC000C0
706000C0
603000C0
601800C0
C00C00C0
C00600C0
C0030180
C001C380
C000FF00
C0003E00
00000000
00000000
00000000
00000000
00000000
00000000
C00000C0
C00000C0
C00000C0
C00000C0
C00000C0
C00000C0
C00000C0
C00000C0
C00000C0
C00000C0
C00000C0
C00000C0
C00000C0
C00000C0
C00000C0
C00000C0
C00000C0
C00000C0
C00000C0
C00000C0
C00000C0
C00000C0
C00000C0
C00000C0
C00000C0
C00000C0
C00000C0
C00000C0
C00000C0
C00000C0
C00000C0
C00000C0
C00000C0
C00000C0
C00000C0
C00000C0
C00000C0
C00000C0
600000C0
700000C0
3FFFFFC0
0FFFFFC0
ENDCHAR
STARTCHAR 016A
ENCODING 362
SWIDTH 547 0
DWIDTH 46 0
BBX 32 67 7 0
BITMAP
00FFFF00
00FFFF00
00000000
00000000
00000000
00000000
00000000
00000000
C0000003
C0000003
C0000003
C0000003
C0000003
C0000003
C0000003
C0000003
C0000003
C0000003
C0000003
C0000003
C0000003
C0000003
C0000003
C0000003
C0000003
C0000003
C0000003
C0000003
C0000003
C0000003
C0000003
C0000003
C0000003
C0000003
C0000003
C0000003
C0000003
C0000003
C0000003
C0000003
C0000003
C0000003
C0000003
C0000003
C0000003
C0000003
C0000003
C0000003
C0000003
C0000003
C0000003
C0000003
C0000003
C0000003
C0000003
C0000003
C0000003
C0000003
C0000003
C0000003
C0000003
C0000003
E0000003
60000006
7000000E
3FFFFFFC
0FFFFFF0
ENDCHAR
STARTCHAR 016B
ENCODING 363
SWIDTH 476 0
DWIDTH 40 0
BBX 26 54 7 0
BITMAP
07FFF800
07FFF800
00000000
00000000
00000000
00000000
00000000
00000000
00000000
00000000
00000000
00000000
C00000C0
C00000C0
C00000C0
C00000C0
C00000C0
C00000C0
C00000C0
C00000C0
C00000C0
C00000C0
C00000C0
C00000C0
C00000C0
C00000C0
C00000C0
C00000C0
C00000C0
C00000C0
C00000C0
C00000C0
C00000C0
C00000C0
C00000C0
C00000C0
C00000C0
C00000C0
C00000C0
C00000C0
C00000C0
C00000C0
C00000C0
C00000C0
C00000C0
C00000C0
C00000C0
C00000C0
C00000C0
C00000C0
600000C0
700000C0
3FFFFFC0
0FFFFFC0
ENDCHAR
STARTCHAR 016C
ENCODING 364
SWIDTH 547 0
DWIDTH 46 0
BBX 32 70 7 1
BITMAP
00C00180
00C00180
00C00180
00C00180
00E00180
00700700
003FFE00
001FFC00
00000000
00000000
00000000
C0000003
C0000003
C0000003
C0000003
C0000003
C0000003
C0000003
C0000003
C0000003
C0000003
C0000003
C0000003
C0000003
C0000003
C0000003
C0000003
C0000003
C0000003
C0000003
C0000003
C0000003
C0000003
C0000003
C0000003
C0000003
C0000003
C0000003
C0000003
C0000003
C0000003
C0000003
C0000003
C0000003
C0000003
C0000003
C0000003
C0000003
C0000003
C0000003
C0000003
C0000003
C0000003
C0000003
C0000003
C0000003
C0000003
C0000003
C0000003
C0000003
C0000003
C0000003
C0000003
C0000003
C0000003
E0000003
60000006
7000000E
3FFFFFFC
0FFFFFF0
ENDCHAR
STARTCHAR 016D
ENCODING 365
SWIDTH 476 0
DWIDTH 40 0
BBX 26 59 7 0
BITMAP
0C000C00
0C000C00
0C000C00
0C000C00
0C000C00
06000C00
06001800
07803800
03FFF000
00FFC000
00000000
00000000
00000000
00000000
00000000
00000000
00000000
C00000C0
C00000C0
C00000C0
C00000C0
C00000C0
C00000C0
C00000C0
C00000C0
C00000C0
C00000C0
C00000C0
C00000C0
C00000C0
C00000C0
C00000C0
C00000C0
C00000C0
C00000C0
C00000C0
C00000C0
C00000C0
C00000C0
C00000C0
C00000C0
C00000C0
C00000C0
C00000C0
C00000C0
C00000C0
C00000C0
C00000C0
C00000C0
C00000C0
C00000C0
C00000C0
C00000C0
C00000C0
C00000C0
600000C0
700000C0
3FFFFFC0
0FFFFFC0
ENDCHAR
STARTCHAR 016E
ENCODING 366
SWIDTH 547 0
DWIDTH 46 0
BBX 32 71 7 0
BITMAP
000FF800
003FFE00
00600700
00C00180
00C00180
00C00180
00C00180
00600300
007FFF00
001FFC00
00000000
00000000
C0000003
C0000003
C0000003
C0000003
C0000003
C0000003
C0000003
C0000003
C0000003
C0000003
C0000003
C0000003
C0000003
C0000003
C0000003
C0000003
C0000003
C0000003
C0000003
C0000003
C0000003
C0000003
C0000003
C0000003
C0000003
C0000003
C0000003
C0000003
C0000003
C0000003
C0000003
C0000003
C0000003
C0000003
C0000003
C0000003
C0000003
C0000003
C0000003
C0000003
C0000003
C0000003
C0000003
C0000003
C0000003
C0000003
C0000003
C0000003
C0000003
C0000003
C0000003
C0000003
C0000003
C0000003
E0000003
60000006
7000000E
3FFFFFFC
0FFFFFF0
ENDCHAR
STARTCHAR 016F
ENCODING 367
SWIDTH 476 0
DWIDTH 40 0
BBX 26 61 7 0
BITMAP
01FFE000
03FFF000
07003800
0E001C00
0C000C00
0C000C00
0C000C00
0C000C00
0C000C00
0E000C00
07001800
03FFF000
01FFE000
00000000
00000000
00000000
00000000
00000000
00000000
C00000C0
C00000C0
C00000C0
C00000C0
C00000C0
C00000C0
C00000C0
C00000C0
C00000C0
C00000C0
C00000C0
C00000C0
C00000C0
C00000C0
C00000C0
C00000C0
C00000C0
C00000C0
C00000C0
C00000C0
C00000C0
C00000C0
C00000C0
C00000C0
C00000C0
C00000C0
C00000C0
C00000C0
C00000C0
C00000C0
C00000C0
C00000C0
C00000C0
C00000C0
C00000C0
C00000C0
C00000C0
C00000C0
600000C0
700000C0
3FFFFFC0
0FFFFFC0
ENDCHAR
STARTCHAR 0170
ENCODING 368
SWIDTH 547 0
DWIDTH 46 0
BBX 32 70 7 0
BITMAP
0000C030
00018060
000300C0
00060180
000C0300
00180600
00300C00
00601000
00000000
00000000
00000000
C0000003
C0000003
C0000003
C0000003
C0000003
C0000003
C0000003
C0000003
C0000003
C0000003
C0000003
C0000003
C0000003
C0000003
C0000003
C0000003
C0000003
C0000003
C0000003
C0000003
C0000003
C0000003
C0000003
C0000003
C0000003
C0000003
C0000003
C0000003
C0000003
C0000003
C0000003
C0000003
C0000003
C0000003
C0000003
C0000003
C0000003
C0000003
C0000003
C0000003
C0000003
C0000003
C0000003
C0000003
C0000003
C0000003
C0000003
C0000003
C0000003
C0000003
C0000003
C0000003
C0000003
C0000003
E0000003
60000006
7000000E
3FFFFFFC
0FFFFFF0
ENDCHAR
STARTCHAR 0171
ENCODING 369
SWIDTH 476 0
DWIDTH 40 0
BBX 25 59 7 0
BITMAP
00060300
000C0700
001C0600
00180C00
00301800
00601000
00403000
00C06000
01804000
01008000
02018000
00000000
00000000
00000000
00000000
00000000
00000000
C0000180
C0000180
C0000180
C0000180
C0000180
C0000180
C0000180
C0000180
C0000180
C0000180
C0000180
C0000180
C0000180
C0000180
C0000180
C0000180
C0000180
C0000180
C0000180
C0000180
C0000180
C0000180
C0000180
C0000180
C0000180
C0000180
C0000180
C0000180
C0000180
C0000180
C0000180
C0000180
C0000180
C0000180
C0000180
C0000180
C0000180
C0000180
60000180
70000180
3FFFFF80
0FFFFF80
ENDCHAR
STARTCHAR 0172
ENCODING 370
SWIDTH 547 0
DWIDTH 46 0
BBX 32 74 7 -16
BITMAP
C0000003
C0000003
C0000003
C0000003
C0000003
C0000003
C0000003
C0000003
C0000003
C0000003
C0000003
C0000003
C0000003
C0000003
C0000003
C0000003
C0000003
C0000003
C0000003
C0000003
C0000003
C0000003
C0000003
C0000003
C0000003
C0000003
C0000003
C0000003
C0000003
C0000003
C0000003
C0000003
C0000003
C0000003
C0000003
C0000003
C0000003
C0000003
C0000003
C0000003
C0000003
C0000003
C0000003
C0000003
C0000003
C0000003
C0000003
C0000003
C0000003
C0000003
C0000003
C0000003
C0000003
C0000003
60000006
60000006
3800001C
1FFFFFF8
07FFFFE0
00000C00
00007000
0001C000
00070000
000E0000
000C0000
00180000
00180000
00180000
00180000
00180000
00180000
000C0000
000FFE00
0003FE00
ENDCHAR
STARTCHAR 0173
ENCODING 371
SWIDTH 476 0
DWIDTH 40 0
BBX 26 59 7 -17
BITMAP
C00000C0
C00000C0
C00000C0
C00000C0
C00000C0
C00000C0
C00000C0
C00000C0
C00000C0
C00000C0
C00000C0
C00000C0
C00000C0
C00000C0
C00000C0
C00000C0
C00000C0
C00000C0
C00000C0
C00000C0
C00000C0
C00000C0
C00000C0
C00000C0
C00000C0
C00000C0
C00000C0
C00000C0
C00000C0
C00000C0
C00000C0
C00000C0
C00000C0
C00000C0
C00000C0
C00000C0
C00000C0
C00000C0
600000C0
700000C0
1FFFFFC0
07FFFFC0
00000180
00000600
00001C00
00003000
00006000
0000C000
00018000
00018000
00018000
00018000
00018000
00018000
00018000
00018000
0000C000
0000FFC0
00003FC0
ENDCHAR
STARTCHAR 0174
ENCODING 372
SWIDTH 773 0
DWIDTH 65 0
BBX 59 70 3 0
BITMAP
0000000C00000000
0000001E00000000
0000003700000000
0000006180000000
000000C0C0000000
0000018060000000
0000030030000000
0000040018000000
0000000000000000
0000000000000000
0000000000000000
C000000C00000060
C000000C00000060
6000000E000000C0
6000001E000000C0
6000001E000000C0
60000016000000C0
2000001200000180
3000003300000180
3000003300000180
3000003300000180
1000002100000300
1800002180000300
1800006180000300
1800006180000200
0800004180000600
0C00004080000600
0C000040C0000600
0C0000C0C0000400
0C0000C0C0000C00
06000080C0000C00
0600008040000C00
0600018060000800
0600018060001800
0300018060001800
0300010060001800
0300010030003000
0300030030003000
0180030030003000
0180020030003000
0180020010006000
0180020018006000
00C0060018006000
00C0060018004000
00C004001800C000
00C004000800C000
00400C000C00C000
00600C000C008000
00600C000C018000
006008000C018000
0020080006018000
0030180006010000
0030180006030000
0030100006030000
0010100002030000
0018300003020000
0018300003060000
0018300003060000
0008200003060000
000C200001040000
000C6000018C0000
000C6000018C0000
000C6000018C0000
0006400001880000
0006400000980000
0006C00000D80000
0006C00000D00000
0003800000F00000
0003800000F00000
0003800000700000
ENDCHAR
STARTCHAR 0175
ENCODING 373
SWIDTH 607 0
DWIDTH 51 0
BBX 46 59 3 0
BITMAP
000003000000
000007800000
00000FC00000
00000CC00000
000018600000
000030300000
000060180000
000040180000
0000C00C0000
000180060000
000300030000
000000000000
000000000000
000000000000
000000000000
000000000000
000000000000
C0000300000C
C0000380000C
600007800018
600007800018
600004800018
700004800030
300004C00030
30000CC00030
30000CC00030
180008400060
180008600060
180018600060
180018600040
0C00102000C0
0C00102000C0
0C00103000C0
060030300180
060030300180
060020100180
060020180100
030060180300
030060180300
030040080300
030040080200
0180C00C0600
0180C00C0600
0180C00C0400
00C080040C00
00C080040C00
00C180060C00
00C180060800
006100061800
006100021800
006300031000
002300031000
003300033000
003200013000
003200012000
001E0001E000
001E0001E000
001C0001C000
001C0000C000
ENDCHAR
STARTCHAR 0176
ENCODING 374
SWIDTH 523 0
DWIDTH 44 0
BBX 42 69 1 1
BITMAP
00001C000000
00003F000000
000063800000
0000C1C00000
000180600000
000300300000
000600180000
000000000000
000000000000
000000000000
C000000000C0
E00000000180
700000000380
300000000300
380000000700
180000000600
0C0000000C00
0E0000001C00
060000001800
070000003000
030000003000
018000006000
01C00000E000
00C00000C000
006000018000
007000038000
003000030000
003800060000
001800060000
000C000C0000
000E001C0000
000600180000
000700300000
000300300000
000180600000
0001C0C00000
0000C0C00000
000061800000
000063800000
000033000000
00003E000000
00001E000000
00000C000000
00000C000000
00000C000000
00000C000000
00000C000000
00000C000000
00000C000000
00000C000000
00000C000000
00000C000000
00000C000000
00000C000000
00000C000000
00000C000000
00000C000000
00000C000000
00000C000000
00000C000000
00000C000000
00000C000000
00000C000000
00000C000000
00000C000000
00000C000000
00000C000000
00000C000000
00000C000000
ENDCHAR
STARTCHAR 0177
ENCODING 375
SWIDTH 392 0
DWIDTH 33 0
BBX 30 76 2 -17
BITMAP
00030000
00078000
000FC000
000CC000
00186000
00303000
00601800
00401800
00C00C00
01800600
03000300
00000000
00000000
00000000
00000000
00000000
00000000
C000000C
E000001C
60000018
60000018
70000038
30000030
30000030
38000070
18000060
18000060
1C000060
0C0000C0
0C0000C0
0C0000C0
06000180
06000180
06000180
03000300
03000300
03000300
01800600
01800600
01800600
00C00C00
00C00C00
00C00C00
00601800
00601800
00601800
00301000
00303000
00303000
00182000
00186000
00186000
00084000
000CC000
000CC000
00048000
00078000
00078000
00030000
00030000
00030000
00030000
00060000
00060000
00060000
000C0000
000C0000
000C0000
00180000
00180000
00180000
00300000
00300000
00300000
00600000
00600000
ENDCHAR
STARTCHAR 0178
ENCODING 376
SWIDTH 523 0
DWIDTH 44 0
BBX 42 67 1 0
BITMAP
000180600000
000180600000
000000000000
000000000000
000000000000
000000000000
000000000000
000000000000
C000000000C0
E000000001C0
700000000180
300000000300
380000000700
180000000600
0C0000000C00
0E0000001C00
060000001800
070000003800
038000003000
018000006000
01C00000E000
00C00000C000
006000018000
007000018000
003000030000
003800070000
001800060000
000C000C0000
000E001C0000
000600180000
000300300000
000380300000
000180600000
0000C0E00000
0000C0C00000
000061800000
000071800000
000033000000
00001E000000
00001E000000
00000C000000
00000C000000
00000C000000
00000C000000
00000C000000
00000C000000
00000C000000
00000C000000
00000C000000
00000C000000
00000C000000
00000C000000
00000C000000
00000C000000
00000C000000
00000C000000
00000C000000
00000C000000
00000C000000
00000C000000
00000C000000
00000C000000
00000C000000
00000C000000
00000C000000
00000C000000
00000C000000
ENDCHAR
STARTCHAR 0179
ENCODING 377
SWIDTH 511 0
DWIDTH 43 0
BBX 34 70 4 0
BITMAP
0000038000
0000060000
00000C0000
0000380000
0000700000
0000C00000
0001800000
0003000000
0000000000
0000000000
0000000000
FFFFFFFFC0
FFFFFFFFC0
00000000C0
0000000180
0000000100
0000000300
0000000200
0000000600
0000000C00
0000000C00
0000001800
0000001000
0000003000
0000002000
0000006000
000000C000
000000C000
0000018000
0000010000
0000030000
0000060000
0000060000
00000C0000
00000C0000
0000180000
0000100000
0000300000
0000600000
0000600000
0000C00000
0000C00000
0001800000
0003000000
0003000000
0006000000
0006000000
000C000000
0008000000
0018000000
0030000000
0030000000
0060000000
0060000000
00C0000000
0180000000
0180000000
0300000000
0300000000
0600000000
0600000000
0C00000000
1800000000
1800000000
3000000000
3000000000
6000000000
E000000000
FFFFFFFFC0
FFFFFFFFC0
ENDCHAR
STARTCHAR 017A
ENCODING 378
SWIDTH 404 0
DWIDTH 34 0
BBX 26 59 4 0
BITMAP
00001800
00003000
00007000
0000E000
0000C000
00018000
00030000
00060000
000C0000
00080000
00180000
00000000
00000000
00000000
00000000
00000000
00000000
FFFFFFC0
FFFFFFC0
00000080
00000180
00000100
00000300
00000600
00000400
00000C00
00001800
00001000
00003000
00002000
00006000
0000C000
00008000
00018000
00030000
00020000
00060000
000C0000
000C0000
00180000
00100000
00300000
00600000
00600000
00C00000
01800000
01800000
03000000
06000000
06000000
0C000000
0C000000
18000000
30000000
30000000
60000000
E0000000
FFFFFFC0
FFFFFFC0
ENDCHAR
STARTCHAR 017B
ENCODING 379
SWIDTH 511 0
DWIDTH 43 0
BBX 34 66 4 0
BITMAP
0000C00000
0000C00000
0000000000
0000000000
0000000000
0000000000
0000000000
FFFFFFFFC0
FFFFFFFFC0
00000000C0
0000000180
0000000100
0000000300
0000000200
0000000600
0000000C00
0000000C00
0000001800
0000001000
0000003000
0000002000
0000006000
000000C000
000000C000
0000018000
0000010000
0000030000
0000060000
0000060000
00000C0000
00000C0000
0000180000
0000100000
0000300000
0000600000
0000600000
0000C00000
0000C00000
0001800000
0003000000
0003000000
0006000000
0006000000
000C000000
0008000000
0018000000
0030000000
0030000000
0060000000
0060000000
00C0000000
0180000000
0180000000
0300000000
0300000000
0600000000
0600000000
0C00000000
1800000000
1800000000
3000000000
3000000000
6000000000
E000000000
FFFFFFFFC0
FFFFFFFFC0
ENDCHAR
STARTCHAR 017C
ENCODING 380
SWIDTH 404 0
DWIDTH 34 0
BBX 26 52 4 0
BITMAP
000C0000
000C0000
000C0000
00000000
00000000
00000000
00000000
00000000
00000000
00000000
FFFFFFC0
FFFFFFC0
00000080
00000180
00000100
00000300
00000600
00000400
00000C00
00001800
00001000
00003000
00002000
00006000
0000C000
00008000
00018000
00030000
00020000
00060000
000C0000
000C0000
00180000
00100000
00300000
00600000
00600000
00C00000
01800000
01800000
03000000
06000000
06000000
0C000000
0C000000
18000000
30000000
30000000
60000000
E0000000
FFFFFFC0
FFFFFFC0
ENDCHAR
STARTCHAR 017D
ENCODING 381
SWIDTH 511 0
DWIDTH 43 0
BBX 34 70 4 0
BITMAP
004000C000
0020018000
0018030000
000C060000
00060C0000
0003180000
0001B00000
0000E00000
0000000000
0000000000
0000000000
FFFFFFFFC0
FFFFFFFFC0
00000000C0
0000000180
0000000100
0000000300
0000000600
0000000600
0000000C00
0000000C00
0000001800
0000001000
0000003000
0000006000
0000006000
000000C000
000000C000
0000018000
0000030000
0000030000
0000060000
0000060000
00000C0000
00000C0000
0000180000
0000300000
0000300000
0000600000
0000600000
0000C00000
0000C00000
0001800000
0003000000
0003000000
0006000000
0006000000
000C000000
0018000000
0018000000
0030000000
0030000000
0060000000
0060000000
00C0000000
0180000000
0180000000
0300000000
0300000000
0600000000
0E00000000
0C00000000
1800000000
1800000000
3000000000
3000000000
6000000000
E000000000
FFFFFFFFC0
FFFFFFFFC0
ENDCHAR
STARTCHAR 017E
ENCODING 382
SWIDTH 404 0
DWIDTH 34 0
BBX 26 59 4 0
BITMAP
06000400
03000C00
01001800
01803000
00C06000
00604000
0030C000
00318000
001B0000
000E0000
00060000
00000000
00000000
00000000
00000000
00000000
00000000
FFFFFFC0
FFFFFFC0
00000180
00000180
00000300
00000300
00000600
00000C00
00000C00
00001800
00003000
00003000
00006000
00006000
0000C000
00018000
00018000
00030000
00060000
00060000
000C0000
000C0000
00180000
00300000
00300000
00600000
00600000
00C00000
01800000
01800000
03000000
06000000
06000000
0C000000
0C000000
18000000
30000000
30000000
60000000
E0000000
FFFFFFC0
FFFFFFC0
ENDCHAR
STARTCHAR 0192
ENCODING 402
SWIDTH 273 0
DWIDTH 23 0
BBX 26 76 -3 -17
BITMAP
0000FFC0
0003FFC0
00070000
00060000
000C0000
000C0000
000C0000
000C0000
000C0000
000C0000
000C0000
000C0000
000C0000
000C0000
000C0000
000C0000
000C0000
000FFFC0
000FFFC0
000C0000
000C0000
000C0000
000C0000
000C0000
000C0000
000C0000
000C0000
000C0000
000C0000
000C0000
000C0000
000C0000
000C0000
000C0000
000C0000
000C0000
000C0000
000C0000
000C0000
000C0000
000C0000
000C0000
000C0000
000C0000
000C0000
000C0000
000C0000
000C0000
000C0000
000C0000
000C0000
000C0000
000C0000
000C0000
000C0000
000C0000
000C0000
000C0000
000C0000
000C0000
000C0000
000C0000
000C0000
000C0000
000C0000
000C0000
000C0000
000C0000
000C0000
000C0000
000C0000
000C0000
00180000
00380000
FFF00000
FFC00000
ENDCHAR
STARTCHAR 0218
ENCODING 536
SWIDTH 464 0
DWIDTH 39 0
BBX 26 59 6 0
BITMAP
00003000
00006000
0000C000
00018000
00018000
00030000
00060000
000C0000
00080000
00180000
00300000
00000000
00000000
00000000
00000000
00000000
00000000
FFFFFC00
FFFFFF00
00000380
00000180
000000C0
000000C0
000000C0
000000C0
000000C0
000000C0
000000C0
000000C0
000000C0
000000C0
000000C0
000000C0
0FFFFFC0
1FFFFFC0
300000C0
600000C0
600000C0
C00000C0
C00000C0
C00000C0
C00000C0
C00000C0
C00000C0
C00000C0
C00000C0
C00000C0
C00000C0
C00000C0
C00000C0
C00000C0
C00000C0
C00000C0
C00000C0
C00000C0
600000C0
700000C0
3FFFFFC0
0FFFFFC0
ENDCHAR
STARTCHAR 0219
ENCODING 537
SWIDTH 511 0
DWIDTH 43 0
BBX 30 76 6 -17
BITMAP
0FFFFFFC
1FFFFFFC
30000000
60000000
60000000
C0000000
C0000000
C0000000
C0000000
C0000000
C0000000
C0000000
C0000000
C0000000
C0000000
C0000000
60000000
60000000
30000000
1C000000
0E000000
07000000
03800000
00E00000
00700000
00380000
001C0000
00060000
00038000
0001C000
0000E000
00007000
00001C00
00000E00
00000700
00000380
000000C0
00000070
00000030
00000018
00000018
0000000C
0000000C
0000000C
0000000C
0000000C
0000000C
0000000C
0000000C
0000000C
0000000C
0000000C
0000000C
0000000C
0000000C
00000018
00000038
FFFFFFF0
FFFFFFC0
00000000
00000000
00000000
00018000
00018000
00018000
00018000
00018000
00018000
00030000
00030000
00070000
00060000
000E0000
000C0000
000C0000
00180000
ENDCHAR
STARTCHAR 02C6
ENCODING 710
SWIDTH 380 0
DWIDTH 32 0
BBX 18 11 7 48
BITMAP
00C000
01E000
03F000
033000
061800
0C0C00
180600
100600
300300
600180
C000C0
ENDCHAR
STARTCHAR 02C7
ENCODING 711
SWIDTH 380 0
DWIDTH 32 0
BBX 18 11 7 48
BITMAP
C000C0
600180
300300
100200
180600
0C0C00
061800
033000
03F000
01E000
00C000
ENDCHAR
STARTCHAR 02D8
ENCODING 728
SWIDTH 357 0
DWIDTH 30 0
BBX 17 10 7 49
BITMAP
C00180
C00180
C00180
C00180
C00180
C00180
600300
700700
3FFE00
0FF800
ENDCHAR
STARTCHAR 02D9
ENCODING 729
SWIDTH 178 0
DWIDTH 15 0
BBX 2 3 7 49
BITMAP
C0
C0
C0
ENDCHAR
STARTCHAR 02DA
ENCODING 730
SWIDTH 357 0
DWIDTH 30 0
BBX 17 13 7 48
BITMAP
1FFC00
7FFF00
600300
C00180
C00180
C00180
C00180
C00180
C00180
C00180
600300
7FFF00
1FFC00
ENDCHAR
STARTCHAR 02DB
ENCODING 731
SWIDTH 309 0
DWIDTH 26 0
BBX 12 17 7 -17
BITMAP
0070
0180
0700
1C00
3000
6000
E000
C000
C000
C000
C000
C000
C000
C000
6000
3FF0
1FF0
ENDCHAR
STARTCHAR 02DC
ENCODING 732
SWIDTH 452 0
DWIDTH 38 0
BBX 25 11 7 48
BITMAP
0F000180
3FC00180
70E00180
60300180
60180180
C00C0180
C0060180
C0030300
C0038700
C000FE00
C0007C00
ENDCHAR
STARTCHAR 02DD
ENCODING 733
SWIDTH 392 0
DWIDTH 33 0
BBX 19 11 7 48
BITMAP
018060
0380C0
030180
060300
0C0300
080600
180C00
300800
201800
403000
C06000
ENDCHAR
STARTCHAR 0394
ENCODING 916
SWIDTH 500 0
DWIDTH 42 0
BBX 39 59 2 0
BITMAP
0000380000
00003C0000
00006C0000
00006C0000
00006E0000
0000460000
0000C60000
0000C60000
0000C30000
0001830000
0001830000
0001818000
0003018000
0003018000
000301C000
000600C000
000600C000
000600C000
0004006000
000C006000
000C006000
000C003000
0018003000
0018003000
0018003800
0030001800
0030001800
0030001C00
0060000C00
0060000C00
0060000C00
00E0000600
00C0000600
00C0000600
00C0000700
0180000300
0180000300
0180000380
0300000180
0300000180
0300000180
06000000C0
06000000C0
06000000C0
0E000000E0
0C00000060
0C00000060
0C00000070
1800000030
1800000030
1800000030
3000000018
3000000018
3000000018
700000001C
600000000C
600000000C
FFFFFFFFFE
FFFFFFFFFE
ENDCHAR
STARTCHAR 03A9
ENCODING 937
SWIDTH 523 0
DWIDTH 44 0
BBX 30 59 7 0
BITMAP
0FFFFFC0
3FFFFFF0
70000038
60000018
C000000C
C000000C
C000000C
C000000C
C000000C
C000000C
C000000C
C000000C
C000000C
C000000C
C000000C
C000000C
C000000C
C000000C
C000000C
C000000C
C000000C
C000000C
C000000C
C000000C
C000000C
C000000C
C000000C
C000000C
C000000C
C000000C
C000000C
C000000C
C000000C
C000000C
C000000C
C000000C
C000000C
C000000C
60000018
70000038
3FF03FF0
0FF03FC0
00303000
00303000
00303000
00303000
00303000
00303000
00303000
00303000
00303000
00303000
00303000
00303000
00303000
00303000
00303000
FFF03FFC
FFF03FFC
ENDCHAR
STARTCHAR 03C0
ENCODING 960
SWIDTH 476 0
DWIDTH 40 0
BBX 32 44 4 0
BITMAP
07C00003
1FF00003
333C0003
630E0003
63070003
C301C006
C300E006
C300780E
C3001FFC
C30007F0
030000C0
030000C0
030000C0
030000C0
030000C0
030000C0
030000C0
030000C0
030000C0
030000C0
030000C0
030000C0
030000C0
030000C0
030000C0
030000C0
030000C0
030000C0
030000C0
030000C0
030000C0
030000C0
030000C0
030000C0
030000C0
030000C0
030000C0
030000C0
030000C0
030000C0
030000C0
030000C0
030000C0
030000C0
ENDCHAR
STARTCHAR 2013
ENCODING 8211
SWIDTH 452 0
DWIDTH 38 0
BBX 29 2 4 24
BITMAP
FFFFFFF8
FFFFFFF8
ENDCHAR
STARTCHAR 2014
ENCODING 8212
SWIDTH 714 0
DWIDTH 60 0
BBX 52 2 4 24
BITMAP
FFFFFFFFFFFFF0
FFFFFFFFFFFFF0
ENDCHAR
STARTCHAR 2018
ENCODING 8216
SWIDTH 178 0
DWIDTH 15 0
BBX 5 15 6 47
BITMAP
08
18
18
30
30
70
60
60
E0
C0
C0
C0
C0
C0
C0
ENDCHAR
STARTCHAR 2019
ENCODING 8217
SWIDTH 178 0
DWIDTH 15 0
BBX 5 15 4 44
BITMAP
18
18
18
18
18
18
38
30
30
70
60
60
C0
C0
80
ENDCHAR
STARTCHAR 201A
ENCODING 8218
SWIDTH 178 0
DWIDTH 15 0
BBX 5 15 4 -11
BITMAP
18
18
18
18
18
18
38
30
30
60
60
60
C0
C0
80
ENDCHAR
STARTCHAR 201C
ENCODING 8220
SWIDTH 297 0
DWIDTH 25 0
BBX 15 15 6 47
BITMAP
0C02
1806
1806
300C
300C
301C
6018
6018
E038
C030
C030
C030
C030
C030
C030
ENDCHAR
STARTCHAR 201D
ENCODING 8221
SWIDTH 297 0
DWIDTH 25 0
BBX 14 15 4 44
BITMAP
180C
180C
180C
180C
180C
180C
380C
301C
3018
7018
6030
6030
C020
C060
8060
ENDCHAR
STARTCHAR 201E
ENCODING 8222
SWIDTH 297 0
DWIDTH 25 0
BBX 14 15 4 -11
BITMAP
180C
180C
180C
180C
180C
180C
380C
3018
3018
6018
6030
6030
C020
C060
8060
ENDCHAR
STARTCHAR 2020
ENCODING 8224
SWIDTH 464 0
DWIDTH 39 0
BBX 36 59 1 0
BITMAP
0000600000
0000600000
0000600000
0000600000
0000600000
0000600000
0000600000
0000600000
0000600000
0000600000
0000600000
0000600000
0000600000
0000600000
0000600000
0000600000
0000600000
FFFFFFFFF0
FFFFFFFFF0
0000600000
0000600000
0000600000
0000600000
0000600000
0000600000
0000600000
0000600000
0000600000
0000600000
0000600000
0000600000
0000600000
0000600000
0000600000
0000600000
0000600000
0000600000
0000600000
0000600000
0000600000
0000600000
0000600000
0000600000
0000600000
0000600000
0000600000
0000600000
0000600000
0000600000
0000600000
0000600000
0000600000
0000600000
0000600000
0000600000
0000600000
0000600000
0000600000
0000600000
ENDCHAR
STARTCHAR 2021
ENCODING 8225
SWIDTH 500 0
DWIDTH 42 0
BBX 36 59 3 0
BITMAP
0000600000
0000600000
0000600000
0000600000
0000600000
0000600000
0000600000
0000600000
0000600000
0000600000
0000600000
0000600000
0000600000
0000600000
0000600000
0000600000
0000600000
FFFFFFFFF0
FFFFFFFFF0
0000600000
0000600000
0000600000
0000600000
0000600000
0000600000
0000600000
0000600000
0000600000
0000600000
0000600000
0000600000
0000600000
0000600000
0000600000
0000600000
0000600000
0000600000
FFFFFFFFF0
FFFFFFFFF0
0000600000
0000600000
0000600000
0000600000
0000600000
0000600000
0000600000
0000600000
0000600000
0000600000
0000600000
0000600000
0000600000
0000600000
0000600000
0000600000
0000600000
0000600000
0000600000
0000600000
ENDCHAR
STARTCHAR 2022
ENCODING 8226
SWIDTH 428 0
DWIDTH 36 0
BBX 22 38 7 2
BITMAP
0FFFC0
3FFFF0
7FFFF8
FFFFFC
FFFFFC
FFFFFC
FFFFFC
FFFFFC
FFFFFC
FFFFFC
FFFFFC
FFFFFC
FFFFFC
FFFFFC
FFFFFC
FFFFFC
FFFFFC
FFFFFC
FFFFFC
FFFFFC
FFFFFC
FFFFFC
FFFFFC
FFFFFC
FFFFFC
FFFFFC
FFFFFC
FFFFFC
FFFFFC
FFFFFC
FFFFFC
FFFFFC
FFFFFC
FFFFFC
FFFFFC
7FFFF8
3FFFF0
0FFFC0
ENDCHAR
STARTCHAR 2026
ENCODING 8230
SWIDTH 595 0
DWIDTH 50 0
BBX 38 3 6 1
BITMAP
E00070001C
E00070001C
E00070001C
ENDCHAR
STARTCHAR 2030
ENCODING 8240
SWIDTH 797 0
DWIDTH 67 0
BBX 57 59 5 0
BITMAP
0FF8000180000000
3FFE000180000000
7007000300000000
6003000300000000
C001800600000000
C001800600000000
C001800C00000000
C001800C00000000
C001801800000000
C001801800000000
C001803000000000
C001803000000000
C001806000000000
C001806000000000
C00180C000000000
C001818000000000
C001818000000000
C001830000000000
C001830000000000
C001860000000000
C001860000000000
C0018C0000000000
C0018C0000000000
E003180000000000
6003180000000000
780E300000000000
3FFC300000000000
07F0600000000000
0000E00000000000
0000C00000000000
0001800000000000
000183FC0007F000
00030FFF001FFC00
00031C0380380E00
0006180180600300
00063000C0C00300
000C3000C0C00180
000C3000C0C00180
00183000C0C00180
00183000C0C00180
00303000C0C00180
00303000C0C00180
00603000C0C00180
00C03000C0C00180
00C03000C0C00180
01803000C0C00180
01803000C0C00180
03003000C0C00180
03003000C0C00180
06003000C0C00180
06003000C0C00180
0C003000C0C00180
0C003000C0C00180
18003000C0C00180
18003000C0C00180
3000180180600300
30001C0380700700
60000FFF003FFE00
C00003FC000FF800
ENDCHAR
STARTCHAR 2039
ENCODING 8249
SWIDTH 333 0
DWIDTH 28 0
BBX 21 34 3 8
BITMAP
000008
000018
000070
0000E0
0001C0
000380
000E00
001C00
003800
007000
01C000
038000
070000
0E0000
3C0000
700000
E00000
E00000
700000
380000
1E0000
0F0000
038000
01C000
00E000
007800
001C00
000E00
000700
000380
0000E0
000070
000038
000018
ENDCHAR
STARTCHAR 203A
ENCODING 8250
SWIDTH 333 0
DWIDTH 28 0
BBX 21 34 3 8
BITMAP
800000
C00000
700000
380000
1C0000
0E0000
038000
01C000
00E000
007000
003C00
000E00
000700
0003C0
0001E0
0000F0
000038
000038
000070
0000E0
0001C0
000780
000E00
001C00
003800
00F000
01C000
038000
070000
0E0000
380000
700000
E00000
800000
ENDCHAR
STARTCHAR 2044
ENCODING 8260
SWIDTH 392 0
DWIDTH 33 0
BBX 33 59 0 0
BITMAP
0000000180
0000000380
0000000300
0000000700
0000000600
0000000E00
0000000C00
0000001C00
0000001800
0000003800
0000003000
0000007000
0000006000
000000E000
000000C000
000001C000
0000038000
0000030000
0000070000
0000060000
00000E0000
00000C0000
00001C0000
0000180000
0000380000
0000300000
0000700000
0000600000
0000E00000
0000C00000
0001C00000
0001800000
0003800000
0007000000
0006000000
000E000000
000C000000
001C000000
0018000000
0038000000
0030000000
0070000000
0060000000
00E0000000
00C0000000
01C0000000
0180000000
0380000000
0300000000
0700000000
0E00000000
0C00000000
1C00000000
1800000000
3800000000
3000000000
7000000000
6000000000
E000000000
ENDCHAR
STARTCHAR 20AC
ENCODING 8364
SWIDTH 488 0
DWIDTH 41 0
BBX 33 59 4 0
BITMAP
01FFFFFF80
03FFFFFF80
0600000000
0C00000000
0C00000000
1800000000
1800000000
1800000000
1800000000
1800000000
1800000000
1800000000
1800000000
1800000000
1800000000
1800000000
1800000000
1800000000
1800000000
1800000000
1800000000
FFFFFFE000
FFFFFFE000
1800000000
1800000000
1800000000
1800000000
1800000000
1800000000
1800000000
1800000000
1800000000
1800000000
FFFFFFE000
FFFFFFE000
1800000000
1800000000
1800000000
1800000000
1800000000
1800000000
1800000000
1800000000
1800000000
1800000000
1800000000
1800000000
1800000000
1800000000
1800000000
1800000000
1800000000
1800000000
1800000000
0C00000000
0C00000000
0E00000000
07FFFFFF80
01FFFFFF80
ENDCHAR
STARTCHAR 2122
ENCODING 8482
SWIDTH 511 0
DWIDTH 43 0
BBX 33 26 6 39
BITMAP
C000000000
C000000000
C000000000
C000000000
C000000000
FE1FFFFE00
C0180E0300
C018060180
C018060180
C018060180
C018060180
C018060180
C018060180
C018060180
C018060180
C018060180
C018060180
C018060180
C018060180
C018060180
C018060180
C018060180
C018060180
E018060180
7E18060180
3E18060180
ENDCHAR
STARTCHAR 2202
ENCODING 8706
SWIDTH 511 0
DWIDTH 43 0
BBX 28 59 7 0
BITMAP
70000000
38000000
18000000
0C000000
06000000
03000000
01800000
00C00000
00600000
00300000
00180000
000C0000
000E0000
00070000
00038000
0001C000
0000E000
00007000
00003800
00001C00
00000C00
00000600
00000300
00000180
000000C0
00000060
00000030
0FFFFFF0
3FFFFFF0
30000030
60000030
60000030
C0000030
C0000030
C0000030
C0000030
C0000030
C0000030
C0000030
C0000030
C0000030
C0000030
C0000030
C0000030
C0000030
C0000030
C0000030
C0000030
C0000030
C0000030
C0000030
C0000030
C0000030
C0000030
E0000030
60000060
700000E0
3FFFFFC0
0FFFFF00
ENDCHAR
STARTCHAR 220F
ENCODING 8719
SWIDTH 547 0
DWIDTH 46 0
BBX 32 59 7 0
BITMAP
FFFFFFFF
FFFFFFFF
C0000003
C0000003
C0000003
C0000003
C0000003
C0000003
C0000003
C0000003
C0000003
C0000003
C0000003
C0000003
C0000003
C0000003
C0000003
C0000003
C0000003
C0000003
C0000003
C0000003
C0000003
C0000003
C0000003
C0000003
C0000003
C0000003
C0000003
C0000003
C0000003
C0000003
C0000003
C0000003
C0000003
C0000003
C0000003
C0000003
C0000003
C0000003
C0000003
C0000003
C0000003
C0000003
C0000003
C0000003
C0000003
C0000003
C0000003
C0000003
C0000003
C0000003
C0000003
C0000003
C0000003
C0000003
C0000003
C0000003
C0000003
ENDCHAR
STARTCHAR 2211
ENCODING 8721
SWIDTH 511 0
DWIDTH 43 0
BBX 33 59 4 0
BITMAP
FFFFFFFF80
FFFFFFFF80
E000000000
6000000000
3000000000
3000000000
1800000000
1800000000
0C00000000
0E00000000
0600000000
0300000000
0300000000
0180000000
0180000000
00C0000000
00E0000000
0060000000
0030000000
0030000000
0018000000
0018000000
000C000000
000E000000
0006000000
0003000000
0003000000
0001800000
0001800000
0000C00000
0001800000
0001800000
0003000000
0003000000
0006000000
000E000000
000C000000
0018000000
0018000000
0030000000
0030000000
0060000000
00E0000000
00C0000000
0180000000
0180000000
0300000000
0300000000
0600000000
0E00000000
0C00000000
1800000000
1800000000
3000000000
3000000000
6000000000
E000000000
FFFFFFFF80
FFFFFFFF80
ENDCHAR
STARTCHAR 221A
ENCODING 8730
SWIDTH 666 0
DWIDTH 56 0
BBX 48 59 3 0
BITMAP
000000000003
000000000006
000000000006
00000000000C
00000000000C
000000000018
000000000018
000000000030
000000000030
000000000060
000000000060
0000000000C0
0000000001C0
000000000180
000000000380
000000000300
000000000700
FFFF80000600
FFFF80000E00
000180000C00
000180001800
000180001800
000180003000
000180003000
000180006000
000180006000
00018000C000
00018000C000
000180018000
000180018000
000180030000
000180030000
000180060000
000180060000
0001800C0000
0001800C0000
000180180000
000180100000
000180300000
000180200000
000180600000
000180400000
000180C00000
000180800000
000181800000
000181000000
000183000000
000182000000
000186000000
000184000000
00018C000000
000188000000
000198000000
000190000000
0001A0000000
0001A0000000
0001C0000000
0001C0000000
000180000000
ENDCHAR
STARTCHAR 221E
ENCODING 8734
SWIDTH 738 0
DWIDTH 62 0
BBX 56 28 3 17
BITMAP
07FFFF00FFFFE0
1FFFFFE7FFFFF8
380000EF00001C
6000007C000006
6000003C000007
C0000018000003
C0000018000003
C0000018000003
C0000018000003
C0000018000003
C0000018000003
C0000018000003
C0000018000003
C0000018000003
C0000018000003
C0000018000003
C0000018000003
C0000018000003
C0000018000003
C0000018000003
C0000018000003
C0000018000003
C0000018000003
6000003C000003
6000003C000006
380000FF00000C
3FFFFFE7FFFFF8
0FFFFF81FFFFF0
ENDCHAR
STARTCHAR 222B
ENCODING 8747
SWIDTH 238 0
DWIDTH 20 0
BBX 26 76 -3 -17
BITMAP
0000FFC0
0003FFC0
00070000
00060000
000C0000
000C0000
000C0000
000C0000
000C0000
000C0000
000C0000
000C0000
000C0000
000C0000
000C0000
000C0000
000C0000
000C0000
000C0000
000C0000
000C0000
000C0000
000C0000
000C0000
000C0000
000C0000
000C0000
000C0000
000C0000
000C0000
000C0000
000C0000
000C0000
000C0000
000C0000
000C0000
000C0000
000C0000
000C0000
000C0000
000C0000
000C0000
000C0000
000C0000
000C0000
000C0000
000C0000
000C0000
000C0000
000C0000
000C0000
000C0000
000C0000
000C0000
000C0000
000C0000
000C0000
000C0000
000C0000
000C0000
000C0000
000C0000
000C0000
000C0000
000C0000
000C0000
000C0000
000C0000
000C0000
000C0000
000C0000
000C0000
00180000
00380000
FFF00000
FFC00000
ENDCHAR
STARTCHAR 2248
ENCODING 8776
SWIDTH 452 0
DWIDTH 38 0
BBX 32 28 4 12
BITMAP
07800003
1FF00003
38380003
700C0003
60070003
60018003
C000C007
C0006006
C000300E
C0001C1C
C00007F8
C00001E0
00000000
00000000
00000000
00000000
07800003
1FF00003
38380003
700C0003
60070003
60018003
C000C007
C0006006
C000300E
C0001C1C
C00007F8
C00001E0
ENDCHAR
STARTCHAR 2260
ENCODING 8800
SWIDTH 452 0
DWIDTH 38 0
BBX 29 39 4 6
BITMAP
00000060
000000C0
000000C0
00000180
00000180
00000300
00000600
00000600
00000C00
00000C00
FFFFFFF8
FFFFFFF8
00003000
00006000
00006000
0000C000
00018000
00018000
00030000
00030000
00060000
000C0000
000C0000
00180000
00180000
00300000
00600000
FFFFFFF8
FFFFFFF8
00C00000
01800000
03000000
03000000
06000000
06000000
0C000000
18000000
18000000
30000000
ENDCHAR
STARTCHAR 2264
ENCODING 8804
SWIDTH 452 0
DWIDTH 38 0
BBX 29 44 4 1
BITMAP
00000008
00000038
000000E0
00000180
00000700
00001C00
00007000
0000E000
00038000
000E0000
003C0000
00700000
01C00000
07800000
0E000000
38000000
F0000000
E0000000
F0000000
3C000000
0F000000
03800000
01E00000
00780000
001C0000
00070000
0003C000
0000E000
00003800
00000E00
00000700
000001C0
00000070
00000018
00000008
00000000
00000000
00000000
00000000
00000000
00000000
00000000
FFFFFFF8
FFFFFFF8
ENDCHAR
STARTCHAR 2265
ENCODING 8805
SWIDTH 452 0
DWIDTH 38 0
BBX 29 44 4 1
BITMAP
80000000
E0000000
38000000
1C000000
07000000
01C00000
00700000
00380000
000E0000
00038000
0001E000
00007000
00001C00
00000F00
00000380
000000E0
00000078
00000038
00000070
000001E0
00000780
00000E00
00003C00
0000F000
0001C000
00070000
001E0000
00380000
00E00000
03800000
07000000
1C000000
70000000
C0000000
80000000
00000000
00000000
00000000
00000000
00000000
00000000
00000000
FFFFFFF8
FFFFFFF8
ENDCHAR
STARTCHAR 25CA
ENCODING 9674
SWIDTH 500 0
DWIDTH 42 0
BBX 33 76 5 -17
BITMAP
0001C00000
0001E00000
0003600000
0003700000
0007300000
0006300000
0006380000
000C180000
000C1C0000
001C0C0000
00180C0000
00180E0000
0030060000
0030070000
0070030000
0060030000
0060038000
00C0018000
00C0018000
01C000C000
018000C000
018000E000
0300006000
0300006000
0700007000
0600003000
0600003800
0C00001800
0C00001800
1C00001C00
1800000C00
1800000E00
3000000600
3000000600
7000000700
6000000300
6000000380
C000000180
C000000180
E000000300
6000000300
7000000600
3000000600
3000000600
3800000C00
1800000C00
1C00001800
0C00001800
0C00001800
0E00003000
0600003000
0700006000
0300006000
0300006000
038000C000
018000C000
0180018000
00C0018000
00C0018000
00E0030000
0060030000
0060060000
0070060000
0030060000
00380C0000
00180C0000
0018180000
001C180000
000C180000
000E300000
0006300000
0006600000
0007600000
0003600000
0003C00000
0001C00000
ENDCHAR
STARTCHAR F6C3
ENCODING 63171
SWIDTH 178 0
DWIDTH 15 0
BBX 6 14 3 -17
BITMAP
0C
0C
0C
0C
0C
1C
18
18
38
30
70
60
60
C0
ENDCHAR
STARTCHAR F6C9
ENCODING 63177
SWIDTH 476 0
DWIDTH 40 0
BBX 9 7 19 62
BITMAP
0180
0300
0E00
1C00
3000
6000
C000
ENDCHAR
STARTCHAR F6CA
ENCODING 63178
SWIDTH 380 0
DWIDTH 32 0
BBX 16 7 8 62
BITMAP
C003
6006
300C
1818
0C30
07E0
03C0
ENDCHAR
STARTCHAR F6CB
ENCODING 63179
SWIDTH 297 0
DWIDTH 25 0
BBX 11 2 7 64
BITMAP
C060
C060
ENDCHAR
STARTCHAR F6CE
ENCODING 63182
SWIDTH 285 0
DWIDTH 24 0
BBX 9 7 8 62
BITMAP
C000
6000
3800
1C00
0600
0300
0180
ENDCHAR
STARTCHAR F6CF
ENCODING 63183
SWIDTH 392 0
DWIDTH 33 0
BBX 19 8 7 62
BITMAP
0180E0
0301C0
060380
0C0300
180400
300800
601000
C02000
ENDCHAR
STARTCHAR F6D0
ENCODING 63184
SWIDTH 357 0
DWIDTH 30 0
BBX 16 2 7 65
BITMAP
FFFF
FFFF
ENDCHAR
ENDFONT
